<svg width="17" height="17" viewBox="0 0 17 17" xmlns="http://www.w3.org/2000/svg">
    <path fill-rule="evenodd" clip-rule="evenodd" d="M9.63523 12.671C9.77224 12.7557 9.86876 12.812 9.92492 12.8403C9.98152 12.8681 10.0641 12.9027 10.1725 12.9426C10.2811 12.9828 10.3717 13.0029 10.4443 13.0029C10.5891 13.0029 10.7745 12.8885 10.9997 12.6588C11.2297 12.4241 11.4435 12.174 11.6395 11.9103C11.8392 11.6424 12.0613 11.3919 12.3034 11.1616C12.5448 10.9322 12.7459 10.8177 12.9069 10.8177C13.0197 10.8177 13.1343 10.8458 13.251 10.9021C13.3679 10.9585 13.5106 11.045 13.6799 11.1616C13.8488 11.2785 13.9494 11.3489 13.9815 11.3731C14.1827 11.4935 14.398 11.6184 14.6277 11.7471C14.8569 11.876 15.1126 12.0169 15.3943 12.17C15.6132 12.2878 15.8304 12.4085 16.0461 12.532C16.6098 12.8136 16.9156 13.027 16.9638 13.172C16.9882 13.2287 17.0003 13.3133 17 13.4262C17 13.6436 16.9599 13.9272 16.8792 14.2773C16.7988 14.6275 16.7146 14.9032 16.6258 15.1043C16.4567 15.5069 15.9656 15.9334 15.153 16.3843C14.3962 16.7946 13.6475 17 12.9072 17C12.6951 17.0001 12.4833 16.9861 12.2731 16.9579C12.068 16.9294 11.8367 16.8791 11.5788 16.8067C11.3213 16.7341 11.1301 16.6757 11.0055 16.6314C10.8806 16.5871 10.6571 16.5045 10.3354 16.384C10.0134 16.263 9.81614 16.1906 9.74372 16.1665C8.95492 15.8848 8.25052 15.5506 7.63066 15.1645C6.60021 14.5285 5.53577 13.661 4.43689 12.5623C3.33817 11.4637 2.47074 10.3992 1.83506 9.36892C1.44872 8.7491 1.1147 8.04488 0.832995 7.25599C0.808904 7.18357 0.736336 6.98642 0.615733 6.66424C0.53156 6.44161 0.449087 6.21835 0.368319 5.99446C0.324128 5.86973 0.265748 5.67849 0.193327 5.42089C0.120758 5.1633 0.0703591 4.93186 0.0422775 4.72658C0.0137525 4.5165 -0.00037055 4.30472 7.38784e-06 4.09272C7.38784e-06 3.35229 0.205151 2.6036 0.615733 1.84706C1.06652 1.03423 1.49321 0.543419 1.89566 0.374349C2.09681 0.285676 2.37246 0.201288 2.72274 0.120891C3.07287 0.0401987 3.35664 0 3.57405 0C3.68667 0 3.77121 0.0122665 3.82752 0.0363561C3.97251 0.0845352 4.18579 0.390458 4.46749 0.953829C4.55617 1.10679 4.67677 1.32419 4.82974 1.60573C4.96877 1.8623 5.10962 2.11789 5.25229 2.37245C5.37406 2.58944 5.49881 2.80474 5.62652 3.01829C5.65076 3.05066 5.72111 3.15101 5.83787 3.32008C5.95478 3.48915 6.04124 3.63191 6.09755 3.74881C6.15386 3.86556 6.18209 3.98025 6.18209 4.09286C6.18209 4.25395 6.06725 4.45495 5.83787 4.69658C5.60768 4.93877 5.35724 5.16086 5.08927 5.36045C4.82563 5.55657 4.57558 5.77032 4.34083 6.00023C4.11144 6.2256 3.99661 6.41078 3.99661 6.55562C3.99661 6.62803 4.01685 6.71863 4.05705 6.82725C4.09711 6.93588 4.1314 7.01834 4.15948 7.07465C4.18771 7.13125 4.24402 7.22761 4.32856 7.36461C4.4131 7.50146 4.45951 7.57772 4.46749 7.59398C5.07922 8.69663 5.77964 9.64248 6.56829 10.4314C7.35723 11.22 8.30313 11.9203 9.40585 12.532C9.42182 12.5402 9.49823 12.5866 9.63523 12.671Z" />
</svg>