<svg width="80" height="80" viewBox="0 0 80 80" xmlns="http://www.w3.org/2000/svg">
    <path fill-rule="evenodd" clip-rule="evenodd" d="M62.4488 21.8097H48.3654C46.5368 20.2747 38.1194 13.9968 28.3585 19.1462C23.6513 16.9533 14.453 15.4049 7.52453 19.857L1.1355 18.4737L0.984173 19.711C0.972622 19.7975 0.881366 20.6509 0.976087 23.5557C1.02576 25.0749 1.76273 26.3718 2.4766 27.6272C3.26672 29.0184 3.9494 30.2198 3.67448 31.5392C3.5682 32.0501 3.4088 32.2331 3.34064 32.2589C3.08189 32.3488 2.36225 32.0389 1.94062 31.72L0 30.2255L0.198683 36.6706C0.198683 40.1661 2.03072 42.9025 3.50467 45.1022C4.55584 46.6708 5.46262 48.025 5.26278 48.9816C5.1773 49.3971 5.02945 49.6913 4.87813 49.7497C4.56624 49.8698 3.82002 49.5644 3.42035 49.2904L1.26949 47.7858L2.33568 55.9018L2.43849 56.087C2.59789 56.3734 5.90042 62 19.7539 62C22.5401 62 25.7514 61.7721 29.4501 61.2286C33.6617 62.2661 36.0101 62.2212 39.3762 61.0624C42.6094 59.9497 46.0101 58.2238 46.9723 57.7242L62.4407 57.7118C65.3805 57.7118 67 56.2297 67 53.5359V27.0983C67 22.4968 64.148 21.8097 62.4488 21.8097ZM51.2405 24.0688H61.0326V28.3548C61.0326 28.7276 60.8535 28.9364 60.8004 28.951H51.4773C51.4207 28.9364 51.2405 28.7276 51.2405 28.3548V24.0688ZM45.235 25.5948C45.5688 26.2113 45.2662 26.5638 45.1218 26.6873C42.7734 28.6759 41.0765 28.9836 39.4489 27.7192C39.0331 27.3959 38.5895 27.0422 38.1205 26.6671C35.8507 24.8548 32.9167 22.5317 29.732 20.9956C32.5563 19.5729 35.2269 19.2305 37.5926 19.455C41.5767 20.4409 43.9112 23.1459 45.235 25.5948ZM16.3024 19.354C26.5322 21.0618 39.0204 33.484 43.18 37.9035L43.2782 38.0057C44.2416 39.0152 44.6309 39.7765 43.7714 40.6837C42.7977 41.7111 41.5097 42.8003 39.9422 43.9198L39.6777 44.1163C38.5075 44.9966 36.5519 46.4709 32.5043 42.8351C30.5196 41.0401 28.5527 39.2267 26.6039 37.3949C20.5787 31.7694 14.3964 26.0046 8.21761 22.1308L8.42438 21.9893C10.7658 20.3758 13.5335 19.5887 16.3024 19.354ZM2.50548 36.6358L2.49162 36.1811C5.56081 40.412 11.9152 46.1397 15.0479 48.8592C19.397 52.6354 24.5778 56.7383 28.1829 59.121C27.5137 59.2125 26.8433 59.2952 26.1718 59.3692C20.7208 56.2577 4.58472 42.1244 2.56555 37.5375C2.52845 37.2382 2.5084 36.9372 2.50548 36.6358ZM4.56393 55.1461L4.14808 51.9853C4.18043 51.9898 4.21392 51.9909 4.24742 51.9954C6.21692 54.7329 9.58414 57.2975 12.5759 59.0884C7.02783 57.9633 5.00057 55.7176 4.56393 55.1461ZM15.8207 59.5578C12.8693 58.1205 8.21761 55.1607 5.60586 51.8865C5.64398 51.8741 5.68325 51.8674 5.72137 51.8528C6.36594 51.6046 7.20225 50.9837 7.52453 49.4341C7.91381 47.5646 6.70901 45.7669 5.4349 43.8637C4.86311 43.0103 4.2659 42.1064 3.75649 41.1396C8.46943 46.7842 18.6392 55.9153 24.289 59.5477C20.9587 59.8161 18.1656 59.7801 15.8207 59.5578ZM38.6103 58.9324C35.7329 59.9227 33.85 59.9598 30.2148 59.0806C23.6906 55.2247 6.63739 40.823 2.71456 34.4867C3.17084 34.5608 3.65484 34.5518 4.13422 34.38C4.77763 34.1476 5.61163 33.5469 5.93623 31.9906C6.38211 29.8504 5.3783 28.0864 4.49231 26.529C3.88702 25.4623 3.31523 24.4551 3.28289 23.4827L3.27942 23.3614C6.77139 25.8946 11.3457 30.2951 16.1603 34.928C25.7479 44.1556 36.4941 54.4971 44.617 56.37C43.1407 57.0931 40.8062 58.1756 38.6103 58.9324ZM64.692 53.5359C64.692 54.807 64.3444 55.4538 62.4395 55.4538L46.3878 55.4661L46.315 55.5043C38.4463 54.7935 26.5704 43.3629 16.9689 34.1218C11.7916 29.1385 6.90192 24.4461 3.24592 21.9612C3.24226 21.7217 3.24072 21.4822 3.2413 21.2426L5.15767 21.6581C12.0342 25.3568 19.0204 31.8761 25.808 38.2123C27.7578 40.0325 29.7747 41.9166 31.7234 43.6672C33.9655 45.6804 35.7352 46.307 37.1109 46.307C38.66 46.307 39.7112 45.5154 40.3811 45.0112L40.6226 44.8327C42.2501 43.6694 43.5947 42.5319 44.617 41.4518C46.3751 39.5957 44.7371 37.8811 44.1214 37.2354L44.029 37.1378C39.3877 32.2062 29.8521 22.9494 20.7577 19.4281C23.0206 19.6807 25.1137 20.2321 26.776 20.9293L26.7506 21.0136C27.0809 21.1135 27.409 21.2449 27.737 21.3695C27.7729 21.3875 27.8133 21.4043 27.8479 21.4223L28.414 21.7165L28.4937 21.6704C31.8355 23.12 34.9924 25.6274 37.3916 27.543C37.8641 27.9191 38.3123 28.2762 38.7316 28.6041C39.6696 29.3328 40.5983 29.6045 41.4658 29.6045C43.4388 29.6045 45.1033 28.1965 45.8772 27.5418C46.4202 27.0803 46.8441 26.1562 46.255 25.0659C45.6012 23.8566 44.5546 22.3363 43.0021 21.0091C45.4475 22.1926 46.9769 23.6107 47.1213 23.7466L47.4575 24.0688H50.0877V28.3548C50.0877 29.3227 50.6965 30.0806 51.4727 30.0806H60.8004C61.5778 30.0806 62.1866 29.3227 62.1866 28.3548V24.0688H62.4488C63.5335 24.0688 64.692 24.3024 64.692 27.0983V53.5359Z" fill="#0499C5" />
</svg>