<svg width="80" height="80" viewBox="0 0 80 80" xmlns="http://www.w3.org/2000/svg">
    <g clip-path="url(#clip0)">
        <path d="M52.5 39.125V40.625C52.5 41.1222 52.3025 41.5991 51.9508 41.9508C51.5992 42.3024 51.1223 42.5 50.625 42.5H26.875C26.3777 42.5 25.9008 42.3024 25.5492 41.9508C25.1975 41.5991 25 41.1222 25 40.625V39.125C24.7847 39.0601 24.5756 38.9764 24.375 38.875C24.1548 38.7758 23.9454 38.6544 23.75 38.5125V40.625C23.75 41.4538 24.0792 42.2486 24.6653 42.8347C25.2513 43.4207 26.0462 43.75 26.875 43.75H31.25V52.5H30.625C30.1277 52.5 29.6508 52.6975 29.2992 53.0491C28.9475 53.4008 28.75 53.8777 28.75 54.375C28.75 54.8722 28.9475 55.3491 29.2992 55.7008C29.6508 56.0524 30.1277 56.25 30.625 56.25H31.5L32.5 70.9875L33.75 72.325V75H35.625V80H41.875V75H43.75V72.325L45 70.9875L46 56.25H46.875C47.3723 56.25 47.8492 56.0524 48.2008 55.7008C48.5525 55.3491 48.75 54.8722 48.75 54.375C48.75 53.8777 48.5525 53.4008 48.2008 53.0491C47.8492 52.6975 47.3723 52.5 46.875 52.5H46.25V43.75H50.625C51.4538 43.75 52.2487 43.4207 52.8347 42.8347C53.4208 42.2486 53.75 41.4538 53.75 40.625V38.5125C53.5546 38.6544 53.3452 38.7758 53.125 38.875C52.9244 38.9764 52.7153 39.0601 52.5 39.125ZM47.5 54.375C47.5 54.5407 47.4342 54.6997 47.3169 54.8169C47.1997 54.9341 47.0408 55 46.875 55H30.625C30.4592 55 30.3003 54.9341 30.1831 54.8169C30.0658 54.6997 30 54.5407 30 54.375C30 54.2092 30.0658 54.0502 30.1831 53.933C30.3003 53.8158 30.4592 53.75 30.625 53.75H46.875C47.0408 53.75 47.1997 53.8158 47.3169 53.933C47.4342 54.0502 47.5 54.2092 47.5 54.375ZM40.625 78.75H39.375V76.25H40.625V78.75ZM38.125 78.75H36.875V76.25H38.125V78.75ZM37.5 73.75V70.7625L37.1625 70.4125L36.1375 69.2875L35.3125 56.25H42.1875L41.3625 69.2875L40.3375 70.4125L40 70.7625V73.75H37.5ZM34.05 56.25L34.9125 69.8125L36.25 71.25V73.75H35V71.825L34.6625 71.4624L33.75 70.45L32.75 56.25H34.05ZM42.5 71.825V73.75H41.25V71.25L42.5875 69.8L43.45 56.25H44.7L43.75 70.45L42.8 71.4624L42.5 71.825ZM45 52.5H32.5V43.75H45V52.5Z" fill="#0499C5" />
        <path d="M38.75 51.25C39.3681 51.25 39.9723 51.0667 40.4862 50.7233C41.0001 50.38 41.4006 49.8919 41.6371 49.3209C41.8736 48.7499 41.9355 48.1215 41.815 47.5153C41.6944 46.9092 41.3967 46.3523 40.9597 45.9153C40.5227 45.4783 39.9658 45.1806 39.3597 45.06C38.7535 44.9395 38.1251 45.0014 37.5541 45.2379C36.9831 45.4744 36.495 45.8749 36.1517 46.3888C35.8083 46.9027 35.625 47.5069 35.625 48.125C35.625 48.5354 35.7058 48.9417 35.8629 49.3209C36.0199 49.7 36.2501 50.0445 36.5403 50.3347C36.8305 50.6249 37.175 50.8551 37.5541 51.0121C37.9333 51.1692 38.3396 51.25 38.75 51.25ZM38.75 46.25C39.1208 46.25 39.4834 46.36 39.7917 46.566C40.1 46.772 40.3404 47.0649 40.4823 47.4075C40.6242 47.7501 40.6613 48.1271 40.589 48.4908C40.5166 48.8545 40.338 49.1886 40.0758 49.4508C39.8136 49.7131 39.4795 49.8916 39.1158 49.964C38.7521 50.0363 38.3751 49.9992 38.0325 49.8573C37.6899 49.7154 37.397 49.475 37.191 49.1667C36.985 48.8584 36.875 48.4958 36.875 48.125C36.875 47.6277 37.0725 47.1508 37.4242 46.7992C37.7758 46.4475 38.2527 46.25 38.75 46.25Z" fill="#0499C5" />
        <path d="M34.375 46.25C34.7202 46.25 35 45.9702 35 45.625C35 45.2798 34.7202 45 34.375 45C34.0298 45 33.75 45.2798 33.75 45.625C33.75 45.9702 34.0298 46.25 34.375 46.25Z" fill="#0499C5" />
        <path d="M34.375 51.25C34.7202 51.25 35 50.9702 35 50.625C35 50.2798 34.7202 50 34.375 50C34.0298 50 33.75 50.2798 33.75 50.625C33.75 50.9702 34.0298 51.25 34.375 51.25Z" fill="#0499C5" />
        <path d="M43.125 46.25C43.4702 46.25 43.75 45.9702 43.75 45.625C43.75 45.2798 43.4702 45 43.125 45C42.7798 45 42.5 45.2798 42.5 45.625C42.5 45.9702 42.7798 46.25 43.125 46.25Z" fill="#0499C5" />
        <path d="M43.125 51.25C43.4702 51.25 43.75 50.9702 43.75 50.625C43.75 50.2798 43.4702 50 43.125 50C42.7798 50 42.5 50.2798 42.5 50.625C42.5 50.9702 42.7798 51.25 43.125 51.25Z" fill="#0499C5" />
        <path d="M51.2499 2.5H37.3874C37.2584 2.13528 37.0198 1.81937 36.7043 1.59559C36.3888 1.3718 36.0117 1.25109 35.6249 1.25H34.8874C34.7584 0.885282 34.5198 0.569374 34.2043 0.345587C33.8888 0.121799 33.5117 0.00108719 33.1249 0L30.6249 0C30.1276 0 29.6507 0.197544 29.2991 0.549175C28.9474 0.900805 28.7499 1.37772 28.7499 1.875V2.5H26.2499C23.5977 2.5 21.0542 3.55357 19.1788 5.42893C17.3035 7.3043 16.2499 9.84783 16.2499 12.5V23.75C16.237 23.8454 16.237 23.9421 16.2499 24.0375C16.302 24.5739 16.5261 25.0792 16.8888 25.4779C17.2515 25.8766 17.7333 26.1474 18.2624 26.25L20.7624 31.25C20.6726 31.4681 20.6259 31.7016 20.6249 31.9375C20.6222 32.3475 20.7558 32.7467 21.0047 33.0725C21.2536 33.3983 21.6036 33.6322 21.9999 33.7375L23.1874 36.1125C23.3337 36.4134 23.5232 36.6913 23.7499 36.9375C23.9337 37.147 24.1438 37.3318 24.3749 37.4875C24.5655 37.6366 24.7758 37.7586 24.9999 37.85C25.485 38.0764 26.0146 38.1916 26.5499 38.1875H50.9499C51.49 38.1722 52.0198 38.0355 52.4999 37.7875C52.7239 37.6961 52.9343 37.5741 53.1249 37.425C53.356 37.2693 53.5661 37.0845 53.7499 36.875C53.9765 36.6288 54.166 36.3509 54.3124 36.05L55.4999 33.675C55.8961 33.5697 56.2462 33.3358 56.4951 33.01C56.7439 32.6842 56.8776 32.285 56.8749 31.875C56.8739 31.6391 56.8272 31.4056 56.7374 31.1875L59.2374 26.1875C59.7536 26.0897 60.2258 25.8317 60.5871 25.4503C60.9484 25.0688 61.1803 24.5832 61.2499 24.0625C61.2651 23.9589 61.2651 23.8536 61.2499 23.75V12.5C61.2499 9.84783 60.1963 7.3043 58.321 5.42893C56.4456 3.55357 53.9021 2.5 51.2499 2.5ZM34.9999 2.5H35.6249C35.7906 2.5 35.9496 2.56585 36.0668 2.68306C36.184 2.80027 36.2499 2.95924 36.2499 3.125V6.25H34.9999V2.5ZM29.9999 1.875C29.9999 1.70924 30.0657 1.55027 30.1829 1.43306C30.3002 1.31585 30.4591 1.25 30.6249 1.25H33.1249C33.2906 1.25 33.4496 1.31585 33.5668 1.43306C33.684 1.55027 33.7499 1.70924 33.7499 1.875V8.125C33.7499 8.29076 33.684 8.44973 33.5668 8.56694C33.4496 8.68415 33.2906 8.75 33.1249 8.75H30.6249C30.4591 8.75 30.3002 8.68415 30.1829 8.56694C30.0657 8.44973 29.9999 8.29076 29.9999 8.125V1.875ZM26.2499 6.25C24.5923 6.25 23.0026 6.90848 21.8305 8.08058C20.6584 9.25268 19.9999 10.8424 19.9999 12.5V23.75C20.0129 23.837 20.0129 23.9255 19.9999 24.0125C19.9279 24.2773 19.7708 24.5111 19.5528 24.6777C19.3348 24.8444 19.068 24.9347 18.7936 24.9347C18.5192 24.9347 18.2524 24.8444 18.0345 24.6777C17.8165 24.5111 17.6594 24.2773 17.5874 24.0125C17.5419 23.9313 17.5122 23.8422 17.4999 23.75V12.5C17.4999 10.1794 18.4218 7.95376 20.0627 6.31282C21.7036 4.67187 23.9292 3.75 26.2499 3.75H28.7499V6.25H26.2499ZM34.9999 19.375V30H32.4999V19.375C32.4999 19.2092 32.434 19.0503 32.3168 18.9331C32.1996 18.8158 32.0406 18.75 31.8749 18.75C31.7091 18.75 31.5502 18.8158 31.4329 18.9331C31.3157 19.0503 31.2499 19.2092 31.2499 19.375V30H28.7499V19.375C28.7499 19.2092 28.684 19.0503 28.5668 18.9331C28.4496 18.8158 28.2906 18.75 28.1249 18.75C27.9591 18.75 27.8002 18.8158 27.6829 18.9331C27.5657 19.0503 27.4999 19.2092 27.4999 19.375V30H24.9999V18.125C24.9999 17.6277 25.1974 17.1508 25.5491 16.7992C25.9007 16.4475 26.3776 16.25 26.8749 16.25H34.9999V19.375ZM36.2499 28.125V15.625C36.2487 15.4115 36.2868 15.1997 36.3624 15C36.4913 14.6353 36.7299 14.3194 37.0455 14.0956C37.361 13.8718 37.738 13.7511 38.1249 13.75H44.9999V30H36.2499V28.125ZM52.4999 34.0875L52.0749 34.9375C51.9701 35.1455 51.8092 35.3202 51.6104 35.4416C51.4116 35.5631 51.1828 35.6266 50.9499 35.625H26.5499C26.3169 35.6266 26.0882 35.5631 25.8894 35.4416C25.6906 35.3202 25.5297 35.1455 25.4249 34.9375L24.9999 34.0875L24.8374 33.75H52.6749L52.4999 34.0875ZM54.9999 32.5H22.4999C22.3341 32.5 22.1752 32.4342 22.0579 32.3169C21.9407 32.1997 21.8749 32.0408 21.8749 31.875C21.8749 31.7092 21.9407 31.5503 22.0579 31.4331C22.1752 31.3158 22.3341 31.25 22.4999 31.25H24.9999H52.4999H54.9999C55.1656 31.25 55.3246 31.3158 55.4418 31.4331C55.559 31.5503 55.6249 31.7092 55.6249 31.875C55.6249 32.0408 55.559 32.1997 55.4418 32.3169C55.3246 32.4342 55.1656 32.5 54.9999 32.5ZM52.4999 15H46.2499V13.125C46.2368 12.9911 46.2691 12.8566 46.3417 12.7432C46.4142 12.6299 46.5228 12.5442 46.6499 12.5L51.9124 13.75H52.0499C52.2999 13.75 52.4999 14.0375 52.4999 14.375V15ZM52.4999 16.25V30H46.2499V16.25H52.4999ZM54.5499 30H53.7499V14.375C53.7685 13.9164 53.6124 13.4678 53.3131 13.1198C53.0138 12.7718 52.5936 12.5503 52.1374 12.5L46.8374 11.25H46.6999C46.3358 11.2592 45.9845 11.3858 45.6984 11.6111C45.4123 11.8364 45.2067 12.1482 45.1124 12.5H38.1249C37.4045 12.4999 36.7061 12.7486 36.1481 13.2042C35.59 13.6598 35.2065 14.2941 35.0624 15H26.8749C26.0461 15 25.2512 15.3292 24.6652 15.9153C24.0791 16.5013 23.7499 17.2962 23.7499 18.125V30H22.9624L20.6374 25.375C21.0292 24.9239 21.2465 24.3475 21.2499 23.75V12.5C21.2499 11.1739 21.7767 9.90215 22.7144 8.96447C23.652 8.02678 24.9238 7.5 26.2499 7.5H28.7499V8.125C28.7499 8.62228 28.9474 9.09919 29.2991 9.45083C29.6507 9.80246 30.1276 10 30.6249 10H34.9999C36.8508 10.179 38.6704 10.5993 40.4124 11.25C40.5682 11.3063 40.74 11.2984 40.89 11.2281C41.04 11.1578 41.156 11.0308 41.2124 10.875C41.2687 10.7192 41.2608 10.5474 41.1905 10.3974C41.1202 10.2474 40.9932 10.1314 40.8374 10.075C38.9599 9.37329 36.9964 8.92761 34.9999 8.75H34.8874C34.963 8.55035 35.0011 8.33848 34.9999 8.125V7.5H51.2499C52.576 7.5 53.8477 8.02678 54.7854 8.96447C55.7231 9.90215 56.2499 11.1739 56.2499 12.5V23.75C56.2622 24.3345 56.4789 24.8962 56.8624 25.3375L54.5499 30ZM59.9999 23.75C60.0187 23.8449 60.0187 23.9426 59.9999 24.0375C59.9279 24.3023 59.7708 24.5361 59.5528 24.7027C59.3348 24.8694 59.068 24.9597 58.7936 24.9597C58.5192 24.9597 58.2525 24.8694 58.0345 24.7027C57.8165 24.5361 57.6594 24.3023 57.5874 24.0375C57.5421 23.9473 57.5125 23.8501 57.4999 23.75V12.5C57.4999 10.8424 56.8414 9.25268 55.6693 8.08058C54.4972 6.90848 52.9075 6.25 51.2499 6.25H37.4999V3.75H51.2499C53.5705 3.75 55.7961 4.67187 57.4371 6.31282C59.078 7.95376 59.9999 10.1794 59.9999 12.5V23.75Z" fill="#0499C5" />
        <path d="M49.375 28.75C49.5408 28.75 49.6997 28.6842 49.8169 28.5669C49.9342 28.4497 50 28.2908 50 28.125V19.375C50 19.2092 49.9342 19.0503 49.8169 18.9331C49.6997 18.8158 49.5408 18.75 49.375 18.75C49.2092 18.75 49.0503 18.8158 48.9331 18.9331C48.8158 19.0503 48.75 19.2092 48.75 19.375V28.125C48.75 28.2908 48.8158 28.4497 48.9331 28.5669C49.0503 28.6842 49.2092 28.75 49.375 28.75Z" fill="#0499C5" />
    </g>
    <defs>
        <clipPath id="clip0">
            <rect width="80" height="80" fill="white" />
        </clipPath>
    </defs>
</svg>