<svg width="80" height="80" viewBox="0 0 80 80" xmlns="http://www.w3.org/2000/svg">
    <path d="M33.0797 55.6384C27.1139 55.6384 21.3924 53.2657 17.1739 49.0423C12.9554 44.8189 10.5855 39.0908 10.5855 33.1181C10.5885 31.6413 10.7348 30.1684 11.0222 28.72C11.6839 30.1792 12.5776 31.5214 13.6685 32.6942C15.0313 34.1009 16.6651 35.216 18.471 35.972C20.2769 36.728 22.2173 37.1091 24.1747 37.0922H29.613C30.5664 37.946 31.8006 38.418 33.0797 38.418C34.3588 38.418 35.5931 37.946 36.5465 37.0922H44.3268C45.7583 37.0922 47.1512 37.5571 48.2964 38.417C50.9387 37.0356 53.8237 36.1808 56.7913 35.9C56.8815 34.9756 56.9168 34.0466 56.8971 33.1181C56.8961 28.5839 55.6039 24.1441 53.1719 20.3191C50.74 16.4942 47.2692 13.4427 43.1665 11.5224C39.0639 9.60219 34.4994 8.89284 30.0083 9.47754C25.5173 10.0622 21.2858 11.9168 17.8101 14.8236C17.3338 15.2211 16.8839 15.645 16.4869 16.1484C16.2488 16.3736 16.0238 16.6253 15.7989 16.8637C15.5739 17.1022 15.3358 17.3539 15.124 17.6188C14.9123 17.8838 14.6477 18.1752 14.4228 18.4666C14.1978 18.7581 14.0787 18.917 13.9067 19.1555C13.7347 19.3939 13.4304 19.8046 13.2054 20.149C13.2092 20.1754 13.2092 20.2022 13.2054 20.2285C12.632 21.1202 12.1192 22.0497 11.6705 23.0104L11.5117 23.3416C11.3 23.8053 11.1148 24.2689 10.9295 24.7458C10.9295 24.865 10.8369 24.9975 10.784 25.13C10.612 25.6334 10.44 26.1235 10.2944 26.6402C9.65801 28.7425 9.31079 30.9219 9.26232 33.1181C9.26232 39.4422 11.7716 45.5072 16.2383 49.979C20.7049 54.4508 26.763 56.9631 33.0797 56.9631C33.9997 56.9597 34.9187 56.9022 35.832 56.7909C35.832 56.3405 35.951 55.89 36.0172 55.4661C35.0431 55.5903 34.0617 55.6478 33.0797 55.6384ZM33.0797 37.0922C32.2946 37.0922 31.5271 36.8592 30.8743 36.4225C30.2216 35.9858 29.7128 35.3651 29.4123 34.6389C29.1119 33.9127 29.0333 33.1137 29.1864 32.3427C29.3396 31.5718 29.7177 30.8637 30.2728 30.3079C30.828 29.7521 31.5353 29.3736 32.3053 29.2203C33.0753 29.0669 33.8735 29.1456 34.5988 29.4464C35.3242 29.7472 35.9441 30.2566 36.3803 30.9101C36.8165 31.5637 37.0493 32.3321 37.0493 33.1181C37.0493 34.1721 36.6311 35.1829 35.8866 35.9282C35.1422 36.6735 34.1325 37.0922 33.0797 37.0922ZM17.744 16.6783C20.9471 13.6897 24.9518 11.702 29.2669 10.959C33.5821 10.216 38.02 10.7499 42.0364 12.4954C46.0528 14.2408 49.4731 17.1218 51.8778 20.785C54.2825 24.4483 55.5671 28.7345 55.5739 33.1181C55.5739 33.5685 55.5739 33.9924 55.5739 34.4428C54.217 32.7874 52.5106 31.4536 50.5773 30.5374C48.644 29.6212 46.5319 29.1453 44.393 29.1439H36.5465C35.5931 28.2902 34.3588 27.8182 33.0797 27.8182C31.8006 27.8182 30.5664 28.2902 29.613 29.1439H24.1747C23.2885 29.1439 22.4114 28.9656 21.5954 28.6197C20.7794 28.2738 20.0412 27.7673 19.4244 27.1303C18.8047 26.4913 18.3201 25.7338 17.9995 24.903C17.6789 24.0722 17.529 23.1852 17.5587 22.2951L17.744 16.6783ZM34.4029 66.2361V64.3948L32.0212 63.5867L30.698 64.9114L29.1102 63.5867V60.6193L28.3692 60.5133L27.8531 62.0633L26.6358 65.8387L24.1217 65.0306L24.6907 63.2688L22.6662 61.7718L20.999 62.6196L19.8478 60.9372L20.7608 58.1156L20.0728 57.7844L19.1333 59.1091L16.8442 62.262L14.7006 60.6988L15.7856 59.2151L14.3301 57.1618L12.4909 57.4532L11.9749 55.4396L13.7082 52.9889L13.179 52.459L11.8558 53.4128L8.65366 55.7973L7.09229 53.6513L8.5875 52.5782L7.83328 50.1672L5.99405 49.8758L6.12636 47.8092L8.50811 46.0871C8.38902 45.8619 8.28316 45.6234 8.17731 45.3982L6.61594 45.9016L2.84486 47.1336L2.02448 44.6167L3.78432 44.047V41.5301L2.14357 40.669L2.91102 38.7481L5.71618 37.8341C5.71618 37.5956 5.65002 37.3439 5.61032 37.0922H0V34.4428H1.83923L2.64638 32.0583L1.32319 30.7336L2.64638 29.1439H5.61032C5.61032 28.8922 5.61032 28.6405 5.71618 28.4021L4.16805 27.8854L0.396957 26.6667L1.2041 24.1497L2.96394 24.7193L4.45915 22.6925L3.61231 21.0233L5.35892 19.8708L8.17731 20.7849C8.28316 20.5597 8.38902 20.3212 8.50811 20.096L7.18492 19.1555L3.96957 16.8637L5.53093 14.7177L7.0129 15.8039L9.06384 14.3467L8.77274 12.5054L10.784 11.9887L13.2319 13.7241L13.7612 13.1942L12.8085 11.8695L10.4267 8.66369L12.5703 7.10051L13.6421 8.59745L16.0503 7.84236L16.3414 6.00099L18.4056 6.13347L20.1257 8.51797L20.8138 8.18679L19.4906 4.10664L19.0804 2.84815L21.5944 2.02683L22.1634 3.78871H24.6775L25.5375 2.11956L27.4562 2.8879L28.3692 5.69631L29.1102 5.61682V0H31.7565V1.84136L34.1383 2.64945L35.4615 1.32472L37.0493 2.64945V5.61682L37.7903 5.7228L38.3725 4.17288L38.8885 2.56996L39.1796 1.6559L39.5898 0.331181L42.1039 1.13926L41.5349 2.90114L43.5594 4.39808L45.2266 3.55026L46.3116 5.36513L45.3986 8.18679L46.0867 8.51797L47.0261 7.19324L49.3153 3.97417L51.4588 5.53734L50.3738 7.02103L51.8293 9.07435L53.6685 8.78291L54.2507 10.8097L52.4512 13.2472L52.9805 13.7771L56.434 11.2734L57.5058 10.4918L59.0672 12.6379L57.5719 13.7109L58.3262 16.1219L60.1654 16.4133L60.0331 18.4799L57.6513 20.202C57.7704 20.4272 57.8763 20.6657 57.9821 20.8909L62.0576 19.5662L63.3807 19.1555L64.2011 21.6725L62.4413 22.2421V24.7591L64.1085 25.6201L63.3411 27.541L60.5359 28.455C60.5359 28.6935 60.5359 28.9452 60.6418 29.1969H66.1594V31.8463H64.3202L63.5131 34.1778L64.8363 35.5026L64.1085 36.3901C62.5639 36.0208 60.9854 35.8121 59.3979 35.7675H62.8912L63.05 35.5821L62.5736 35.1184L61.9914 34.5355L62.256 33.7539L62.9176 31.7933H62.1899V30.4686H59.3979L59.2392 29.3294C59.2392 29.0909 59.173 28.8525 59.1333 28.6273L58.9348 27.488L60.0331 27.1436L62.256 26.415L62.3354 26.1898L61.7532 25.8851L61.0122 25.5142V24.6928V22.6263L60.311 22.8515L59.914 21.593L58.3526 22.0964L57.2676 22.4541L56.7648 21.4208C56.7084 21.3232 56.6598 21.2213 56.6193 21.1161C56.6193 21.0101 56.5002 20.8909 56.4472 20.7717L55.9047 19.7516L56.8971 19.076L58.7628 17.7513V17.5128L58.1012 17.4201L57.2941 17.2876L57.0427 16.506L56.434 14.519L55.8386 14.9561L55.0579 13.8831L53.7347 14.8369L52.8085 15.5125L52.0146 14.6912L51.4985 14.1745L50.6781 13.3797L51.353 12.4524L52.6762 10.5713V10.3328L52.0146 10.4388L51.2074 10.5713L50.7311 9.89568L49.5402 8.21328L49.1035 8.79616L48.045 7.94834L47.1055 9.27306L46.4307 10.2136L45.4118 9.67048L45.0678 9.49826L44.7635 9.35254L43.7314 8.84915L44.0887 7.76288L44.8032 5.53734L44.6841 5.29889L44.0887 5.59033L43.3609 5.9745L42.6993 5.48435L41.0189 4.2921L40.7939 4.9942L39.4707 4.58354L38.9547 6.13347L38.6107 7.23299L37.4727 7.03428L36.7714 6.9283L35.7261 6.76933V3.27206L35.5409 3.1131L35.0777 3.59L34.4955 4.17288L33.7149 3.97417L31.7565 3.24557V3.97417H30.4333V6.76933L29.2954 6.9283L28.5941 7.03428L27.4562 7.23299L27.1121 6.13347L26.3844 3.97417L26.1594 3.89468L25.8551 4.47756L25.4846 5.21941H24.6642H22.6001L22.825 5.92151L21.568 6.31893L22.0708 7.8821L22.4281 8.96837L21.396 9.47177L21.0916 9.61749L20.7476 9.7897L19.7287 10.3328L19.0539 9.27306L17.7307 7.4052H17.4926L17.3999 8.06756L17.2676 8.87564L16.4869 9.12734L14.5022 9.73671L14.9388 10.3328L13.867 11.1144L14.8197 12.4391L15.4945 13.3665L14.6742 14.1613L14.1581 14.6779L13.3642 15.4993L12.438 14.8236L10.559 13.4989H10.3209L10.4267 14.1613L10.559 14.9694L9.88422 15.4463L8.20377 16.6385L8.78597 17.0757L7.93913 18.1355L9.26232 19.076L10.2018 19.7516L9.65928 20.7717L9.48726 21.1161C9.44677 21.2213 9.3981 21.3232 9.34171 21.4208L8.85213 22.5203L7.76712 22.1626L5.54416 21.4473L5.29276 21.5002L5.58386 22.0964L5.96758 22.825L5.478 23.4873L4.28713 25.1697L4.98842 25.3949L4.57823 26.7197L6.12636 27.2363L7.22461 27.5807L7.02613 28.72C7.02613 28.9452 6.94674 29.1836 6.92028 29.4221L6.7615 30.4686H3.26828L3.10949 30.6541L3.58584 31.1177L4.16805 31.7006L3.90341 32.4822L3.24181 34.4428H3.96957V35.7675H6.7615L6.92028 36.9068C6.92028 37.1452 6.92028 37.3837 7.02613 37.6089L7.22461 38.7481L6.12636 39.0926L3.96957 39.8212L3.89018 40.0464L4.47238 40.3511L5.21336 40.722V41.5433V43.6099L5.91465 43.3847L6.31161 44.7094L7.87297 44.206L8.95799 43.8483L9.4608 44.8816C9.51719 44.9792 9.56586 45.0811 9.60635 45.1863C9.60635 45.2923 9.72544 45.4115 9.77837 45.5307L10.3209 46.5508L9.26232 47.1601L7.39663 48.4848V48.7233L8.05822 48.816L8.86537 48.9485L9.11677 49.7301L9.72544 51.7172L10.3209 51.28L11.1016 52.353L12.4247 51.3992L13.351 50.7236L14.1449 51.545L14.6609 52.0616L15.4813 52.8564L14.8065 53.7837L13.4833 55.6648V55.9033L14.1449 55.7973L14.952 55.6648L15.4284 56.3405L16.6193 58.0229L17.0559 57.44L18.1277 58.2083L19.0672 56.8836L19.742 55.943L20.7608 56.4862L21.1049 56.6584L21.4092 56.8041L22.4413 57.3075L22.084 58.3938L21.3695 60.6193L21.4886 60.818L22.084 60.5266L22.8118 60.1424L23.4734 60.6326L25.1274 61.8778L25.3523 61.1757L26.6755 61.5864L27.1915 60.0364L27.5356 58.9369L28.6735 59.1356L29.3748 59.2416L30.5127 59.4006V62.8978L30.698 63.0568L31.1611 62.5799L31.7433 61.997L32.524 62.262L34.4823 62.9243V62.262H35.8055V59.4668C35.8342 61.7663 36.2089 64.0484 36.917 66.2361H34.4029ZM41.0189 54.0354H40.3573L39.6957 53.8235C39.7883 53.4393 39.8677 53.1214 39.9735 52.8167C39.7486 52.353 39.5237 51.8629 39.2987 51.3595L39.1929 51.0946L39.2987 50.8429C39.4178 50.5514 39.5501 50.2732 39.6824 49.995L40.172 48.9882L41.3629 49.5711C41.4583 49.3772 41.5689 49.1912 41.6937 49.0147L42.223 48.1537C42.1171 47.637 42.0377 47.1071 41.9583 46.5508V46.2858L42.1171 46.0739C42.3917 45.6794 42.697 45.3074 43.0301 44.9611L43.4668 44.5107L44.4459 45.3717L44.8561 44.9213L45.3457 45.3717L44.8958 44.8816L45.6236 44.2192C45.639 43.6687 45.692 43.1199 45.7823 42.5766V42.2984L46.3778 41.8612L47.0923 41.3313L47.648 40.9472L48.4023 42.0864L48.9448 41.7553C49.2301 41.5625 49.531 41.3941 49.8445 41.2519C50.0165 40.7352 50.2018 40.2186 50.4135 39.7019L50.5194 39.4502L52.6894 38.6554L53.126 39.9801L53.6421 39.8344L54.039 41.0267L53.7612 39.7417L54.1978 39.6357L54.7403 39.49C55.0314 39.0661 55.349 38.6289 55.6798 38.1653L55.8386 37.9666H56.09C56.5609 37.8742 57.0392 37.8254 57.519 37.8208H58.1674L58.2468 39.1456H58.8422V39.8079V39.1456H59.8081C60.2294 38.7682 60.6711 38.4144 61.1313 38.0858L61.3563 37.9268L63.6322 38.2712L63.3543 39.596H63.5263L63.963 39.7019L63.8042 40.3511L63.6454 40.9869L63.1955 40.8677L62.4545 40.6955L61.8062 40.563L62.0576 39.2383H61.6871C61.2898 39.5436 60.9099 39.8708 60.5491 40.2186L60.3506 40.4173L58.8819 40.404L57.003 40.4968L56.9236 39.172C56.8093 39.1583 56.6938 39.1583 56.5796 39.172C56.262 39.596 55.9709 40.0066 55.693 40.4968L55.5342 40.722H55.2696L54.5286 40.8942L54.0787 41.0134H53.9729C53.6362 41.0948 53.3048 41.1966 52.9805 41.3181L52.3189 41.5963L51.8822 40.2716L51.5382 40.3908C51.3397 40.8809 51.1809 41.3711 51.0354 41.8347L50.9428 42.1129L50.6781 42.2322C50.3251 42.3868 49.9845 42.5684 49.6593 42.7753L49.302 42.3911L49.646 42.9608L48.0318 43.941L47.3172 42.8813L47.1849 42.9873L47.0261 43.1065C46.9481 43.6017 46.9083 44.1021 46.907 44.6034V44.8816L45.7823 45.9016L44.4591 47.2264L43.5329 46.3653C43.5329 46.458 43.3874 46.5508 43.3212 46.6567C43.3212 47.1601 43.4668 47.6635 43.5726 48.1537V48.4054L42.7787 49.7301L42.342 49.3592L42.8978 49.7168C42.6911 50.0424 42.5097 50.3834 42.3553 50.7369L42.0642 51.3595L40.8733 50.7634C40.8169 50.8701 40.7682 50.9808 40.7278 51.0946C40.9395 51.5715 41.1512 52.0351 41.3761 52.4193L41.5217 52.6842L41.4026 52.9624C41.2517 53.3114 41.1235 53.6698 41.0189 54.0354ZM52.9276 76.5557L52.6365 76.4365L52.3718 76.5822C51.9219 76.8074 51.4588 77.0194 51.0486 77.2313L50.7178 77.0856L51.3133 75.8934L50.6781 75.5092C50.3251 75.3546 49.9845 75.173 49.6593 74.9661L49.302 75.5224L49.646 74.9528L48.3229 74.158H48.0715C47.5819 74.264 47.0791 74.3434 46.5763 74.4097L46.3116 74.3169L47.1849 73.3234L45.8617 71.9987L44.8429 70.8727H44.565C44.0643 70.8714 43.5644 70.8316 43.0698 70.7534L42.9507 70.5945L42.8449 70.462L43.9034 69.7467L42.9242 68.1305L42.3553 68.4749L42.911 68.1172C42.6981 67.8138 42.508 67.495 42.342 67.1634L42.223 66.8985L41.9451 66.8058C41.482 66.66 40.9924 66.5011 40.5028 66.3024L40.3837 65.9579L41.7069 65.5208L41.4423 64.8717C41.3209 64.5424 41.2193 64.2062 41.1379 63.8649V63.7589L41.0189 63.3085C41.0189 63.0568 40.8998 62.8183 40.8468 62.5667V62.3017L40.6219 62.1427C40.1985 61.8645 39.7883 61.5731 39.2987 61.2552C39.285 61.1408 39.285 61.0251 39.2987 60.9107L40.6219 60.8313L40.3573 58.9502L40.4367 57.44L40.2382 57.2413C39.8908 56.8801 39.5639 56.4997 39.259 56.102V55.7311L40.5822 55.9828L40.7145 55.3337C40.7145 55.082 40.8336 54.8435 40.8865 54.5918L41.0056 54.1414L40.3705 53.9824L39.6957 53.8235L39.5898 54.2606C39.5938 54.318 39.5938 54.3755 39.5898 54.4329L38.2666 54.1547L37.9226 56.4332L38.0814 56.6584C38.4096 57.1192 38.763 57.5614 39.1399 57.9831V58.9502H39.8015H39.1399V59.5463L37.8167 59.6258V60.2749C37.8213 60.7552 37.87 61.2342 37.9623 61.7056V61.9573L38.1608 62.1162L39.484 63.0568C39.484 63.2423 39.5766 63.4277 39.6295 63.5999L39.7354 64.0371L40.9527 63.7324L39.7618 64.1563C39.7618 64.3153 39.8545 64.4875 39.9074 64.6597L38.5842 65.0969L39.3781 67.2694L39.6295 67.3754C40.1456 67.5873 40.6616 67.7728 41.1776 67.945C41.3197 68.2589 41.4879 68.5602 41.6805 68.8458L42.0112 69.389L40.8733 70.1441L41.257 70.7004L41.7863 71.4158L42.223 72.0119H42.5008C43.0435 72.1023 43.5917 72.1554 44.1416 72.1709L44.8032 72.8995L45.2928 72.4491L44.8429 72.9392L45.2928 73.3499L44.4327 74.3302L44.8826 74.7673C45.2284 75.1009 45.6001 75.4065 45.994 75.6814L46.2058 75.8404H46.4704C47.0261 75.7609 47.5554 75.6814 48.0715 75.5754L48.9315 76.1053C49.1077 76.2302 49.2936 76.341 49.4873 76.4365L48.9051 77.6287L49.9107 78.1189L50.7575 78.5031L51.0089 78.609L51.2736 78.5031L52.7291 77.8275C53.0334 77.9334 53.3642 78.0129 53.7347 78.1056L53.8935 77.4565V76.7942C53.5664 76.7204 53.2438 76.6275 52.9276 76.516V76.5557ZM76.4274 64.9114L76.3083 65.1896L76.4538 65.4545C76.6788 65.905 76.8905 66.3686 77.1022 66.7793C77.0617 66.893 77.0131 67.0037 76.9567 67.1105L75.7658 66.5143L75.4218 67.1634C75.2673 67.5169 75.0859 67.8579 74.8793 68.1835L75.435 68.5412L74.866 68.1967L74.0721 69.5214V69.7731C74.178 70.2633 74.2574 70.7667 74.3235 71.2701C74.3235 71.3761 74.178 71.4688 74.1118 71.5615L73.1194 70.6872L71.7962 72.0119L70.6715 73.032V73.3102C70.6703 73.8115 70.6305 74.3119 70.5524 74.8071L70.3937 74.9263L70.2613 75.0323L69.5468 73.9725L67.9325 74.9528L68.2765 75.5224L67.9193 74.9661C67.5941 75.173 67.2535 75.3546 66.9004 75.5092L66.6358 75.6284L66.5432 75.9066C66.3976 76.3703 66.2388 76.8604 66.0404 77.3506L65.6963 77.4698L65.2597 76.1451L64.5981 76.4232C64.2737 76.5448 63.9423 76.6465 63.6057 76.7279H63.4998L63.05 76.8472L62.309 77.0194H62.0443L61.8855 77.2446C61.6077 77.6685 61.3166 78.0792 60.999 78.5693C60.8847 78.583 60.7692 78.583 60.655 78.5693L60.5756 77.2446L58.6967 77.3373L57.1882 77.2578L56.9897 77.4565C56.629 77.8043 56.2491 78.1315 55.8518 78.4368H55.4813L55.7327 77.1121L55.0844 76.9796L54.3434 76.8074L54.0787 76.8339L53.9199 77.4698L53.7612 78.1189L54.1978 78.2249H54.3698L54.092 79.5496L56.3678 79.894L56.5928 79.7351C57.053 79.4065 57.4948 79.0527 57.916 78.6753H58.8819V78.0129V78.6753H59.4773L59.5567 80H60.2051C60.6849 79.9954 61.1633 79.9466 61.6341 79.8543H61.8855L62.0443 79.6556C62.3751 79.2052 62.6927 78.768 62.9838 78.3308L63.5263 78.1851L63.963 78.0791L63.6718 76.8604L64.0688 78.0527L64.5849 77.9069L65.0215 79.2317L67.1915 78.4368L67.2974 78.1851C67.5091 77.6685 67.6943 77.1518 67.8664 76.6352C68.1798 76.493 68.4808 76.3246 68.7661 76.1318L69.3086 75.8006L70.0629 76.9399L70.6186 76.5557L71.3331 76.0258L71.9286 75.5887V75.3105C72.0189 74.7672 72.0719 74.2184 72.0873 73.6678L72.8151 73.0055L72.3652 72.5153L72.8548 72.9657L73.265 72.5153L74.2441 73.3764L74.6808 72.926C75.0139 72.5797 75.3192 72.2076 75.5938 71.8132L75.7526 71.6013V71.3363C75.6732 70.7799 75.5938 70.25 75.4879 69.7334L76.0172 68.8723C76.142 68.6959 76.2526 68.5099 76.348 68.3159L77.5389 68.8988L78.0285 67.892C78.1608 67.6138 78.2931 67.3357 78.4122 67.0442L78.518 66.7925L78.4122 66.5276C78.1872 66.0242 77.9623 65.534 77.7374 65.0704C77.8432 64.7657 77.9226 64.4478 78.0152 64.0636L77.3669 63.9046H76.7053C76.6326 64.2454 76.5398 64.5816 76.4274 64.9114ZM78.6768 59.9967V59.0296H78.0152H78.6768V58.4335L80 58.354V57.7049C79.9954 57.2246 79.9467 56.7456 79.8544 56.2742V56.0225L79.656 55.8636L78.3328 54.923C78.3328 54.7375 78.2402 54.5521 78.1872 54.3799L78.0681 53.8235L76.8508 54.1282L78.0417 53.7043C78.0417 53.5453 77.9491 53.3731 77.8961 53.2009L79.2193 52.7637L78.4254 50.5912L78.0681 50.4852C77.5521 50.2732 77.0361 50.0878 76.52 49.9156C76.3779 49.6017 76.2097 49.3004 76.0172 49.0147L75.6864 48.4716L76.8243 47.7165L76.4406 47.1601L75.9113 46.4448L75.4747 45.8487H75.1968C74.6542 45.7582 74.106 45.7051 73.5561 45.6897L72.8945 44.9611L72.4049 45.4115L72.8548 44.9213L72.4049 44.5107L73.265 43.5304L72.8151 43.0932C72.4692 42.7597 72.0976 42.4541 71.7036 42.1792L71.4919 42.0202H71.2273C70.6715 42.0997 70.1422 42.1792 69.6262 42.2851L68.7661 41.7553C68.5899 41.6303 68.4041 41.5196 68.2104 41.4241L68.7926 40.2318L67.8267 39.7417L66.9798 39.3575L66.7284 39.2515L66.4638 39.3575L65.0083 40.0331C64.7039 39.9271 64.3731 39.8477 64.0026 39.7549L63.8439 40.404V41.0664C64.1805 41.1478 64.5119 41.2496 64.8363 41.3711L65.1274 41.4903L65.392 41.3446C65.8419 41.1194 66.305 40.9074 66.7152 40.6955L67.046 40.8412L66.4505 42.0334L67.0724 42.3249C67.4255 42.4795 67.7661 42.6611 68.0913 42.868L68.4486 42.3116L68.1045 42.8813L69.4277 43.6761H69.6791C70.1687 43.5701 70.6715 43.4906 71.1743 43.4244L71.4654 43.6364L70.5921 44.6299L71.9153 45.9546L72.9342 47.0806H73.212C73.7128 47.0819 74.2126 47.1218 74.7072 47.1999L74.8263 47.3588L74.9322 47.4913L73.8736 48.2067L74.8528 49.8228L75.4218 49.4784L74.866 49.8361C75.0727 50.1617 75.2541 50.5027 75.4085 50.8561L75.5276 51.121L75.8055 51.2138C76.2686 51.3595 76.7582 51.5185 77.2478 51.7172L77.3669 52.0616L76.0437 52.4988L76.3083 53.1479C76.4297 53.4771 76.5313 53.8133 76.6126 54.1547V54.2606L76.7317 54.711C76.7317 54.9627 76.8508 55.2012 76.9037 55.4529V55.7178L77.1287 55.8768C77.5521 56.155 77.9623 56.4464 78.4519 56.7644C78.4656 56.8788 78.4656 56.9944 78.4519 57.1088L77.1287 57.1883L77.2213 59.0694L77.1419 60.5796L77.3404 60.7783C77.6877 61.1395 78.0146 61.5198 78.3195 61.9175V62.2885L76.9964 62.0368L76.864 62.6859C76.864 62.9376 76.745 63.176 76.692 63.4277L76.5729 63.8781L77.2081 64.0371L77.8564 64.1961L77.9623 63.7589C77.9583 63.7016 77.9583 63.644 77.9623 63.5867L79.2855 63.8649L79.6295 61.5864L79.4707 61.3612C79.2309 60.8795 78.9659 60.4108 78.6768 59.9569V59.9967ZM75.8981 61.3214C75.8981 61.5466 75.8981 61.7718 75.7923 61.997C75.7377 62.3499 75.6626 62.6994 75.5673 63.0436L75.4879 63.3482C74.4025 67.3711 71.897 70.8635 68.4358 73.178C64.9746 75.4925 60.7926 76.4721 56.6651 75.9351C52.5376 75.3982 48.7445 73.3811 45.9891 70.2579C43.2337 67.1347 41.7029 63.1171 41.6805 58.9502C41.6805 58.4203 41.7069 57.8904 41.7598 57.3605C41.7598 57.0955 41.7598 56.8306 41.8657 56.5657C41.9715 56.3007 41.8657 56.1152 41.9716 55.89C42.0261 55.5371 42.1012 55.1877 42.1965 54.8435L42.2759 54.5388C43.3616 50.5149 45.8683 47.0218 49.3308 44.7074C52.7933 42.393 56.9768 41.4144 61.1052 41.953C65.2336 42.4917 69.0268 44.5112 71.7811 47.6368C74.5355 50.7624 76.0641 54.7821 76.0834 58.9502C76.0834 59.48 76.0569 60.0099 76.004 60.5398C75.9775 60.8048 75.9378 61.0697 75.8981 61.3347V61.3214ZM43.6652 54.4064C45.0975 55.6371 46.925 56.3096 48.8124 56.3007H56.8971C57.4671 55.8646 58.1645 55.6282 58.8819 55.6282C59.5993 55.6282 60.2967 55.8646 60.8667 56.3007H68.9646C70.9547 56.298 72.919 56.7512 74.7072 57.6254C74.4007 53.9325 72.8151 50.4627 70.2246 47.8159C67.634 45.1691 64.2012 43.5116 60.5194 43.1298C56.8377 42.748 53.1385 43.6659 50.061 45.7249C46.9835 47.784 44.7213 50.8547 43.6652 54.4064ZM58.8819 56.9631C58.4894 56.9631 58.1056 57.0796 57.7792 57.298C57.4528 57.5163 57.1984 57.8266 57.0482 58.1897C56.898 58.5528 56.8587 58.9524 56.9353 59.3378C57.0118 59.7233 57.2009 60.0773 57.4785 60.3552C57.756 60.6331 58.1097 60.8224 58.4947 60.8991C58.8797 60.9757 59.2788 60.9364 59.6414 60.786C60.0041 60.6356 60.3141 60.3809 60.5322 60.0541C60.7503 59.7273 60.8667 59.3432 60.8667 58.9502C60.8667 58.4231 60.6576 57.9177 60.2854 57.5451C59.9131 57.1724 59.4083 56.9631 58.8819 56.9631ZM74.0986 63.5072C72.6674 62.2819 70.8477 61.6058 68.9646 61.5996H60.8667C60.2967 62.0358 59.5993 62.2721 58.8819 62.2721C58.1645 62.2721 57.4671 62.0358 56.8971 61.5996H48.8124C46.8225 61.6014 44.8584 61.1483 43.0698 60.2749C43.3815 63.962 44.9682 67.4247 47.5564 70.0662C50.1446 72.7077 53.5721 74.3626 57.2482 74.7455C60.9243 75.1285 64.6187 74.2155 67.6947 72.164C70.7706 70.1125 73.0354 67.051 74.0986 63.5072Z" fill="#0499C5" />
</svg>