<svg width="80" height="80" viewBox="0 0 80 80" xmlns="http://www.w3.org/2000/svg">
    <g clip-path="url(#clip0)">
        <path d="M23.75 76.875V78.75H16.25V75.775C16.2542 72.819 15.158 69.9672 13.175 67.775L12.6 67.1375C12.5316 67.048 12.4962 66.9376 12.5 66.825V62.5H22.5V59.6L21.25 59.1875V61.25H14.3L21.4625 54.0875C21.4625 53.1125 21.5375 52.1125 21.5875 51.0875L20 50.55V53.75L17.3625 56.375L15 55.625V58.75L12.5 61.25H11.6375L11.1125 61.075L10.6375 60.575C10.6375 58.875 10.75 57.2125 10.825 55.575L21.9875 44.4125C22.075 43.1625 22.1625 41.9125 22.275 40.725L21.25 40.4V43.4L18.4375 46.25L16.25 45.475V48.4L13.3875 51.25L11.25 50.55V53.4L10.925 53.75C11.075 50.9625 11.275 48.3 11.5 45.7875L22.9625 34.3375L23.225 32.3L20.5875 34.9375L18.75 34.3V36.8L15.5375 40L13.75 39.375V41.75L11.7 43.8125C12 40.8625 12.35 38.1292 12.75 35.6125L13.05 35.3125H12.875L15 33.1875V33.3375L18.05 30.2875H17.9375L20 28.1375V28.2125L23.05 25.1625H22.9875L24.775 23.375C25.025 22.125 25.3125 20.9375 25.625 19.775C24.1875 16.5 22.5 14.5625 20.5625 14.5625C13.75 14.5375 10 38.525 9.375 60.8125V61.075L10.75 62.5H11.25V66.825C11.2437 67.2479 11.3952 67.6579 11.675 67.975L12.25 68.6125C14.0216 70.5774 15.0014 73.1294 15 75.775V80H25V76.875C24.9995 74.926 25.5358 73.0144 26.55 71.35C26.3505 70.9128 26.112 70.4945 25.8375 70.1C24.4788 72.0983 23.7515 74.4586 23.75 76.875ZM20.5625 15.7875C20.7996 15.7894 21.0337 15.8405 21.25 15.9375L18.4375 18.75L17.5 18.475C18.5375 16.7125 19.5625 15.7875 20.5625 15.7875ZM15.425 23.5625L22.3 16.6875C23.4991 18.0717 24.4162 19.6767 25 21.4125L21.7125 24.7L20 24.15V26.3625L16.6 29.7625L15 29.225V31.3625L13.15 33.2125C13.7024 29.9508 14.4623 26.7276 15.425 23.5625Z" fill="#0499C5" />
        <path d="M66.7498 60.8125C66.1498 38.525 62.3873 14.5625 55.5623 14.5625C53.6623 14.5625 51.9998 16.425 50.5623 19.5625C50.8373 20.5625 51.0873 21.5875 51.3123 22.65L57.2873 16.675C58.4922 18.0618 59.4138 19.6713 59.9998 21.4125L56.7123 24.7L54.9998 24.15V26.3625L52.4998 28.8625C52.5873 29.425 52.6748 29.975 52.7498 30.5375L53.0373 30.25H52.9248L54.9998 28.1375V28.2125L58.0498 25.1625L60.5498 22.7375C61.0998 24.3875 61.6373 26.3125 62.1498 28.5125L60.7748 29.875L58.7498 29.225V31.725L55.5873 34.8875L53.7498 34.3V36.8L53.5873 36.9625C53.6498 37.5 53.6998 38.025 53.7623 38.5625L62.3373 30C62.7373 31.8625 63.1123 33.9 63.4498 36.1125L61.2498 35.3125V38.4L58.4998 41.15L56.2498 40.4V43.4L54.3248 45.3125C54.3248 45.875 54.4123 46.425 54.4373 46.975L63.7498 37.7125C64.0498 39.775 64.3123 41.975 64.5498 44.3L62.8623 45.9875L61.2498 45.475V47.5L57.4248 51.325L54.9998 50.55V53.75L54.7873 53.9625C54.7873 54.5375 54.7873 55.1125 54.7873 55.675L61.2498 49.3V49.5375L64.2998 46.4875H64.1248L64.6373 45.975C64.854 48.3 65.0373 50.7458 65.1873 53.3125L63.5623 54.9375L61.2498 54.1V57.1875L58.4998 60L56.2498 59.25V61.25H53.7498V62.5H63.7498V66.9375C63.7518 66.9978 63.7392 67.0577 63.7131 67.1121C63.687 67.1665 63.6481 67.2138 63.5998 67.25L63.4998 67.325C62.0268 68.4442 60.8319 69.8882 60.008 71.5445C59.1842 73.2009 58.7536 75.025 58.7498 76.875V78.75H51.2498V75.775C51.2523 73.8608 50.7935 71.9742 49.9123 70.275C49.5936 70.625 49.305 71.0013 49.0498 71.4C49.6769 72.7732 50.0009 74.2654 49.9998 75.775V80H59.9998V76.875C59.9993 75.217 60.3841 73.5816 61.1238 72.0979C61.8636 70.6141 62.938 69.3225 64.2623 68.325L64.3623 68.25C64.5607 68.0935 64.7211 67.8941 64.8315 67.6668C64.9419 67.4395 64.9994 67.1902 64.9998 66.9375V62.5H65.3748L66.7623 61.075L66.7498 60.8125ZM56.2498 15.975L53.4373 18.75L52.4998 18.475C53.5123 16.7125 54.5373 15.7875 55.5373 15.7875C55.7744 15.7894 56.0085 15.8404 56.2248 15.9375L56.2498 15.975ZM64.8498 61.25H58.9498L65.2748 54.925C65.3623 56.7625 65.4373 58.675 65.4998 60.575L64.8498 61.25Z" fill="#0499C5" />
        <path d="M50 64.325V58.75H50.1375L51.7625 57.075V56.8125C51.7625 56.6125 51.7625 56.4 51.7625 56.2C51.7625 54.1 51.625 52.0125 51.5125 49.95C51.5125 48.6 51.375 47.25 51.2875 45.9125C51.2 44.575 51.075 42.8875 50.95 41.3875C50.95 40.85 50.8625 40.3 50.8125 39.7625C50.6125 37.5375 50.3875 35.35 50.1375 33.2125C50.1375 32.6375 50 32.0625 49.925 31.5C49.7625 30.1375 49.575 28.7875 49.3875 27.475C49.2375 26.425 49.075 25.4 48.9125 24.4C47.6625 16.575 45.9125 9.975 43.9125 5.65C42.15 2.05 40.25 0 38.125 0C36 0 34.1 2.05 32.425 5.6C30.35 9.9875 28.675 16.675 27.3375 24.6125C27.175 25.6375 27.0125 26.6875 26.8625 27.7625C26.8625 28.1 26.75 28.45 26.7 28.8L26.4375 30.8375C26.0875 33.5125 25.7875 36.2875 25.5375 39.1125C25.475 39.75 25.4125 40.3625 25.3625 41.0375C25.1375 43.6375 24.9625 46.2875 24.825 48.9625C24.825 49.5875 24.75 50.2125 24.725 50.825C24.625 52.8125 24.55 54.8125 24.5 56.8125V57.075L25.425 58.025L26.125 58.75H26.25V64.2C26.2496 64.4559 26.3003 64.7093 26.399 64.9454C26.4978 65.1815 26.6426 65.3955 26.825 65.575L27.3875 66.1375C27.77 66.5328 28.1289 66.9502 28.4625 67.3875C28.7225 67.7202 28.9645 68.0665 29.1875 68.425C30.5278 70.5281 31.2431 72.9686 31.25 75.4625V80H43.75V76.575C43.7478 73.4863 44.8318 70.4951 46.8125 68.125C47.0762 67.8031 47.3601 67.4983 47.6625 67.2125C48.1399 66.7355 48.654 66.2966 49.2 65.9C49.4472 65.7183 49.6483 65.4811 49.7872 65.2076C49.9262 64.9341 49.999 64.6318 50 64.325ZM50.175 48.825V49.4375L50.25 51.1125C50.325 52.6375 50.3875 54.1875 50.4375 55.7875C50.4375 56.05 50.4375 56.3125 50.4375 56.5875L49.9375 57.1L49.55 57.5H41.5125L44.6375 54.375L45.9625 53.0375L46.25 52.75L47.9 51.1L50.175 48.825ZM49.3625 37.7625C49.3625 38.375 49.475 39.0125 49.5375 39.6375C49.625 40.575 49.7 41.525 49.775 42.4875C49.8875 44 50 45.5625 50.0875 47.15L48.2375 49L46.25 48.35L45.5875 48.125V51.6125L44.7125 52.4875L41.9875 55.25L39.375 54.375V57.5H29.6375L30.3625 56.775L31.55 55.525L45.725 41.4L47.1375 40L49.3625 37.7625ZM34.725 3.9375C35.85 2.1625 37.0125 1.25 38.125 1.25C38.4048 1.25395 38.6809 1.31344 38.9375 1.425L37.175 3.1875L35.7375 4.625L34.4875 4.225L34.725 3.9375ZM33.125 7.0375V7.2375L32.975 7.3875L33.125 7.0375ZM31.9375 10.2L38.9625 3.175L40 2.1125C40.581 2.64948 41.0857 3.26352 41.5 3.9375C42.1254 4.92473 42.6689 5.96153 43.125 7.0375V8.4875L39.4875 12.125L36.875 11.25V14.7375L33.2375 18.375L30.625 17.5V20.9875L28.9 22.725C29.6076 18.4819 30.6228 14.2959 31.9375 10.2ZM27.1 35.6C27.25 34.0875 27.425 32.625 27.6125 31.2125C27.8 29.8 27.925 28.7125 28.1 27.6C28.2375 26.6625 28.375 25.7375 28.525 24.85L44.025 9.3625C44.8642 11.7791 45.5653 14.2414 46.125 16.7375L44.4875 18.375L41.875 17.5V20.9875L38.2375 24.625L35.625 23.75V27.2375L31.9875 30.875L29.375 30V33.4875L28.225 34.6375L27.225 35.6375L27.075 35.7875C27.0875 35.725 27.0875 35.6625 27.1 35.6ZM26.1375 47.65C26.1375 47.0125 26.2125 46.4 26.25 45.75C26.25 45.6625 26.25 45.5625 26.25 45.475C26.3875 43.4875 26.525 41.55 26.7 39.6875C26.7 39.0375 26.8125 38.4375 26.875 37.75L29.5375 35.0875L46.4625 18.175C46.9625 20.4875 47.4375 23.0125 47.8625 25.75L45.625 25V28.4875L41.9875 32.125L39.375 31.25V34.7375L35.7375 38.375L33.125 37.5V40.9875L30.625 43.4875L29.475 44.6375L29.2375 44.55L26.875 43.75V47.2375L26.1125 48C26.125 47.8875 26.125 47.7625 26.1375 47.65ZM26.25 56.4625L25.7625 56.25C25.825 54.05 25.9125 51.9 26.0125 49.8125L29.6625 46.25L30.8 45.1125L47.9625 27.9125L48.1625 27.7125C48.3125 28.7375 48.4625 29.8 48.6 30.875C48.675 31.425 48.7375 31.9875 48.8 32.5625C48.8625 33.1375 48.9375 33.6 49 34.1375C49.0625 34.675 49.1375 35.475 49.2125 36.1625L47.4 37.9625L46.9875 38.375L46.15 38.1L44.375 37.5V40.9875L40.7375 44.625L38.125 43.75V47.2375L34.4875 50.875L31.875 50V53.4875L31.4625 53.9L30.2875 55.075L28.2375 57.125H28.1125L26.25 56.4625ZM48.75 64.325C48.7467 64.4342 48.7192 64.5413 48.6695 64.6386C48.6198 64.7359 48.5491 64.8209 48.4625 64.8875C48.1278 65.1282 47.8065 65.3869 47.5 65.6625C47.0548 66.0496 46.6371 66.4673 46.25 66.9125C43.8384 69.5677 42.5016 73.0256 42.5 76.6125V78.75H32.5V75.4625C32.5207 72.5423 31.6484 69.6855 30 67.275C29.6226 66.7357 29.2047 66.2259 28.75 65.75C28.6 65.575 28.4375 65.4125 28.275 65.25L27.7 64.6875C27.5756 64.5552 27.5044 64.3816 27.5 64.2V58.75H48.75V64.325Z" fill="#0499C5" />
    </g>
    <defs>
        <clipPath id="clip0">
            <rect width="80" height="80" fill="white" />
        </clipPath>
    </defs>
</svg>