<svg width="80" height="80" viewBox="0 0 80 80" xmlns="http://www.w3.org/2000/svg">
    <path d="M3.125 60.625H46.25" stroke="#0499C5" stroke-miterlimit="10" stroke-linecap="round" />
    <path d="M3.125 53.125H5.625C5.95652 53.125 6.27446 53.2567 6.50888 53.4911C6.7433 53.7255 6.875 54.0435 6.875 54.375V69.375" stroke="#0499C5" stroke-miterlimit="10" stroke-linecap="round" />
    <path d="M42.4998 62.5C56.3138 62.5 67.5123 51.3071 67.5123 37.5C67.5123 23.6929 56.3138 12.5 42.4998 12.5C28.6858 12.5 17.4873 23.6929 17.4873 37.5C17.4873 51.3071 28.6858 62.5 42.4998 62.5Z" fill="white" />
    <path d="M42.4998 62.5C56.3138 62.5 67.5123 51.3071 67.5123 37.5C67.5123 23.6929 56.3138 12.5 42.4998 12.5C28.6858 12.5 17.4873 23.6929 17.4873 37.5C17.4873 51.3071 28.6858 62.5 42.4998 62.5Z" stroke="#0499C5" stroke-miterlimit="10" />
    <path d="M42.4998 62.5C56.3138 62.5 67.5123 51.3071 67.5123 37.5C67.5123 23.6929 56.3138 12.5 42.4998 12.5C28.6858 12.5 17.4873 23.6929 17.4873 37.5C17.4873 51.3071 28.6858 62.5 42.4998 62.5Z" stroke="#0499C5" stroke-width="2" stroke-miterlimit="10" stroke-dasharray="2.03 2.03" />
    <path d="M0.624827 53.75V52.5C0.624629 52.2958 0.67447 52.0946 0.76999 51.9141C0.86551 51.7336 1.0038 51.5793 1.17277 51.4646C1.34173 51.3499 1.53623 51.2783 1.73924 51.2562C1.94225 51.234 2.1476 51.2619 2.33733 51.3375L3.97483 51.9875C4.20798 52.0796 4.40804 52.2398 4.54902 52.4471C4.68999 52.6544 4.76538 52.8993 4.76538 53.15C4.76538 53.4007 4.68999 53.6456 4.54902 53.8529C4.40804 54.0602 4.20798 54.2203 3.97483 54.3125L2.33733 55C2.14056 55.079 1.92693 55.1066 1.71653 55.0803C1.50613 55.054 1.30588 54.9747 1.13462 54.8496C0.963351 54.7246 0.826701 54.5581 0.737521 54.3657C0.64834 54.1734 0.609559 53.9615 0.624827 53.75Z" fill="white" stroke="#0499C5" stroke-miterlimit="10" />
    <path d="M21.4125 50.8749C18.7395 46.6702 17.3838 41.7626 17.5195 36.782C17.6552 31.8014 19.2761 26.9749 22.174 22.922C25.072 18.869 29.115 15.7744 33.784 14.0353C38.4531 12.2962 43.5354 11.9919 48.3786 13.1614C53.2219 14.331 57.6052 16.921 60.9661 20.5992C64.327 24.2775 66.5121 28.876 67.2412 33.8049C67.9702 38.7337 67.2099 43.7679 65.0577 48.2616C62.9055 52.7553 59.4597 56.5034 55.1625 59.0249" stroke="#0499C5" stroke-width="4" stroke-miterlimit="10" />
    <path d="M69.4751 35.15C72.7497 38.4309 74.5889 42.877 74.5889 47.5125C74.5889 52.148 72.7497 56.5941 69.4751 59.875" stroke="#0499C5" stroke-width="4" stroke-miterlimit="10" />
    <path d="M42.5001 37.5L13.4126 33.4125C14.0617 28.8011 15.7978 24.41 18.4778 20.6016C21.1579 16.7931 24.705 13.6764 28.8265 11.5086C32.9481 9.34074 37.526 8.18389 42.1827 8.13344C46.8393 8.08299 51.4412 9.1404 55.6088 11.2184C59.7763 13.2965 63.3901 16.3356 66.152 20.0851C68.9139 23.8346 70.7448 28.187 71.4936 32.7833C72.2425 37.3796 71.8878 42.0881 70.4588 46.5204C69.0298 50.9526 66.5676 54.9816 63.2751 58.275L42.5001 37.5Z" fill="white" stroke="#0499C5" stroke-miterlimit="10" />
    <path d="M42.5 43.125C45.6066 43.125 48.125 40.6066 48.125 37.5C48.125 34.3934 45.6066 31.875 42.5 31.875C39.3934 31.875 36.875 34.3934 36.875 37.5C36.875 40.6066 39.3934 43.125 42.5 43.125Z" fill="white" stroke="#0499C5" stroke-miterlimit="10" />
    <path d="M78.125 70H73.125V72.5H78.125V70Z" fill="#0499C5" />
    <path d="M73.1248 56.875H61.8748V69.375H14.3748V57.0125C14.3897 56.4044 14.1899 55.8104 13.8105 55.3349C13.431 54.8594 12.8961 54.5328 12.2998 54.4125C11.9378 54.35 11.5664 54.3681 11.2122 54.4654C10.8579 54.5628 10.5295 54.737 10.2502 54.9757C9.97094 55.2144 9.74771 55.5117 9.5964 55.8464C9.44509 56.1812 9.36942 56.5452 9.37478 56.9125V75.6625C9.37478 75.9941 9.50647 76.312 9.74089 76.5464C9.97531 76.7808 10.2933 76.9125 10.6248 76.9125H74.2123C74.3899 76.9138 74.5657 76.8773 74.728 76.8053C74.8903 76.7333 75.0355 76.6276 75.1537 76.4951C75.272 76.3626 75.3607 76.2065 75.4139 76.0371C75.4671 75.8676 75.4836 75.6888 75.4623 75.5125L73.1248 56.875Z" fill="white" stroke="#0499C5" stroke-miterlimit="10" />
    <path d="M69.375 61.875C70.0654 61.875 70.625 61.3154 70.625 60.625C70.625 59.9346 70.0654 59.375 69.375 59.375C68.6846 59.375 68.125 59.9346 68.125 60.625C68.125 61.3154 68.6846 61.875 69.375 61.875Z" fill="#0499C5" />
    <path d="M69.6875 73.75C70.2053 73.75 70.625 73.3303 70.625 72.8125C70.625 72.2947 70.2053 71.875 69.6875 71.875C69.1697 71.875 68.75 72.2947 68.75 72.8125C68.75 73.3303 69.1697 73.75 69.6875 73.75Z" fill="#0499C5" />
    <path d="M76.875 69.375H77.5C77.9973 69.375 78.4742 69.5725 78.8258 69.9242C79.1775 70.2758 79.375 70.7527 79.375 71.25C79.375 71.7473 79.1775 72.2242 78.8258 72.5758C78.4742 72.9275 77.9973 73.125 77.5 73.125H76.875V69.375Z" fill="white" stroke="#0499C5" stroke-miterlimit="10" />
</svg>