<svg width="80" height="80" viewBox="0 0 80 80" xmlns="http://www.w3.org/2000/svg">
    <path fill-rule="evenodd" clip-rule="evenodd" d="M60.2165 51.0345H55.1793V53.7931H49.8345L49.6621 66.2069L47.8524 76.8662C47.3903 78.7076 45.7283 80 43.8234 80H37.0634C35.1738 80 33.84 78.1559 34.4372 76.3697L34.6069 74.4828L33.3379 61.3793H30.949L31.4497 60.3807C32.9765 57.3407 32.9765 54.3848 31.4497 51.3434L30.949 50.3448H32.1352L17.9959 41.3793H6.93655C6.93103 41.3793 6.9269 41.3779 6.92138 41.3779V48.2759C6.92138 49.0372 6.30207 49.6552 5.53793 49.6552C4.77379 49.6552 4.1531 49.0372 4.1531 48.2759V17.931C4.1531 17.1697 4.77379 16.5517 5.53793 16.5517C6.30207 16.5517 6.92138 17.1697 6.92138 17.931V24.8276H17.9959H20.7641H24.8345V11.0345C22.4538 10.4179 20.7641 8.08 20.7641 5.51724C20.7641 2.47586 23.2483 0 26.3021 0C29.3545 0 31.8386 2.47586 31.8386 5.51724C31.8386 8.08 29.9738 10.4179 27.5931 11.0345V24.8276H59.8179C66.3572 24.8276 73.1103 29.5724 73.1103 37.2414C73.1103 44.9117 68.1324 51.0345 60.2165 51.0345ZM16.5586 27.5862H6.93655V38.6207H16.5586V27.5862ZM27.6 6.32966V8.28138C28.4234 7.76552 28.9834 6.81931 28.9834 5.72552C28.9834 4.08966 27.7421 2.75862 26.2152 2.75862C24.6883 2.75862 23.4469 4.08966 23.4469 5.72552C23.4469 6.81931 24.0083 7.76552 24.8317 8.28138V6.32966C24.8317 5.51035 25.451 4.84552 26.2152 4.84552C26.9793 4.84552 27.6 5.51035 27.6 6.32966ZM30.3517 27.5862H27.6855V33.4855C28.5103 33.9641 29.0703 34.8441 29.0703 35.8621C29.0703 37.3862 27.8303 38.6207 26.3021 38.6207C24.7724 38.6207 23.5338 37.3862 23.5338 35.8621C23.5338 34.8441 24.0938 33.9641 24.9172 33.4855V27.5862H20.7641H17.9379V38.6207L30.3517 46.8966V27.5862ZM34.4897 27.5862H31.731V48.2759L34.4897 49.6552V27.5862ZM35.2993 51.7241H33.1393C34.2483 54.4745 34.2483 57.2497 33.1393 60H35.2993C35.2993 60 36.6841 58.6207 36.6841 55.8621C36.6841 53.1035 35.2993 51.7241 35.2993 51.7241ZM62.0759 27.5862V31.7241C62.0759 32.509 60.6965 32.509 60.6965 31.7241V27.5862C60.3365 27.5503 60.1848 27.5862 59.8179 27.5862H35.869V49.6552V51.0345C35.869 51.0345 38.0676 51.6772 38.0676 55.9131C38.0676 60.1503 35.8014 61.3917 35.8014 61.3917L37.389 74.4538L37.1945 76.6152L37.1669 76.9366L37.0634 77.2414H43.8234C44.4386 77.2414 44.9752 76.84 45.149 76.2566L46.9034 66.2069V51.0345H52.4207V49.6552H47.7572C47.3752 49.6552 47.0662 49.3476 47.0662 48.9655C47.0662 48.5848 47.3752 48.2759 47.7572 48.2759H60.2165C60.4483 48.2759 60.4662 48.291 60.6965 48.2759V42.7586C60.6965 41.269 62.0759 41.269 62.0759 42.7586V48.2759C65.8455 47.5007 70.3517 43.6966 70.3517 37.2414C70.3517 30.7862 66.2648 28.5379 62.0759 27.5862ZM62.0772 40C60.5476 40 59.309 38.7655 59.309 37.2414C59.309 35.7186 60.5476 34.4828 62.0772 34.4828C63.6069 34.4828 64.8455 35.7186 64.8455 37.2414C64.8455 38.7655 63.6069 40 62.0772 40ZM62.0772 35.8621C61.3145 35.8621 60.6924 36.4814 60.6924 37.2414C60.6924 38.0028 61.3145 38.6207 62.0772 38.6207C62.84 38.6207 63.4621 38.0028 63.4621 37.2414C63.4621 36.4814 62.84 35.8621 62.0772 35.8621ZM1.38483 35.8621C0.62069 35.8621 0 35.2441 0 34.4828V31.7241C0 30.9628 0.62069 30.3448 1.38483 30.3448C2.14897 30.3448 2.76966 30.9628 2.76966 31.7241V34.4828C2.76966 35.2441 2.14897 35.8621 1.38483 35.8621Z" fill="#0499C5" />
</svg>