<svg width="80" height="80" viewBox="0 0 80 80" xmlns="http://www.w3.org/2000/svg">
    <g clip-path="url(#clip0)">
        <path d="M27.5 38.75C27.5 42.25 30.25 45 33.75 45C34.125 45 34.625 45 35 44.875V43.625C34.625 43.75 34.125 43.75 33.75 43.75C31 43.75 28.75 41.5 28.75 38.75C28.75 36 31 33.75 33.75 33.75C34.875 33.75 36 34.125 36.875 34.875L37.5 34.5L38.125 34.125C35.625 31.75 31.625 31.875 29.25 34.375C28.125 35.625 27.5 37.125 27.5 38.75Z" fill="#0499C5" />
        <path d="M41.25 62.625L40.875 62.75L40.25 63L40 63.625L37.75 72.5H29.75L27.5 63.625L27.375 63L26.75 62.75C25.375 62.375 24 61.75 22.625 61.125L22 60.875L21.375 61.25L13.625 65.875L7.875 60.25L12.25 53L12.625 52.375L12.25 51.75C11.375 50.25 10.625 48.625 10 47L9.875 46.25L9.25 46.125L1.25 44V36L8.5 34.25L9.25 34.125L9.375 33.375C9.875 31.25 10.625 29.25 11.625 27.25L12 26.625L11.625 26L8 19.875L13.75 14.125L19.375 17.5L20 17.875L20.625 17.5C22.75 16.25 25 15.25 27.375 14.625L28.125 14.5L28.25 13.75L29.75 7.5H37.75L39.25 13.75L39.5 14.5L40.25 14.625C42.625 15.25 44.875 16.25 47 17.5L47.625 17.875L48.25 17.5L53.875 14.125L59.5 19.875L55.875 26L55.5 26.625L55.875 27.25C56.5 28.5 57.125 29.75 57.5 31.125V27.75C57.375 27.375 57.125 27.125 57 26.75L61.125 19.875L54 12.75L47.5 16.625C45.25 15.25 42.875 14.25 40.375 13.625L38.75 6.25H28.75L27 13.375C24.5 14 22.125 15.125 20 16.375L13.5 12.5L6.375 19.625L10.5 26.5C9.5 28.5 8.625 30.625 8.125 32.875L0 35V45L8.875 47.25C9.5 49 10.25 50.625 11.25 52.25L6.375 60.375L13.5 67.5L22.125 62.375C23.5 63 24.875 63.625 26.375 64L28.75 73.75H38.75L41.25 63.875C41.75 63.75 42.25 63.5 42.75 63.375L42 63L41.25 62.625Z" fill="#0499C5" stroke="#0499C5" stroke-miterlimit="10" />
        <path d="M49.0002 27.875C43.0002 19.375 31.2502 17.5 22.8752 23.5C14.5002 29.5 12.5002 41.25 18.5002 49.625C22.0002 54.625 27.7502 57.5 33.7502 57.5C34.1252 57.5 34.6252 57.5 35.0002 57.5V56.25C34.6252 56.25 34.1252 56.25 33.7502 56.25C24.1252 56.25 16.2502 48.375 16.2502 38.75C16.2502 29.125 24.1252 21.25 33.7502 21.25C39.3752 21.25 44.6252 24 47.8752 28.5L48.3752 28.125L49.0002 27.875Z" fill="#0499C5" />
        <path d="M67.5 37C67.25 36.75 67.125 36.5 66.875 36.25C66.375 35.75 65.875 35.25 65.375 34.875C64.875 34.5 64.5 34.125 64 33.875L63.75 33.625L61.25 32.875V44.625L60.5 45.125L59 46.125L57.875 47L57 47.625L55 49L50.875 46.125L50.375 45.75L49.875 45.375L48.75 44.625V32.875L46.25 33.625C42.375 35.875 40 40 40 44.5V50.25C40 51.75 40.5 53.125 41.25 54.375C41.375 54.5 41.5 54.75 41.625 54.875L42 55.375C42.5 55.875 43.125 56.375 43.75 56.75L48.75 59.625V79.75H61.25V59.625L66.25 56.75C68.625 55.375 70 52.875 70 50.25V44.5C70 41.75 69.125 39.125 67.5 37ZM68.75 50.25C68.75 52.5 67.5 54.5 65.625 55.625L60.625 58.5L60.375 58.625L60 58.875V78.375H56.25V59.625H53.75V78.375H50V58.875L49.375 58.5L44.375 55.625C43.875 55.375 43.5 55 43.125 54.625C43 54.5 42.875 54.375 42.75 54.125C42.625 54 42.5 53.75 42.375 53.625C41.625 52.625 41.25 51.375 41.25 50.125V44.375C41.25 40.375 43.375 36.75 46.75 34.75L47.5 34.5V45.125L48 45.5L49.25 46.375L49.75 46.75L50.25 47.125L54.25 49.875L55 50.375L55.75 49.875L56 49.625L57 48.875L58 48.25L61 46.125L61.875 45.5L62.375 45.125V34.375L63.125 34.625L63.375 34.75C64.375 35.375 65.375 36.25 66.125 37.25C66.375 37.5 66.5 37.875 66.75 38.125C67 38.5 67.25 38.875 67.375 39.25C68.25 40.875 68.625 42.625 68.625 44.375V50.25H68.75Z" fill="#0499C5" stroke="#0499C5" stroke-width="0.5" stroke-miterlimit="10" />
    </g>
    <defs>
        <clipPath id="clip0">
            <rect width="80" height="80" fill="white" />
        </clipPath>
    </defs>
</svg>