<svg width="32" height="32" viewBox="0 0 32 32" fill="" xmlns="http://www.w3.org/2000/svg">
    <g clip-path="url(#clip0)">
        <path d="M31.9941 12.2332C31.9907 12.1964 31.9834 12.1601 31.9722 12.1249C31.9649 12.0935 31.9547 12.0628 31.9418 12.0331C31.9269 12.0042 31.909 11.9768 31.8885 11.9515C31.8679 11.9214 31.8441 11.8938 31.8175 11.8688C31.809 11.8614 31.8053 11.8512 31.7962 11.8438L26.6669 7.86012V3.73141C26.6669 2.84774 25.9505 2.13133 25.0668 2.13133H19.2868L16.9725 0.334423C16.4008 -0.111474 15.599 -0.111474 15.0273 0.334423L12.7125 2.13133H6.93247C6.0488 2.13133 5.33238 2.84768 5.33238 3.73141V7.86018L0.204686 11.8438C0.195623 11.8513 0.191873 11.8614 0.183373 11.8689C0.156809 11.8938 0.132995 11.9215 0.112431 11.9516C0.0919304 11.9769 0.0740545 12.0042 0.0591163 12.0332C0.0461781 12.0628 0.0360526 12.0935 0.0287397 12.125C0.0176142 12.1596 0.0103013 12.1954 0.0068636 12.2317C0.0068636 12.2428 0.000488281 12.2525 0.000488281 12.2637V30.3994C0.00123832 30.7387 0.110994 31.0687 0.313567 31.3408C0.316754 31.3456 0.317317 31.3514 0.321005 31.3557C0.324755 31.3599 0.332755 31.3648 0.338068 31.3706C0.637708 31.7649 1.10373 31.9973 1.59894 31.9995H30.4004C30.8976 31.998 31.3655 31.7644 31.6655 31.368C31.6698 31.3627 31.6762 31.3611 31.6799 31.3558C31.6837 31.3504 31.6842 31.3456 31.6874 31.3408C31.89 31.0687 31.9997 30.7387 32.0005 30.3995V12.2652C32.0004 12.254 31.9946 12.2443 31.9941 12.2332ZM15.6796 1.17603C15.8659 1.02802 16.1296 1.02802 16.3159 1.17603L17.5463 2.13126H14.4528L15.6796 1.17603ZM1.73333 30.9328L15.6797 20.0997C15.866 19.9519 16.1296 19.9519 16.3159 20.0997L30.266 30.9328H1.73333ZM30.9337 30.1013L16.9725 19.258C16.4006 18.8125 15.5992 18.8125 15.0273 19.258L1.06554 30.1013V13.0774L9.80574 19.8645C10.0386 20.0451 10.3738 20.0027 10.5543 19.7698C10.7349 19.5369 10.6925 19.2018 10.4596 19.0212L1.58026 12.1265L5.33245 9.21056V13.3318C5.33245 13.6264 5.57127 13.8652 5.86579 13.8652C6.16036 13.8652 6.39913 13.6263 6.39913 13.3318V3.73135C6.39913 3.43677 6.63789 3.19801 6.93247 3.19801H25.0667C25.3613 3.19801 25.6 3.43677 25.6 3.73135V13.3318C25.6 13.6264 25.8388 13.8652 26.1334 13.8652C26.428 13.8652 26.6667 13.6263 26.6667 13.3318V9.21056L30.4189 12.1265L21.5241 19.0335C21.3711 19.1494 21.2921 19.3387 21.3175 19.529C21.3429 19.7193 21.4686 19.8814 21.6466 19.9532C21.8247 20.025 22.0277 19.9956 22.178 19.8762L30.9336 13.0774V30.1013H30.9337Z" fill="#0F385A" />
        <path d="M22.3998 12.7955V10.662C22.3998 7.12724 19.5342 4.26172 15.9994 4.26172C12.4646 4.26172 9.59912 7.12724 9.59912 10.662C9.59912 14.1968 12.4646 17.0624 15.9994 17.0624C16.294 17.0624 16.5328 16.8236 16.5328 16.529C16.5328 16.2345 16.294 15.9957 15.9994 15.9957C13.0538 15.9957 10.6659 13.6078 10.6659 10.6621C10.6659 7.71646 13.0538 5.32852 15.9994 5.32852C18.9451 5.32852 21.333 7.71646 21.333 10.6621V12.7955C21.333 13.3847 20.8554 13.8623 20.2663 13.8623C19.6771 13.8623 19.1995 13.3847 19.1995 12.7955V10.6621C19.1995 10.3675 18.9608 10.1288 18.6662 10.1288C18.3716 10.1288 18.1329 10.3675 18.1329 10.6621C18.1329 11.8404 17.1777 12.7955 15.9994 12.7955C14.8212 12.7955 13.866 11.8404 13.866 10.6621C13.866 9.48386 14.8212 8.52869 15.9994 8.52869C16.294 8.52869 16.5328 8.28992 16.5328 7.99535C16.5328 7.70077 16.294 7.46201 15.9994 7.46201C14.5672 7.45882 13.3072 8.40768 12.9147 9.78512C12.5221 11.1626 13.0926 12.6331 14.3114 13.3854C15.5302 14.1377 17.1004 13.9885 18.1558 13.0202C18.2719 14.1481 19.2523 14.9868 20.3846 14.9268C21.517 14.8668 22.4033 13.9294 22.3998 12.7955Z" fill="#0F385A" />
    </g>
    <defs>
        <clipPath id="clip0">
            <rect width="32" height="32" fill="white" />
        </clipPath>
    </defs>
</svg>