<svg width="48" height="48" viewBox="0 0 48 48" fill="" xmlns="http://www.w3.org/2000/svg">
<path d="M40.4294 5.56556H37.2307V2.36719C37.2307 2.28099 37.2138 2.19564 37.1808 2.11599C37.1479 2.03635 37.0995 1.96399 37.0386 1.90304C36.9776 1.84209 36.9053 1.79375 36.8256 1.76079C36.746 1.72783 36.6606 1.71089 36.5744 1.71094H15.3551C15.3126 1.71097 15.2703 1.71524 15.2287 1.72369H15.2249C15.1685 1.73575 15.1139 1.75517 15.0626 1.78144C15.0513 1.78706 15.0408 1.79306 15.0296 1.79944C14.978 1.82783 14.9304 1.86302 14.8882 1.90406L7.1073 9.68719C7.06631 9.72896 7.03123 9.77614 7.00305 9.82744C6.9963 9.83906 6.98993 9.85031 6.98393 9.86231C6.95823 9.91306 6.93908 9.96687 6.92693 10.0224V10.0311C6.919 10.0708 6.91486 10.1113 6.91455 10.1518V41.7823C6.91455 41.9564 6.98369 42.1233 7.10676 42.2464C7.22983 42.3694 7.39675 42.4386 7.5708 42.4386H10.7699V45.6369C10.7699 45.7231 10.7868 45.8085 10.8198 45.8881C10.8527 45.9678 10.9011 46.0401 10.962 46.1011C11.023 46.162 11.0953 46.2104 11.175 46.2433C11.2546 46.2763 11.34 46.2932 11.4262 46.2932H40.4302C40.5164 46.2932 40.6017 46.2763 40.6814 46.2433C40.761 46.2104 40.8334 46.162 40.8943 46.1011C40.9553 46.0401 41.0036 45.9678 41.0366 45.8881C41.0695 45.8085 41.0865 45.7231 41.0864 45.6369V6.22181C41.0865 6.13556 41.0695 6.05014 41.0365 5.97044C41.0035 5.89075 40.9551 5.81836 40.8941 5.7574C40.833 5.69644 40.7606 5.64812 40.6809 5.6152C40.6011 5.58228 40.5157 5.56541 40.4294 5.56556ZM14.6999 3.95119V9.49556H9.15443L14.6999 3.95119ZM8.2263 10.8081H15.3551C15.4412 10.8081 15.5266 10.7912 15.6062 10.7582C15.6859 10.7252 15.7583 10.6769 15.8192 10.616C15.8801 10.555 15.9285 10.4826 15.9614 10.403C15.9944 10.3234 16.0114 10.238 16.0113 10.1518V9.13444H30.6037C30.7777 9.13444 30.9446 9.0653 31.0677 8.94223C31.1908 8.81916 31.2599 8.65224 31.2599 8.47819C31.2599 8.30414 31.1908 8.13722 31.0677 8.01415C30.9446 7.89108 30.7777 7.82194 30.6037 7.82194H16.0124V3.02344H35.9182V41.1261H8.2263V10.8081ZM39.7732 44.9807H12.0817V42.4386H36.5744C36.6606 42.4386 36.746 42.4217 36.8256 42.3887C36.9053 42.3558 36.9776 42.3074 37.0386 42.2465C37.0995 42.1855 37.1479 42.1132 37.1808 42.0335C37.2138 41.9539 37.2307 41.8685 37.2307 41.7823V6.87806H39.7732V44.9807Z" fill="#009BC9"/>
<path d="M13.5405 18.1992H30.603C30.7771 18.1992 30.944 18.1301 31.0671 18.007C31.1901 17.8839 31.2593 17.717 31.2593 17.543C31.2593 17.3689 31.1901 17.202 31.0671 17.0789C30.944 16.9559 30.7771 16.8867 30.603 16.8867H13.5405C13.3665 16.8867 13.1996 16.9559 13.0765 17.0789C12.9534 17.202 12.8843 17.3689 12.8843 17.543C12.8843 17.717 12.9534 17.8839 13.0765 18.007C13.1996 18.1301 13.3665 18.1992 13.5405 18.1992Z" fill="#009BC9"/>
<path d="M13.5405 22.7305H30.603C30.7771 22.7305 30.944 22.6613 31.0671 22.5383C31.1901 22.4152 31.2593 22.2483 31.2593 22.0742C31.2593 21.9002 31.1901 21.7333 31.0671 21.6102C30.944 21.4871 30.7771 21.418 30.603 21.418H13.5405C13.3665 21.418 13.1996 21.4871 13.0765 21.6102C12.9534 21.7333 12.8843 21.9002 12.8843 22.0742C12.8843 22.2483 12.9534 22.4152 13.0765 22.5383C13.1996 22.6613 13.3665 22.7305 13.5405 22.7305Z" fill="#009BC9"/>
<path d="M13.5405 27.2656H30.603C30.7771 27.2656 30.944 27.1965 31.0671 27.0734C31.1901 26.9503 31.2593 26.7834 31.2593 26.6094C31.2593 26.4353 31.1901 26.2684 31.0671 26.1453C30.944 26.0223 30.7771 25.9531 30.603 25.9531H13.5405C13.3665 25.9531 13.1996 26.0223 13.0765 26.1453C12.9534 26.2684 12.8843 26.4353 12.8843 26.6094C12.8843 26.7834 12.9534 26.9503 13.0765 27.0734C13.1996 27.1965 13.3665 27.2656 13.5405 27.2656Z" fill="#009BC9"/>
<path d="M13.5405 31.7969H30.603C30.7771 31.7969 30.944 31.7277 31.0671 31.6047C31.1901 31.4816 31.2593 31.3147 31.2593 31.1406C31.2593 30.9666 31.1901 30.7997 31.0671 30.6766C30.944 30.5535 30.7771 30.4844 30.603 30.4844H13.5405C13.3665 30.4844 13.1996 30.5535 13.0765 30.6766C12.9534 30.7997 12.8843 30.9666 12.8843 31.1406C12.8843 31.3147 12.9534 31.4816 13.0765 31.6047C13.1996 31.7277 13.3665 31.7969 13.5405 31.7969Z" fill="#009BC9"/>
<path d="M13.5405 36.3281H30.603C30.7771 36.3281 30.944 36.259 31.0671 36.1359C31.1901 36.0128 31.2593 35.8459 31.2593 35.6719C31.2593 35.4978 31.1901 35.3309 31.0671 35.2078C30.944 35.0848 30.7771 35.0156 30.603 35.0156H13.5405C13.3665 35.0156 13.1996 35.0848 13.0765 35.2078C12.9534 35.3309 12.8843 35.4978 12.8843 35.6719C12.8843 35.8459 12.9534 36.0128 13.0765 36.1359C13.1996 36.259 13.3665 36.3281 13.5405 36.3281Z" fill="#009BC9"/>
<path d="M13.5405 13.668H30.603C30.7771 13.668 30.944 13.5988 31.0671 13.4758C31.1901 13.3527 31.2593 13.1858 31.2593 13.0117C31.2593 12.8377 31.1901 12.6708 31.0671 12.5477C30.944 12.4246 30.7771 12.3555 30.603 12.3555H13.5405C13.3665 12.3555 13.1996 12.4246 13.0765 12.5477C12.9534 12.6708 12.8843 12.8377 12.8843 13.0117C12.8843 13.1858 12.9534 13.3527 13.0765 13.4758C13.1996 13.5988 13.3665 13.668 13.5405 13.668Z" fill="#009BC9"/>
</svg>
