<svg width="48" height="48" viewBox="0 0 48 48" fill="" xmlns="http://www.w3.org/2000/svg">
<path d="M47.0667 28.2325C46.4736 27.9051 45.721 27.9771 45.0018 28.4299L31.7152 36.7964C31.3454 37.0294 31.2345 37.5178 31.4673 37.8876C31.7002 38.2573 32.1887 38.3683 32.5584 38.1355L45.845 29.7689C46.1256 29.5922 46.2792 29.6052 46.3019 29.6178C46.3249 29.6305 46.4175 29.7534 46.4175 30.085C46.4175 30.9763 45.7559 32.1747 45.0018 32.6496L32.1211 40.7605C31.4363 41.1917 30.8102 41.3103 30.4033 41.0858C29.9965 40.8612 29.7633 40.2682 29.7633 39.4588C29.7633 37.4082 31.2292 34.7527 32.9645 33.6601L47.6305 24.425C47.8605 24.2802 48 24.0273 48 23.7555C48 23.4836 47.8604 23.2307 47.6305 23.0859L19.4496 5.34044C19.192 5.17819 18.864 5.17819 18.6064 5.34044L3.76189 14.688C1.65245 16.0164 0 19.0095 0 21.5023V21.9243C0 24.4171 1.65245 27.4104 3.76189 28.7386L25.8408 42.6417C26.2106 42.8745 26.6991 42.7635 26.9319 42.3938C27.1647 42.0241 27.0538 41.5355 26.684 41.3027L4.6051 27.3996C2.96658 26.368 1.5824 23.8605 1.5824 21.9243V21.5023C1.5824 19.5661 2.96658 17.0587 4.6051 16.027L19.0279 6.94499L45.724 23.7554L32.1212 32.321C29.9117 33.7123 28.1809 36.8476 28.1809 39.4588C28.1809 40.8824 28.6985 41.9522 29.6386 42.4711C30.0161 42.6796 30.4325 42.783 30.8738 42.783C31.5311 42.783 32.2436 42.5534 32.9643 42.0995L45.845 33.9886C47.0534 33.2277 47.9999 31.513 47.9999 30.085C47.9999 29.2351 47.6598 28.5599 47.0667 28.2325Z" fill="#009BC9"/>
<path d="M37.3093 24.5477C37.5722 24.5477 37.8292 24.4168 37.9796 24.1781C38.2124 23.8083 38.1015 23.3198 37.7317 23.087L19.4497 11.5749C19.0799 11.3421 18.5914 11.4531 18.3586 11.8228C18.1258 12.1925 18.2368 12.6811 18.6065 12.9139L36.8885 24.426C37.0194 24.5084 37.1652 24.5477 37.3093 24.5477Z" fill="#009BC9"/>
<path d="M34.1462 26.648C34.4096 26.648 34.6671 26.5165 34.8172 26.2769C35.0494 25.9068 34.9375 25.4184 34.5672 25.1864L26.8439 20.3437C26.4736 20.1114 25.9853 20.2235 25.7533 20.5937C25.5212 20.964 25.6331 21.4522 26.0034 21.6843L33.7266 26.527C33.8572 26.6089 34.0025 26.648 34.1462 26.648Z" fill="#009BC9"/>
<path d="M23.62 22.4249C23.2494 22.1934 22.7613 22.3063 22.5299 22.677C22.2984 23.0477 22.4113 23.5357 22.782 23.7672L30.5646 28.6264C30.6949 28.7078 30.8397 28.7466 30.9828 28.7466C31.2467 28.7466 31.5047 28.6146 31.6547 28.3743C31.8862 28.0036 31.7733 27.5156 31.4026 27.2841L23.62 22.4249Z" fill="#009BC9"/>
<path d="M15.3185 13.6451L8.74308 17.7861C8.51237 17.9314 8.3727 18.1852 8.37354 18.4579C8.37438 18.7306 8.51543 18.9836 8.74699 19.1276L16.5888 24.0034C16.7168 24.0829 16.8616 24.1227 17.0066 24.1227C17.1561 24.1227 17.3054 24.0804 17.4361 23.996L19.1826 22.8672C19.5496 22.63 19.6548 22.1403 19.4176 21.7733C19.1805 21.4062 18.6907 21.3012 18.3237 21.5382L16.9985 22.3947L10.6563 18.4514L15.7411 15.2491L21.9909 19.1679L21.2623 19.6388C20.8953 19.8761 20.7901 20.3658 21.0273 20.7328C21.2645 21.0998 21.7545 21.205 22.1212 20.9678L23.8935 19.8223C24.1206 19.6754 24.257 19.4228 24.2552 19.1523C24.2533 18.8819 24.1135 18.6311 23.8843 18.4875L16.1603 13.6444C15.9029 13.4828 15.5757 13.4832 15.3185 13.6451Z" fill="#009BC9"/>
<path d="M28.4922 30.4718C28.723 30.1007 28.6092 29.6129 28.2381 29.3822L20.3961 24.5062C20.0249 24.2753 19.537 24.3892 19.3064 24.7603C19.0757 25.1314 19.1894 25.6192 19.5605 25.8499L27.4026 30.7259C27.5326 30.8069 27.677 30.8454 27.8196 30.8454C28.084 30.8454 28.3424 30.7129 28.4922 30.4718Z" fill="#009BC9"/>
<path d="M5.64675 20.3463C5.41603 20.7174 5.52975 21.2052 5.90088 21.4359L25.2566 33.4707C25.3866 33.5516 25.531 33.5901 25.6736 33.5901C25.938 33.5901 26.1964 33.4576 26.3462 33.2166C26.577 32.8454 26.4632 32.3576 26.0921 32.1269L6.73639 20.0922C6.36526 19.8612 5.87746 19.9752 5.64675 20.3463Z" fill="#009BC9"/>
</svg>
