<svg width="48" height="48" viewBox="0 0 48 48" fill="" xmlns="http://www.w3.org/2000/svg">
<path d="M43.1301 37.1587C43.5184 37.1587 43.8332 36.8438 43.8332 36.4555V6.85884C43.8332 6.47053 43.5184 6.15572 43.1301 6.15572H40.8027V3.73359C40.8027 3.34528 40.4879 3.03047 40.0996 3.03047H37.7722V0.703125C37.7722 0.314812 37.4574 0 37.0691 0H4.87012C4.4818 0 4.16699 0.314812 4.16699 0.703125V41.1412C4.16699 41.5295 4.4818 41.8443 4.87012 41.8443H7.19746V44.1716C7.19746 44.5599 7.51227 44.8747 7.90059 44.8747H10.2279V47.2969C10.2279 47.6852 10.5427 48 10.9311 48H43.13C43.5183 48 43.8331 47.6852 43.8331 47.2969V39.7366C43.8331 39.3483 43.5183 39.0335 43.13 39.0335C42.7416 39.0335 42.4268 39.3483 42.4268 39.7366V46.5938H11.6343V44.8748H40.0996C40.4879 44.8748 40.8027 44.56 40.8027 44.1717V32.2043C40.8027 31.8159 40.4879 31.5011 40.0996 31.5011C39.7113 31.5011 39.3965 31.8159 39.3965 32.2043V43.4685H8.60371V41.8443H37.069C37.4573 41.8443 37.7721 41.5295 37.7721 41.1412V26.3078C37.7721 25.9195 37.4573 25.6047 37.069 25.6047C36.6807 25.6047 36.3659 25.9195 36.3659 26.3078V40.4381H5.57324V1.40625H36.3659V23.0182C36.3659 23.4066 36.6807 23.7214 37.069 23.7214C37.4573 23.7214 37.7721 23.4066 37.7721 23.0182V4.43672H39.3964V28.9207C39.3964 29.3091 39.7112 29.6239 40.0995 29.6239C40.4878 29.6239 40.8026 29.3091 40.8026 28.9207V7.56197H42.4268V36.4556C42.4269 36.8438 42.7417 37.1587 43.1301 37.1587Z" fill="#009BC9"/>
<path d="M18.6422 17.3698V4.30078C18.6422 3.91247 18.3274 3.59766 17.9391 3.59766H8.46875C8.08044 3.59766 7.76562 3.91247 7.76562 4.30078V17.3697C7.76562 17.758 8.08044 18.0728 8.46875 18.0728H17.9391C18.3274 18.0729 18.6422 17.7581 18.6422 17.3698ZM17.236 16.6667H9.17188V5.00391H17.2359V16.6667H17.236Z" fill="#009BC9"/>
<path d="M34.1732 4.30078C34.1732 3.91247 33.8584 3.59766 33.4701 3.59766H21.3481C20.9598 3.59766 20.645 3.91247 20.645 4.30078V7.52072C20.645 7.90903 20.9598 8.22384 21.3481 8.22384H33.4701C33.8584 8.22384 34.1732 7.90903 34.1732 7.52072V4.30078ZM32.767 6.81759H22.0513V5.00391H32.767V6.81759Z" fill="#009BC9"/>
<path d="M33.4701 10.2305H21.3481C20.9598 10.2305 20.645 10.5453 20.645 10.9336C20.645 11.3219 20.9598 11.6367 21.3481 11.6367H33.4701C33.8584 11.6367 34.1732 11.3219 34.1732 10.9336C34.1732 10.5453 33.8584 10.2305 33.4701 10.2305Z" fill="#009BC9"/>
<path d="M33.4701 13.2578H21.3481C20.9598 13.2578 20.645 13.5726 20.645 13.9609C20.645 14.3493 20.9598 14.6641 21.3481 14.6641H33.4701C33.8584 14.6641 34.1732 14.3493 34.1732 13.9609C34.1732 13.5726 33.8584 13.2578 33.4701 13.2578Z" fill="#009BC9"/>
<path d="M33.4701 16.668H21.3481C20.9598 16.668 20.645 16.9828 20.645 17.3711C20.645 17.7594 20.9598 18.0742 21.3481 18.0742H33.4701C33.8584 18.0742 34.1732 17.7594 34.1732 17.3711C34.1732 16.9828 33.8584 16.668 33.4701 16.668Z" fill="#009BC9"/>
<path d="M33.4702 20.0781H15.666C15.2777 20.0781 14.9629 20.3929 14.9629 20.7812C14.9629 21.1696 15.2777 21.4844 15.666 21.4844H33.4702C33.8585 21.4844 34.1733 21.1696 34.1733 20.7812C34.1733 20.3929 33.8585 20.0781 33.4702 20.0781Z" fill="#009BC9"/>
<path d="M12.2569 20.0781H8.46875C8.08044 20.0781 7.76562 20.3929 7.76562 20.7812C7.76562 21.1696 8.08044 21.4844 8.46875 21.4844H12.2568C12.6451 21.4844 12.9599 21.1696 12.9599 20.7812C12.9599 20.3929 12.6452 20.0781 12.2569 20.0781Z" fill="#009BC9"/>
<path d="M33.4702 23.4883H15.666C15.2777 23.4883 14.9629 23.8031 14.9629 24.1914C14.9629 24.5797 15.2777 24.8945 15.666 24.8945H33.4702C33.8585 24.8945 34.1733 24.5797 34.1733 24.1914C34.1733 23.8031 33.8585 23.4883 33.4702 23.4883Z" fill="#009BC9"/>
<path d="M12.2569 23.4883H8.46875C8.08044 23.4883 7.76562 23.8031 7.76562 24.1914C7.76562 24.5797 8.08044 24.8945 8.46875 24.8945H12.2568C12.6451 24.8945 12.9599 24.5797 12.9599 24.1914C12.9599 23.8031 12.6452 23.4883 12.2569 23.4883Z" fill="#009BC9"/>
<path d="M33.4702 26.8945H15.666C15.2777 26.8945 14.9629 27.2093 14.9629 27.5977C14.9629 27.986 15.2777 28.3008 15.666 28.3008H33.4702C33.8585 28.3008 34.1733 27.986 34.1733 27.5977C34.1733 27.2093 33.8585 26.8945 33.4702 26.8945Z" fill="#009BC9"/>
<path d="M12.2569 26.8945H8.46875C8.08044 26.8945 7.76562 27.2093 7.76562 27.5977C7.76562 27.986 8.08044 28.3008 8.46875 28.3008H12.2568C12.6451 28.3008 12.9599 27.986 12.9599 27.5977C12.9599 27.2093 12.6452 26.8945 12.2569 26.8945Z" fill="#009BC9"/>
<path d="M33.4702 30.3047H15.666C15.2777 30.3047 14.9629 30.6195 14.9629 31.0078C14.9629 31.3961 15.2777 31.7109 15.666 31.7109H33.4702C33.8585 31.7109 34.1733 31.3961 34.1733 31.0078C34.1733 30.6195 33.8585 30.3047 33.4702 30.3047Z" fill="#009BC9"/>
<path d="M12.2569 30.3047H8.46875C8.08044 30.3047 7.76562 30.6195 7.76562 31.0078C7.76562 31.3961 8.08044 31.7109 8.46875 31.7109H12.2568C12.6451 31.7109 12.9599 31.3961 12.9599 31.0078C12.9599 30.6195 12.6452 30.3047 12.2569 30.3047Z" fill="#009BC9"/>
<path d="M33.4702 33.7148H15.666C15.2777 33.7148 14.9629 34.0297 14.9629 34.418C14.9629 34.8063 15.2777 35.1211 15.666 35.1211H33.4702C33.8585 35.1211 34.1733 34.8063 34.1733 34.418C34.1733 34.0297 33.8585 33.7148 33.4702 33.7148Z" fill="#009BC9"/>
<path d="M12.2569 33.7148H8.46875C8.08044 33.7148 7.76562 34.0297 7.76562 34.418C7.76562 34.8063 8.08044 35.1211 8.46875 35.1211H12.2568C12.6451 35.1211 12.9599 34.8063 12.9599 34.418C12.9599 34.0297 12.6452 33.7148 12.2569 33.7148Z" fill="#009BC9"/>
</svg>
