<svg viewBox="0 0 24 24" xmlns="http://www.w3.org/2000/svg">
    <path d="M20.9543 8.29308C20.9121 7.33648 20.7574 6.67883 20.5358 6.10897C20.3072 5.50407 19.9555 4.96251 19.4947 4.51231C19.0445 4.0551 18.4994 3.69983 17.9015 3.47479C17.3283 3.2532 16.6741 3.0985 15.7175 3.05633C14.7538 3.01058 14.4478 3 12.0035 3C9.55919 3 9.25324 3.01058 8.29308 3.05275C7.33648 3.09493 6.67883 3.24976 6.1091 3.47122C5.50407 3.69983 4.96251 4.05153 4.51231 4.51231C4.0551 4.96251 3.69996 5.50764 3.47479 6.10553C3.2532 6.67883 3.0985 7.33291 3.05633 8.2895C3.01058 9.25324 3 9.55919 3 12.0035C3 14.4478 3.01058 14.7538 3.05275 15.7139C3.09493 16.6705 3.24976 17.3282 3.47136 17.898C3.69996 18.5029 4.0551 19.0445 4.51231 19.4947C4.96251 19.9519 5.50764 20.3072 6.10553 20.5322C6.67883 20.7538 7.33291 20.9085 8.28964 20.9507C9.24967 20.993 9.55576 21.0034 12.0001 21.0034C14.4444 21.0034 14.7503 20.993 15.7105 20.9507C16.6671 20.9085 17.3247 20.7538 17.8945 20.5322C19.1044 20.0644 20.061 19.1078 20.5288 17.898C20.7502 17.3247 20.9051 16.6705 20.9472 15.7139C20.9894 14.7538 21 14.4478 21 12.0035C21 9.55919 20.9964 9.25324 20.9543 8.29308ZM19.333 15.6436C19.2943 16.5228 19.1466 16.9976 19.0235 17.3142C18.721 18.0985 18.0985 18.721 17.3142 19.0235C16.9976 19.1466 16.5194 19.2943 15.6436 19.3329C14.694 19.3752 14.4092 19.3856 12.0071 19.3856C9.60494 19.3856 9.31658 19.3752 8.37042 19.3329C7.49117 19.2943 7.01638 19.1466 6.69985 19.0235C6.30955 18.8792 5.95427 18.6506 5.66591 18.3517C5.36696 18.0597 5.13836 17.708 4.99411 17.3177C4.87101 17.0012 4.72333 16.5228 4.68472 15.6472C4.64241 14.6976 4.63197 14.4126 4.63197 12.0105C4.63197 9.60838 4.64241 9.32001 4.68472 8.37399C4.72333 7.49475 4.87101 7.01995 4.99411 6.70342C5.13836 6.31298 5.36696 5.95785 5.66948 5.66934C5.96128 5.3704 6.31298 5.14179 6.70342 4.99768C7.01995 4.87459 7.49832 4.7269 8.37399 4.68816C9.32358 4.64598 9.60851 4.6354 12.0105 4.6354C14.4162 4.6354 14.701 4.64598 15.6472 4.68816C16.5264 4.7269 17.0012 4.87459 17.3177 4.99768C17.708 5.14179 18.0633 5.3704 18.3517 5.66934C18.6506 5.96128 18.8792 6.31298 19.0235 6.70342C19.1466 7.01995 19.2943 7.49818 19.333 8.37399C19.3752 9.32358 19.3858 9.60838 19.3858 12.0105C19.3858 14.4126 19.3752 14.694 19.333 15.6436Z" fill="white" />
    <path d="M12.0038 7.37866C9.4505 7.37866 7.37891 9.45012 7.37891 12.0035C7.37891 14.5569 9.4505 16.6284 12.0038 16.6284C14.5571 16.6284 16.6286 14.5569 16.6286 12.0035C16.6286 9.45012 14.5571 7.37866 12.0038 7.37866ZM12.0038 15.0035C10.3473 15.0035 9.00373 13.6601 9.00373 12.0035C9.00373 10.347 10.3473 9.00349 12.0038 9.00349C13.6603 9.00349 15.0038 10.347 15.0038 12.0035C15.0038 13.6601 13.6603 15.0035 12.0038 15.0035Z" />
    <path d="M17.891 7.19578C17.891 7.79202 17.4075 8.27547 16.8111 8.27547C16.2149 8.27547 15.7314 7.79202 15.7314 7.19578C15.7314 6.5994 16.2149 6.11609 16.8111 6.11609C17.4075 6.11609 17.891 6.5994 17.891 7.19578Z"  />
</svg>