<svg width="121" height="35" viewBox="0 0 121 35" xmlns="http://www.w3.org/2000/svg">
    <path d="M6.99111 24.4278L0 19.1745V18.6492C0 15.1689 3.56278 13.5929 6.85667 12.0826C9.34389 10.9006 12.2344 9.58724 12.2344 8.07692H14.7889C14.7889 11.1632 11.3606 12.8049 7.99944 14.3152C5.57944 15.4315 3.025 16.6135 2.62167 18.0582L7.12556 21.4728L12.2344 17.9925V14.1182H14.7889V19.3058L6.99111 24.4278V24.4278ZM2.55444 11.7542H0C0 8.66792 3.42833 7.02627 6.78944 5.51595C8.80611 4.59662 10.9572 3.61163 11.7639 2.49531H2.55444V5.84428H0V0H14.7889V0.590994C14.7889 4.79362 11.2261 6.23827 7.93222 7.74859C5.37778 8.93058 2.55444 10.2439 2.55444 11.7542V11.7542ZM54.7189 15.0375C53.9794 16.3508 52.2317 16.7448 50.9544 16.7448H50.6856C48.9378 16.7448 46.585 16.1538 46.585 13.5929V13.4615H58.9539V11.2289C58.9539 6.82927 56.4667 4.59662 51.6267 4.59662H49.9461C45.1061 4.59662 42.6189 6.82927 42.6189 11.2289V12.8049C42.6189 17.2045 45.1061 19.4371 49.9461 19.4371H51.6267C55.055 19.4371 57.3406 18.2552 58.2817 16.0225L54.7189 15.0375V15.0375ZM46.585 10.5066C46.585 7.94559 48.9378 7.3546 50.6856 7.3546H50.9544C52.7022 7.3546 55.055 7.94559 55.055 10.5066V11.1632H46.585V10.5066ZM34.3506 9.45591L41.8122 19.1745H37.3756L31.3256 11.1632L27.1578 11.0976V19.1745H23.0572V0H27.1578V7.94559H31.1239L37.1067 0H41.3417L34.3506 9.45591V9.45591ZM71.2556 7.94559H69.7094C68.2306 7.94559 65.8106 8.07692 65.8106 10.5722V19.1745H61.8444V11.2946C61.8444 8.40525 62.9872 4.92495 68.8356 4.92495H71.2556V7.94559V7.94559ZM89.8089 19.1745H85.91V10.5722C85.91 8.07692 83.49 7.94559 82.0111 7.94559H78.3811V19.1745H74.4822V5.05629C74.4822 5.05629 79.1206 4.92495 82.885 4.92495C88.8006 4.92495 89.8761 8.40525 89.8761 11.2946V19.1745H89.8089ZM121 7.94559H119.454C118.177 7.94559 117.236 8.27392 116.563 8.93058C115.891 9.58724 115.555 10.5722 115.555 11.8856V19.1745H111.589V10.8349C111.589 8.99625 112.194 7.55159 113.404 6.50094C114.614 5.45028 116.362 4.92495 118.58 4.92495H121V7.94559V7.94559ZM104.598 15.0375C103.858 16.3508 102.111 16.7448 100.833 16.7448H100.564C98.8167 16.7448 96.4639 16.1538 96.4639 13.5929V13.4615H108.833V11.2289C108.833 6.82927 106.346 4.59662 101.506 4.59662H99.825C94.985 4.59662 92.4978 6.82927 92.4978 11.2289V12.8049C92.4978 17.2045 94.985 19.4371 99.825 19.4371H101.506C104.934 19.4371 107.219 18.2552 108.161 16.0225L104.598 15.0375V15.0375ZM96.4639 10.5066C96.4639 7.94559 98.8167 7.3546 100.564 7.3546H100.833C102.581 7.3546 104.934 7.94559 104.934 10.5066V11.1632H96.4639V10.5066ZM30.25 28.3677V32.5704H29.5106V28.5647C29.5106 27.7767 29.3089 27.4484 28.7711 27.4484C28.3006 27.4484 27.8972 27.7767 27.1578 28.4334V32.636H26.4183V28.6304C26.4183 27.8424 26.1494 27.5141 25.6789 27.5141C25.2083 27.5141 24.805 27.7767 24.1328 28.4991V32.7017H23.3933V27.0544H23.9983L24.0656 27.9737C24.7378 27.2514 25.3428 26.9231 26.015 26.9231C26.6872 26.9231 27.0906 27.2514 27.225 27.9737C27.8972 27.2514 28.5022 26.9231 29.1072 26.9231C29.8467 26.7917 30.25 27.3827 30.25 28.3677V28.3677ZM35.7622 28.5647V32.636H35.1572L35.09 31.7167C34.7539 32.1764 34.0144 32.7674 33.1406 32.7674C32.3339 32.7674 31.7961 32.242 31.7961 31.257V30.6004C31.7961 29.7467 32.2667 29.2214 33.0733 29.2214H35.09V28.6304C35.09 27.9081 34.8883 27.5141 34.1489 27.5141C33.6111 27.5141 32.8717 27.5797 32.1322 27.6454L32.065 27.1201C32.7372 26.9887 33.6111 26.8574 34.2833 26.8574C35.2244 26.7917 35.7622 27.2514 35.7622 28.5647V28.5647ZM34.9556 31.1257V29.6811H33.1406C32.67 29.6811 32.5356 30.0094 32.5356 30.5347V30.9944C32.5356 31.651 32.8044 31.9137 33.275 31.9137C33.7456 32.045 34.4178 31.7167 34.9556 31.1257V31.1257ZM40.9383 27.0544L40.8039 27.5797C40.4006 27.5141 39.8628 27.5141 39.5267 27.5141C38.3839 27.5141 37.9806 28.0394 37.9806 29.8124C37.9806 31.5854 38.3839 32.1107 39.5267 32.1107C39.7956 32.1107 40.4006 32.1107 40.8711 31.9794L40.9383 32.5047C40.4678 32.636 39.93 32.7674 39.3922 32.7674C37.7789 32.7674 37.1739 31.9794 37.1739 29.8124C37.1739 27.6454 37.7789 26.8574 39.3922 26.8574C39.8628 26.7917 40.4678 26.8574 40.9383 27.0544V27.0544ZM46.4506 28.3677V32.5704H45.7111V28.5647C45.7111 27.7767 45.5094 27.4484 44.9717 27.4484C44.4339 27.4484 43.8961 27.7767 43.1567 28.4334V32.636H42.35V24.4278H43.0894V26.7917C43.0894 27.1857 43.0894 27.5797 43.0222 27.9081C43.6944 27.2514 44.4339 26.8574 45.1061 26.8574C45.98 26.7917 46.4506 27.3827 46.4506 28.3677V28.3677ZM48.7361 24.6248C48.8706 24.6248 49.005 24.6904 49.005 24.8874V25.5441C49.005 25.6754 48.9378 25.8068 48.7361 25.8068H48.4C48.2656 25.8068 48.1983 25.7411 48.1983 25.5441V24.8874C48.1983 24.7561 48.2656 24.6248 48.4 24.6248H48.7361ZM48.1983 32.5704V26.9231H48.9378V32.5704H48.1983V32.5704ZM54.8533 28.3677V32.5704H54.1139V28.5647C54.1139 27.7767 53.9122 27.4484 53.4417 27.4484C52.9039 27.4484 52.3661 27.7767 51.6267 28.4334V32.636H50.8872V26.9887H51.5594L51.6267 27.9081C52.3661 27.2514 53.0383 26.8574 53.7106 26.8574C54.3828 26.7917 54.8533 27.3827 54.8533 28.3677V28.3677ZM60.2311 31.9794L60.2983 32.5047C59.895 32.7017 59.0211 32.7674 58.4833 32.7674C56.87 32.7674 56.265 31.9794 56.265 29.8124C56.265 27.6454 56.87 26.8574 58.4161 26.8574C59.8278 26.8574 60.3656 27.4484 60.3656 28.6304C60.3656 29.6154 60.0294 30.2064 59.29 30.2064H57.1389C57.2061 31.7167 57.6094 32.1764 58.6178 32.1764C59.1556 32.1107 59.8278 32.045 60.2311 31.9794ZM57.1389 29.5497H59.1556C59.5589 29.5497 59.6933 29.1557 59.6933 28.5647C59.6933 27.7767 59.3572 27.4484 58.4833 27.4484C57.475 27.4484 57.1389 27.9737 57.1389 29.5497ZM65.4072 26.9887L65.34 27.5141C64.735 27.4484 64.13 27.4484 63.5922 27.4484C62.7183 27.4484 62.4494 27.4484 62.4494 28.3677C62.4494 29.0244 62.6511 29.2214 63.1217 29.2871L64.5333 29.6154C65.2728 29.8124 65.6089 30.2064 65.6089 31.1257C65.6089 32.5047 64.9367 32.7017 63.5922 32.7017C63.2561 32.7017 62.5839 32.7017 61.7772 32.5704L61.8444 32.045C62.315 32.1107 62.8528 32.1107 63.4578 32.1107C64.5333 32.1107 64.8694 31.9794 64.8694 31.1257C64.8694 30.469 64.6006 30.3377 64.13 30.2064L62.7856 29.878C62.0461 29.6811 61.71 29.2871 61.71 28.3677C61.71 26.9887 62.2478 26.7917 63.525 26.8574C64.0628 26.8574 64.8694 26.8574 65.4072 26.9887ZM82.0111 26.9887L81.9439 27.5141C81.3389 27.4484 80.7339 27.4484 80.1961 27.4484C79.3222 27.4484 79.0533 27.4484 79.0533 28.3677C79.0533 29.0244 79.255 29.2214 79.7256 29.2871L81.1372 29.6154C81.8767 29.8124 82.2128 30.2064 82.2128 31.1257C82.2128 32.5047 81.5406 32.7017 80.1961 32.7017C79.86 32.7017 79.1878 32.7017 78.3811 32.5704L78.4483 32.045C78.9189 32.1107 79.4567 32.1107 80.0617 32.1107C81.1372 32.1107 81.4733 31.9794 81.4733 31.1257C81.4733 30.469 81.2044 30.3377 80.7339 30.2064L79.3894 29.878C78.65 29.6811 78.3139 29.2871 78.3139 28.3677C78.3139 26.9887 78.8517 26.7917 80.1289 26.8574C80.6667 26.8574 81.4733 26.8574 82.0111 26.9887ZM87.5233 32.5704H86.9183L86.8511 31.7167C86.1789 32.3734 85.5067 32.7017 84.8344 32.7017C84.0278 32.7017 83.5572 32.1764 83.5572 31.1914V26.9887H84.2967V30.9944C84.2967 31.7824 84.4983 32.1107 85.0361 32.1107C85.5739 32.1107 86.0444 31.7824 86.7167 31.1914V26.9887H87.4561V32.5704H87.5233ZM93.5733 29.8124C93.5733 31.9794 93.0356 32.7674 91.8256 32.7674C91.2206 32.7674 90.6156 32.5704 90.0778 32.1764C90.145 32.5704 90.145 32.8987 90.145 33.2927V35H89.4056V26.9887H90.0105L90.0778 27.9081C90.6156 27.2514 91.355 26.8574 92.0272 26.8574C93.1028 26.7917 93.5733 27.7767 93.5733 29.8124V29.8124ZM92.7667 29.8124C92.7667 28.1051 92.4978 27.5141 91.6911 27.5141C91.1533 27.5141 90.6828 27.8424 90.0778 28.4991V31.7167C90.6828 31.9794 91.0861 32.1107 91.6239 32.1107C92.4306 32.1107 92.7667 31.5854 92.7667 29.8124ZM99.3544 29.8124C99.3544 31.9794 98.8167 32.7674 97.6067 32.7674C97.0017 32.7674 96.3967 32.5704 95.8589 32.1764C95.9261 32.5704 95.9261 32.8987 95.9261 33.2927V35H95.1867V26.9887H95.7917L95.8589 27.9081C96.3967 27.2514 97.1361 26.8574 97.8083 26.8574C98.8839 26.7917 99.3544 27.7767 99.3544 29.8124V29.8124ZM98.5478 29.8124C98.5478 28.1051 98.2789 27.5141 97.4722 27.5141C96.9344 27.5141 96.4639 27.8424 95.8589 28.4991V31.7167C96.4639 31.9794 96.8672 32.1107 97.405 32.1107C98.2117 32.1107 98.5478 31.5854 98.5478 29.8124ZM101.64 31.1914C101.64 31.7167 101.842 31.9794 102.312 31.9794H102.783L102.85 32.5047C102.648 32.5704 102.245 32.636 102.043 32.636C101.371 32.636 100.901 32.1764 100.901 31.257V24.4278H101.64V31.1914ZM104.531 24.6248C104.665 24.6248 104.799 24.6904 104.799 24.8874V25.5441C104.799 25.6754 104.732 25.8068 104.531 25.8068H104.194C104.06 25.8068 103.993 25.7411 103.993 25.5441V24.8874C103.993 24.7561 104.06 24.6248 104.194 24.6248H104.531ZM103.993 32.5704V26.9231H104.732V32.5704H103.993ZM110.244 31.9794L110.312 32.5047C109.908 32.7017 109.034 32.7674 108.497 32.7674C106.883 32.7674 106.278 31.9794 106.278 29.8124C106.278 27.6454 106.883 26.8574 108.429 26.8574C109.841 26.8574 110.379 27.4484 110.379 28.6304C110.379 29.6154 110.043 30.2064 109.303 30.2064H107.085C107.152 31.7167 107.556 32.1764 108.564 32.1764C109.169 32.1107 109.774 32.045 110.244 31.9794V31.9794ZM107.152 29.5497H109.169C109.572 29.5497 109.707 29.1557 109.707 28.5647C109.707 27.7767 109.371 27.4484 108.497 27.4484C107.488 27.4484 107.152 27.9737 107.152 29.5497ZM115.421 26.9887L115.353 27.5141C114.748 27.4484 114.143 27.4484 113.606 27.4484C112.732 27.4484 112.463 27.4484 112.463 28.3677C112.463 29.0244 112.664 29.2214 113.135 29.2871L114.547 29.6154C115.286 29.8124 115.622 30.2064 115.622 31.1257C115.622 32.5047 114.95 32.7017 113.606 32.7017C113.269 32.7017 112.597 32.7017 111.791 32.5704L111.858 32.045C112.328 32.1107 112.866 32.1107 113.471 32.1107C114.547 32.1107 114.883 31.9794 114.883 31.1257C114.883 30.469 114.614 30.3377 114.143 30.2064L112.799 29.878C112.059 29.6811 111.723 29.2871 111.723 28.3677C111.723 26.9887 112.261 26.7917 113.538 26.8574C114.076 26.8574 114.816 26.8574 115.421 26.9887V26.9887ZM73.9444 31.5197C73.9444 31.5197 74.0789 30.5347 73.8772 29.7467H73.205C73.3394 30.2064 73.3394 30.863 73.3394 30.863L71.0539 28.3021C70.8522 28.1051 70.785 27.9081 70.785 27.3171C70.785 26.0694 71.2556 26.0038 71.7933 26.0038C72.3311 26.0038 72.5328 26.1351 72.6672 26.3978C72.7344 26.4634 72.8017 26.7261 72.8017 27.0544H73.4067C73.4067 26.4634 73.2722 26.1351 73.1378 26.0038C72.8689 25.6098 72.5328 25.4784 71.6589 25.4784C70.3817 25.4784 69.9783 25.9381 69.9783 27.3171C69.9783 27.9737 70.0456 28.3021 70.5161 28.9587H70.3817C69.575 29.0244 69.3733 29.8124 69.3733 30.9287C69.3733 32.3077 69.9111 32.8987 71.5244 32.8987C72.6 32.8987 73.1378 32.7017 73.4067 32.242C73.4067 32.242 73.6083 32.5047 73.7428 32.7674H74.4822C74.6167 32.3077 73.9444 31.5197 73.9444 31.5197V31.5197ZM71.7933 32.1764C70.7178 32.1764 70.2472 31.7824 70.2472 30.7317C70.2472 29.878 70.3817 29.4841 70.7178 29.2871C70.785 29.2871 70.8522 29.2214 70.9194 29.2214L73.0706 31.5854C73.0033 31.9794 72.5328 32.1764 71.7933 32.1764V32.1764Z" />
</svg>