<svg width="32" height="32" viewBox="0 0 32 32" fill="" xmlns="http://www.w3.org/2000/svg">
<g clip-path="url(#clip0)">
<path d="M28.6667 24H24.6667C24.2987 24 24 23.7013 24 23.3333C24 22.9653 24.2987 22.6667 24.6667 22.6667H28.6667C29.7693 22.6667 30.6667 21.7693 30.6667 20.6667V11.3333C30.6667 10.2307 29.7693 9.33333 28.6667 9.33333H3.33333C2.23067 9.33333 1.33333 10.2307 1.33333 11.3333V20.6667C1.33333 21.7693 2.23067 22.6667 3.33333 22.6667H7.33333C7.70133 22.6667 8 22.9653 8 23.3333C8 23.7013 7.70133 24 7.33333 24H3.33333C1.49467 24 0 22.504 0 20.6667V11.3333C0 9.496 1.49467 8 3.33333 8H28.6667C30.5053 8 32 9.496 32 11.3333V20.6667C32 22.504 30.5053 24 28.6667 24Z" fill="#0F385A"/>
<path d="M19.3337 27.9974H11.3337C10.9657 27.9974 10.667 27.6987 10.667 27.3307C10.667 26.9627 10.9657 26.6641 11.3337 26.6641H19.3337C19.7017 26.6641 20.0003 26.9627 20.0003 27.3307C20.0003 27.6987 19.7017 27.9974 19.3337 27.9974Z" fill="#0F385A"/>
<path d="M19.3337 25.3333H11.3337C10.9657 25.3333 10.667 25.0347 10.667 24.6667C10.667 24.2987 10.9657 24 11.3337 24H19.3337C19.7017 24 20.0003 24.2987 20.0003 24.6667C20.0003 25.0347 19.7017 25.3333 19.3337 25.3333Z" fill="#0F385A"/>
<path d="M14.0003 22.6693H11.3337C10.9657 22.6693 10.667 22.3706 10.667 22.0026C10.667 21.6346 10.9657 21.3359 11.3337 21.3359H14.0003C14.3683 21.3359 14.667 21.6346 14.667 22.0026C14.667 22.3706 14.3683 22.6693 14.0003 22.6693Z" fill="#0F385A"/>
<path d="M24.667 9.33333C24.299 9.33333 24.0003 9.03467 24.0003 8.66667V3.33333C24.0003 2.23067 23.103 1.33333 22.0003 1.33333H10.0003C8.89766 1.33333 8.00033 2.23067 8.00033 3.33333V8.66667C8.00033 9.03467 7.70166 9.33333 7.33366 9.33333C6.96566 9.33333 6.66699 9.03467 6.66699 8.66667V3.33333C6.66699 1.496 8.16166 0 10.0003 0H22.0003C23.839 0 25.3337 1.496 25.3337 3.33333V8.66667C25.3337 9.03467 25.035 9.33333 24.667 9.33333Z" fill="#0F385A"/>
<path d="M22.0003 32.0026H10.0003C8.16166 32.0026 6.66699 30.5066 6.66699 28.6693V18.0026C6.66699 17.6346 6.96566 17.3359 7.33366 17.3359H24.667C25.035 17.3359 25.3337 17.6346 25.3337 18.0026V28.6693C25.3337 30.5066 23.839 32.0026 22.0003 32.0026ZM8.00033 18.6693V28.6693C8.00033 29.7719 8.89766 30.6693 10.0003 30.6693H22.0003C23.103 30.6693 24.0003 29.7719 24.0003 28.6693V18.6693H8.00033Z" fill="#0F385A"/>
</g>
<defs>
<clipPath id="clip0">
<rect width="32" height="32" fill="white"/>
</clipPath>
</defs>
</svg>
