<svg width="48" height="48" viewBox="0 0 48 48" fill="" xmlns="http://www.w3.org/2000/svg">
<path d="M48 24C48 10.7668 37.2332 0 24 0C10.7668 0 0 10.7668 0 24C0 30.9897 3.00567 37.2899 7.78996 41.6797L7.76727 41.6998L8.54574 42.3561C8.59636 42.3988 8.65135 42.4337 8.70196 42.4756C9.11564 42.8186 9.54415 43.1441 9.98051 43.4592C10.1219 43.5613 10.2633 43.6634 10.4073 43.7629C10.8733 44.0841 11.3516 44.3887 11.8403 44.6775C11.9468 44.7404 12.0541 44.8015 12.1615 44.8625C12.6964 45.1671 13.2428 45.4543 13.8022 45.7178C13.8432 45.737 13.8851 45.7545 13.9261 45.7737C15.7492 46.6211 17.6954 47.2433 19.7306 47.6108C19.7839 47.6204 19.8371 47.63 19.8912 47.6396C20.5231 47.7487 21.1619 47.8359 21.8086 47.8944C21.8871 47.9014 21.9657 47.9057 22.0451 47.9127C22.6892 47.966 23.3402 48 24 48C24.6537 48 25.2986 47.966 25.9392 47.9145C26.0204 47.9075 26.1015 47.9031 26.1827 47.8961C26.8241 47.8377 27.4577 47.753 28.0835 47.6457C28.1376 47.6361 28.1926 47.6265 28.2467 47.616C30.2513 47.2564 32.1696 46.6481 33.9692 45.8225C34.0355 45.792 34.1027 45.7632 34.169 45.7318C34.7075 45.4787 35.2337 45.2055 35.7495 44.9149C35.8778 44.8425 36.0052 44.7692 36.1327 44.6941C36.6022 44.4175 37.0639 44.1286 37.5124 43.8214C37.6739 43.7114 37.8319 43.5953 37.9916 43.4801C38.3747 43.2044 38.7508 42.9199 39.1165 42.6223C39.1977 42.5568 39.2849 42.5001 39.3644 42.4329L40.1629 41.7661L40.1393 41.746C44.9655 37.3545 48 31.0255 48 24ZM1.74545 24C1.74545 11.7286 11.7286 1.74545 24 1.74545C36.2714 1.74545 46.2545 11.7286 46.2545 24C46.2545 30.6127 43.3527 36.5577 38.7587 40.6368C38.5021 40.4596 38.2438 40.3008 37.9793 40.1681L30.59 36.4739C29.9267 36.1423 29.5148 35.4755 29.5148 34.7345V32.1539C29.6858 31.9427 29.8665 31.7036 30.0532 31.4409C31.0097 30.0899 31.7769 28.5871 32.3363 26.9699C33.442 26.4445 34.1559 25.3431 34.1559 24.0995V21.0057C34.1559 20.249 33.8784 19.5151 33.3818 18.9382V14.8652C33.4272 14.4122 33.5878 11.856 31.7385 9.74749C30.13 7.91127 27.5267 6.98182 24 6.98182C20.4733 6.98182 17.87 7.91127 16.2615 9.74662C14.4122 11.8551 14.5728 14.4113 14.6182 14.8643V18.9373C14.1225 19.5142 13.8441 20.2481 13.8441 21.0048V24.0986C13.8441 25.0595 14.2752 25.9558 15.0135 26.5606C15.7204 29.3297 17.1753 31.426 17.7129 32.1364V34.6621C17.7129 35.3743 17.3245 36.0288 16.6988 36.3709L9.79811 40.135C9.57818 40.2545 9.36 40.3942 9.14182 40.5504C4.60451 36.473 1.74545 30.5647 1.74545 24ZM37.0551 42.0061C36.7497 42.2278 36.439 42.4425 36.1239 42.6476C35.9791 42.7418 35.8351 42.8361 35.6876 42.9277C35.2756 43.1825 34.8567 43.4252 34.4291 43.6521C34.3348 43.7018 34.2397 43.7489 34.1446 43.7978C33.1619 44.3014 32.1452 44.7343 31.1005 45.086C31.0639 45.0982 31.0272 45.1113 30.9897 45.1235C30.4425 45.305 29.8883 45.4665 29.328 45.6052C29.3263 45.6052 29.3245 45.6061 29.3228 45.6061C28.7572 45.7457 28.1847 45.8618 27.6087 45.9569C27.593 45.9596 27.5773 45.9631 27.5616 45.9657C27.0196 46.0538 26.4733 46.1175 25.9252 46.1655C25.8284 46.1743 25.7315 46.1804 25.6337 46.1873C25.0918 46.2284 24.5472 46.2545 24 46.2545C23.4467 46.2545 22.8951 46.2275 22.3462 46.1865C22.2511 46.1795 22.1559 46.1734 22.0617 46.1647C21.5084 46.1158 20.9577 46.0503 20.4122 45.9613C20.3878 45.9569 20.3633 45.9526 20.3389 45.9482C19.1852 45.7553 18.0497 45.4717 16.944 45.1008C16.91 45.0895 16.8751 45.0772 16.841 45.0659C16.2921 44.8791 15.7492 44.6723 15.216 44.4436C15.2125 44.4419 15.2081 44.4401 15.2047 44.4384C14.7002 44.2211 14.2054 43.9802 13.7167 43.7263C13.6529 43.6931 13.5884 43.6617 13.5255 43.6276C13.0796 43.3894 12.6432 43.1319 12.2129 42.8631C12.0855 42.7828 11.959 42.7017 11.8333 42.6196C11.4371 42.3604 11.0461 42.0908 10.6656 41.8054C10.6263 41.7757 10.5888 41.7443 10.5495 41.7146C10.5775 41.6989 10.6054 41.6832 10.6333 41.6675L17.534 37.9034C18.7209 37.2559 19.4583 36.014 19.4583 34.6621L19.4575 31.5185L19.2567 31.2759C19.2375 31.2541 17.3507 28.9588 16.6377 25.8511L16.5583 25.5055L16.2607 25.3126C15.8409 25.0412 15.5895 24.5873 15.5895 24.0977V21.0039C15.5895 20.5981 15.7615 20.2202 16.0756 19.9366L16.3636 19.6765V14.8154L16.3558 14.7011C16.3532 14.6801 16.0957 12.5812 17.5741 10.896C18.8361 9.45775 20.9987 8.72727 24 8.72727C26.99 8.72727 29.1456 9.45164 30.4111 10.8794C31.8877 12.5472 31.646 14.6854 31.6442 14.7028L31.6364 19.6783L31.9244 19.9383C32.2377 20.2211 32.4105 20.5999 32.4105 21.0057V24.0995C32.4105 24.7217 31.9872 25.2864 31.3798 25.474L30.946 25.6076L30.8064 26.0396C30.2915 27.6393 29.5584 29.1168 28.6281 30.4311C28.3994 30.754 28.1769 31.0403 27.9857 31.2593L27.7693 31.5063V34.7345C27.7693 36.1414 28.5513 37.4068 29.8097 38.0352L37.1991 41.7295C37.2463 41.753 37.2925 41.7775 37.3388 41.8019C37.2454 41.8726 37.1494 41.938 37.0551 42.0061Z" fill="#009BC9"/>
</svg>
