<svg width="53" height="48" viewBox="0 0 53 48" fill="" xmlns="http://www.w3.org/2000/svg">
<path d="M50.35 8H38.8667V4.44444C38.8636 1.99089 36.8882 0.0030382 34.45 0H18.55C16.1118 0.0030382 14.1364 1.99089 14.1333 4.44444V8H2.65C1.18655 8 0 9.19401 0 10.6667V30.4531C0.00560709 31.5807 0.71167 32.5838 1.76667 32.9627V45.3333C1.76667 46.806 2.95321 48 4.41667 48H48.5833C50.0468 48 51.2333 46.806 51.2333 45.3333V32.9635C52.2883 32.5842 52.9948 31.5807 53 30.4531V10.6667C53 9.19401 51.8134 8 50.35 8ZM15.9 4.44444C15.9 2.97179 17.0865 1.77778 18.55 1.77778H34.45C35.9135 1.77778 37.1 2.97179 37.1 4.44444V8H35.3333V4.44444C35.3333 3.95356 34.9378 3.55556 34.45 3.55556H18.55C18.0622 3.55556 17.6667 3.95356 17.6667 4.44444V8H15.9V4.44444ZM33.5667 8H19.4333V5.33333H33.5667V8ZM49.4667 45.3333C49.4667 45.8242 49.0712 46.2222 48.5833 46.2222H4.41667C3.92885 46.2222 3.53333 45.8242 3.53333 45.3333V33.2682L22.9667 35.9653V38.2222C22.9667 39.6949 24.1532 40.8889 25.6167 40.8889H27.3833C28.8468 40.8889 30.0333 39.6949 30.0333 38.2222V35.9653L49.4667 33.2682V45.3333ZM28.2667 38.2222C28.2667 38.7131 27.8712 39.1111 27.3833 39.1111H25.6167C25.1288 39.1111 24.7333 38.7131 24.7333 38.2222V32.8889C24.7333 32.398 25.1288 32 25.6167 32H27.3833C27.8712 32 28.2667 32.398 28.2667 32.8889V38.2222ZM51.2333 30.4531C51.2338 30.8963 50.9098 31.2721 50.4738 31.3342L50.2288 31.3681L30.0333 34.1706V32.8889C30.0333 31.4162 28.8468 30.2222 27.3833 30.2222H25.6167C24.1532 30.2222 22.9667 31.4162 22.9667 32.8889V34.1706L2.52708 31.3342C2.09102 31.2726 1.76624 30.8967 1.76667 30.4531V10.6667C1.76667 10.1758 2.16218 9.77778 2.65 9.77778H50.35C50.8378 9.77778 51.2333 10.1758 51.2333 10.6667V30.4531Z" fill="#009BC9"/>
</svg>
