<svg viewBox="0 0 24 24" xmlns="http://www.w3.org/2000/svg">
    <path d="M23.7861 17.5952C23.7216 17.4926 23.3225 16.6695 21.4024 14.9777C19.3923 13.2061 19.6623 13.4938 22.0835 10.4305C23.5581 8.56493 24.1476 7.42565 23.9631 6.93861C23.7876 6.47435 22.703 6.59682 22.703 6.59682L19.0967 6.61676C19.0967 6.61676 18.8297 6.58258 18.6302 6.69508C18.4367 6.80616 18.3122 7.0625 18.3122 7.0625C18.3122 7.0625 17.7406 8.50655 16.9786 9.73412C15.372 12.3246 14.7284 12.4613 14.4659 12.3004C13.8554 11.9258 14.0084 10.7937 14.0084 9.99046C14.0084 7.47977 14.4089 6.43305 13.2268 6.16247C12.8338 6.07275 12.5458 6.01294 11.5422 6.00297C10.2551 5.99015 9.16451 6.00724 8.54796 6.29349C8.13693 6.48432 7.82041 6.91012 8.01392 6.93433C8.25244 6.96424 8.79248 7.07247 9.079 7.44274C9.44953 7.91981 9.43603 8.99359 9.43603 8.99359C9.43603 8.99359 9.64904 11.9486 8.93949 12.316C8.45196 12.5681 7.78441 12.054 6.3518 9.70279C5.61825 8.49942 5.06321 7.16789 5.06321 7.16789C5.06321 7.16789 4.9567 6.92009 4.76618 6.78765C4.53517 6.62673 4.21114 6.57546 4.21114 6.57546L0.781892 6.5954C0.781892 6.5954 0.267355 6.60964 0.0783406 6.82183C-0.0896717 7.01124 0.0648396 7.40144 0.0648396 7.40144C0.0648396 7.40144 2.75004 13.3642 5.78926 16.3705C8.57796 19.1261 11.7432 18.9452 11.7432 18.9452H13.1773C13.1773 18.9452 13.6108 18.8997 13.8314 18.6732C14.0354 18.4653 14.0279 18.0751 14.0279 18.0751C14.0279 18.0751 13.9994 16.248 14.8934 15.9788C15.774 15.7139 16.9051 17.7447 18.1037 18.5265C19.0097 19.1175 19.6983 18.988 19.6983 18.988L22.904 18.9452C22.904 18.9452 24.5811 18.847 23.7861 17.5952Z" />
</svg>