<svg viewBox="0 0 24 24" xmlns="http://www.w3.org/2000/svg">
    <path d="M23.5261 6.50362C23.2611 5.52463 22.4842 4.7529 21.499 4.48929C19.6992 4 12.4997 4 12.4997 4C12.4997 4 5.30058 4 3.50075 4.47074C2.53451 4.73407 1.73869 5.52477 1.47365 6.50362C1 8.29172 1 12 1 12C1 12 1 15.727 1.47365 17.4964C1.73897 18.4752 2.51555 19.247 3.50089 19.5106C5.31953 20 12.5 20 12.5 20C12.5 20 19.6992 20 21.499 19.5293C22.4844 19.2658 23.2611 18.4941 23.5264 17.5152C23.9999 15.727 23.9999 12.0188 23.9999 12.0188C23.9999 12.0188 24.0189 8.29172 23.5261 6.50362ZM10.2076 15.4258V8.57416L16.1943 12L10.2076 15.4258Z" />
</svg>