<svg width="80" height="80" viewBox="0 0 80 80" fill="none" xmlns="http://www.w3.org/2000/svg">
<path d="M72.4276 58.9436L68.0819 58.3098C67.6226 58.2417 67.2029 58.0111 66.8991 57.6598C66.5953 57.3086 66.4276 56.86 66.4264 56.3957V51.067C66.4297 50.6372 66.5747 50.2204 66.8389 49.8813C67.1032 49.5423 67.4719 49.2998 67.8879 49.1917L69.6598 48.739C70.1713 48.7097 70.6528 48.4882 71.0078 48.1188C71.3628 47.7494 71.565 47.2595 71.574 46.7472C71.574 45.5672 71.1052 44.4356 70.2709 43.6012C69.4365 42.7668 68.3048 42.2981 67.1248 42.2981H59.2225C58.0425 42.2981 56.9108 42.7668 56.0764 43.6012C55.2421 44.4356 54.7733 45.5672 54.7733 46.7472C54.7729 47.2692 54.9748 47.7709 55.3366 48.1472C55.6983 48.5234 56.1918 48.7448 56.7133 48.7649L58.4982 49.2175C58.9142 49.3257 59.283 49.5681 59.5472 49.9072C59.8114 50.2463 59.9564 50.663 59.9597 51.0929V56.4215C59.9585 56.8859 59.7908 57.3345 59.487 57.6857C59.1832 58.037 58.7635 58.2676 58.3042 58.3357L53.9714 58.9694C53.4577 59.0277 52.986 59.2809 52.6536 59.6768C52.3211 60.0728 52.1534 60.5812 52.1849 61.0972C52.2164 61.6133 52.4448 62.0975 52.823 62.45C53.2012 62.8026 53.7002 62.9965 54.2172 62.9918H72.156C72.6743 63.0002 73.176 62.8089 73.557 62.4574C73.9381 62.1059 74.1692 61.6212 74.2024 61.1039C74.2357 60.5866 74.0686 60.0763 73.7357 59.6789C73.4029 59.2815 72.9298 59.0274 72.4147 58.9694L72.4276 58.9436ZM72.1689 61.6725H54.2042C54.1091 61.6725 54.0149 61.6538 53.9271 61.6174C53.8392 61.581 53.7594 61.5277 53.6921 61.4604C53.6248 61.3931 53.5715 61.3133 53.5351 61.2254C53.4987 61.1376 53.48 61.0434 53.48 60.9483C53.4817 60.7697 53.5483 60.5978 53.6672 60.4646C53.7862 60.3314 53.9494 60.2459 54.1266 60.224L58.4723 59.5902C59.2391 59.476 59.9397 59.0911 60.4473 58.5051C60.955 57.9192 61.2362 57.1709 61.2401 56.3957V51.067C61.2418 50.3489 61.0034 49.6508 60.5628 49.0837C60.1223 48.5166 59.5048 48.113 58.8086 47.9371L56.9074 47.4715H56.7522C56.5601 47.4715 56.3758 47.3952 56.24 47.2594C56.1042 47.1235 56.0279 46.9393 56.0279 46.7472C56.0279 45.9103 56.3604 45.1076 56.9522 44.5158C57.544 43.9239 58.3467 43.5914 59.1837 43.5914H67.099C67.5167 43.5863 67.9312 43.6642 68.3186 43.8204C68.7059 43.9767 69.0584 44.2084 69.3556 44.5019C69.6527 44.7955 69.8887 45.1451 70.0497 45.5305C70.2107 45.916 70.2936 46.3295 70.2936 46.7472C70.2936 46.9393 70.2173 47.1235 70.0814 47.2594C69.9456 47.3952 69.7614 47.4715 69.5693 47.4715L67.5517 47.963C66.8554 48.1389 66.2379 48.5425 65.7974 49.1096C65.3568 49.6767 65.1185 50.3748 65.1201 51.0929V56.4215C65.1084 57.2079 65.3826 57.9717 65.8916 58.5712C66.4007 59.1707 67.1101 59.5649 67.8879 59.6808L72.2336 60.3145C72.4085 60.3393 72.5686 60.4261 72.685 60.559C72.8013 60.6919 72.866 60.8622 72.8673 61.0388C72.8455 61.2126 72.7613 61.3726 72.6305 61.4891C72.4997 61.6056 72.3312 61.6708 72.156 61.6725H72.1689Z" fill="#0499C5"/>
<path d="M66.4135 37.6937C66.3876 37.7779 66.3876 37.8681 66.4135 37.9523C66.4561 38.0533 66.5257 38.1405 66.6147 38.2044C66.7037 38.2683 66.8086 38.3064 66.9179 38.3145H67.0602C67.1881 38.3145 67.3131 38.2765 67.4194 38.2055C67.5258 38.1344 67.6087 38.0334 67.6576 37.9153C67.7066 37.7971 67.7194 37.6671 67.6944 37.5416C67.6695 37.4162 67.6079 37.301 67.5174 37.2105C67.427 37.1201 67.3118 37.0585 67.1863 37.0335C67.0609 37.0086 66.9309 37.0214 66.8127 37.0703C66.6945 37.1193 66.5935 37.2022 66.5225 37.3085C66.4514 37.4149 66.4135 37.5399 66.4135 37.6678V37.6937Z" fill="#0499C5"/>
<path d="M62.5339 37.7455C62.891 37.7455 63.1806 37.456 63.1806 37.0988C63.1806 36.7417 62.891 36.4521 62.5339 36.4521C62.1767 36.4521 61.8872 36.7417 61.8872 37.0988C61.8872 37.456 62.1767 37.7455 62.5339 37.7455Z" fill="#0499C5"/>
<path d="M56.0671 37.7455C56.4242 37.7455 56.7138 37.456 56.7138 37.0988C56.7138 36.7417 56.4242 36.4521 56.0671 36.4521C55.7099 36.4521 55.4204 36.7417 55.4204 37.0988C55.4204 37.456 55.7099 37.7455 56.0671 37.7455Z" fill="#0499C5"/>
<path d="M56.0671 29.9854C56.4242 29.9854 56.7138 29.6958 56.7138 29.3387C56.7138 28.9815 56.4242 28.692 56.0671 28.692C55.7099 28.692 55.4204 28.9815 55.4204 29.3387C55.4204 29.6958 55.7099 29.9854 56.0671 29.9854Z" fill="#0499C5"/>
<path d="M62.5339 29.9854C62.891 29.9854 63.1806 29.6958 63.1806 29.3387C63.1806 28.9815 62.891 28.692 62.5339 28.692C62.1767 28.692 61.8872 28.9815 61.8872 29.3387C61.8872 29.6958 62.1767 29.9854 62.5339 29.9854Z" fill="#0499C5"/>
<path d="M75.467 53.2656C75.8241 53.2656 76.1137 52.9761 76.1137 52.619C76.1137 52.2618 75.8241 51.9723 75.467 51.9723C75.1098 51.9723 74.8203 52.2618 74.8203 52.619C74.8203 52.9761 75.1098 53.2656 75.467 53.2656Z" fill="#0499C5"/>
<path d="M77.1356 49.3339H76.1139C75.9289 46.9554 75.2598 44.6398 74.1478 42.5292C73.0358 40.4186 71.5042 38.5574 69.6471 37.0599V29.0799L70.6689 28.0452L76.3079 33.6196C76.1432 33.9661 76.0848 34.3536 76.1403 34.7332C76.1958 35.1128 76.3626 35.4674 76.6196 35.7522C76.8765 36.0371 77.2122 36.2393 77.5841 36.3334C77.956 36.4275 78.3475 36.4092 78.709 36.2809C79.0705 36.1525 79.3859 35.9199 79.6152 35.6124C79.8445 35.3048 79.9775 34.9362 79.9974 34.5531C80.0173 34.17 79.9231 33.7896 79.7268 33.46C79.5305 33.1304 79.2409 32.8664 78.8946 32.7013C78.6333 32.5798 78.3486 32.5169 78.0604 32.5169C77.7722 32.5169 77.4875 32.5798 77.2262 32.7013L71.5871 27.0752L72.0398 26.6226C72.3825 26.2548 72.5691 25.7684 72.5602 25.2658C72.5513 24.7632 72.3477 24.2836 71.9923 23.9282C71.6368 23.5727 71.1573 23.3691 70.6547 23.3603C70.1521 23.3514 69.6657 23.538 69.2979 23.8806L68.8452 24.3333L67.8493 23.3374C68.0141 22.991 68.0724 22.6035 68.0169 22.2239C67.9614 21.8443 67.7947 21.4896 67.5377 21.2048C67.2807 20.92 66.945 20.7177 66.5731 20.6236C66.2012 20.5295 65.8098 20.5478 65.4482 20.6762C65.0867 20.8045 64.7714 21.0371 64.542 21.3447C64.3127 21.6522 64.1797 22.0208 64.1598 22.4039C64.14 22.7871 64.2341 23.1675 64.4304 23.4971C64.6267 23.8267 64.9163 24.0907 65.2626 24.2557C65.524 24.3772 65.8087 24.4401 66.0969 24.4401C66.385 24.4401 66.6697 24.3772 66.9311 24.2557L67.927 25.2516L67.1251 26.0535H54.1915V20.2334C54.1915 19.3758 53.8509 18.5534 53.2445 17.947C52.6381 17.3407 51.8157 17 50.9582 17C50.1006 17 49.2782 17.3407 48.6718 17.947C48.0654 18.5534 47.7248 19.3758 47.7248 20.2334V25.562L40.3268 28.8083L39.6025 29.1317V29.3127L39.4473 29.9335L39.2274 30.7354L47.6601 27.0752V36.5038H37.3133C37.4149 36.6054 37.5099 36.7134 37.5978 36.8271C37.691 36.9291 37.7775 37.0371 37.8565 37.1505C37.9329 37.2533 38.002 37.3613 38.0634 37.4738C38.128 37.5749 38.1801 37.6835 38.2186 37.7971H47.6601V39.0905H38.6066C38.6196 39.3059 38.6196 39.5218 38.6066 39.7372C38.6325 39.9519 38.6325 40.1691 38.6066 40.3838H47.6601V48.144C47.7585 48.3366 47.8324 48.5408 47.88 48.7518C47.9429 48.963 47.9862 49.1794 48.0093 49.3985C48.0634 50.0729 47.9432 50.7499 47.6601 51.3644V53.2139H45.7718C45.5493 53.3226 45.3149 53.4051 45.0734 53.4597C44.7688 53.536 44.4561 53.5751 44.1422 53.5761H43.78C43.3313 53.5393 42.8929 53.421 42.4867 53.2268H38.6066V49.3468H40.094L38.8006 48.0534H33.4332V44.1734C33.254 44.1526 33.0767 44.118 32.9029 44.0699H32.7865C32.5641 44.0074 32.3477 43.9252 32.1398 43.8242V44.2639H27.1604L24.7419 44.9106L23.7718 45.1693L23.6813 45.3503L23.552 45.5443H32.114V54.5978H25.1816L22.5949 53.3044H7.56612C7.05658 53.3044 6.55204 53.2041 6.08129 53.0091C5.61053 52.8141 5.1828 52.5283 4.8225 52.168C4.46221 51.8077 4.1764 51.38 3.98141 50.9092C3.78642 50.4385 3.68606 49.9339 3.68606 49.4244C3.68606 48.9148 3.78642 48.4103 3.98141 47.9396C4.1764 47.4688 4.46221 47.0411 4.8225 46.6808C5.1828 46.3205 5.61053 46.0347 6.08129 45.8397C6.55204 45.6447 7.05658 45.5443 7.56612 45.5443H17.1111C16.9671 45.3448 16.8497 45.1275 16.7619 44.8976C16.6924 44.7432 16.6362 44.5831 16.5937 44.4191V44.251H14.007V42.9576H16.4644C16.4918 42.7381 16.5395 42.5217 16.6067 42.3109C16.6636 42.0867 16.746 41.8697 16.8524 41.6643H10.1528C9.80981 41.6643 9.48084 41.528 9.23829 41.2854C8.99574 41.0429 8.85948 40.7139 8.85948 40.3709C8.85948 40.0279 8.99574 39.6989 9.23829 39.4564C9.48084 39.2138 9.80981 39.0776 10.1528 39.0776H20.4997V39.5432C20.7176 39.5426 20.9347 39.5687 21.1463 39.6208C21.2799 39.6369 21.4105 39.6717 21.5343 39.7242C21.7668 39.7866 21.989 39.8825 22.194 40.0088H22.2845L22.4526 40.1122L24.0564 39.6854L25.6731 39.194L26.4491 38.987H21.793V37.6937H29.9929C30.0975 37.4669 30.2231 37.2504 30.368 37.047C30.5237 36.8114 30.706 36.5944 30.9112 36.4003H28.3245L28.6349 35.2622C29.0002 35.1976 29.3399 35.0309 29.6145 34.7815C29.8891 34.532 30.0876 34.2099 30.1869 33.8524L30.3938 33.0893L30.2386 32.8436C30.1377 32.6934 30.0695 32.5237 30.0383 32.3455C30.0071 32.1672 30.0137 31.9844 30.0575 31.8089C30.1427 31.5051 30.3358 31.243 30.6008 31.0717L31.0922 30.7484L30.8206 30.231C30.6742 29.9481 30.6374 29.6211 30.7172 29.3127C30.819 29.0309 31.0156 28.7932 31.2733 28.6402L31.7518 28.3298L31.4932 27.8124C31.3468 27.5295 31.3099 27.2025 31.3897 26.8942C31.4334 26.7151 31.5149 26.5475 31.6286 26.4025C31.7424 26.2575 31.8858 26.1385 32.0493 26.0535L32.308 25.9241L32.7219 24.4885C32.8535 23.9949 32.7837 23.4692 32.5279 23.027C32.403 22.8044 32.2344 22.6094 32.0321 22.4538C31.8298 22.2982 31.5981 22.1852 31.3509 22.1217L28.8547 21.4491C28.3575 21.3184 27.8287 21.389 27.3832 21.6456C26.9376 21.9023 26.6113 22.3243 26.475 22.8201L23.9659 32.2486C23.9142 32.4917 23.9142 32.7428 23.9659 32.9859L23.0346 36.465H20.4479V37.7583H10.1011C9.41506 37.7583 8.75712 38.0309 8.27202 38.516C7.78691 39.0011 7.51439 39.659 7.51439 40.345C7.51439 41.0311 7.78691 41.689 8.27202 42.1741C8.75712 42.6592 9.41506 42.9317 10.1011 42.9317H12.6878V44.2251H7.51439C6.14231 44.2251 4.82643 44.7702 3.85623 45.7404C2.88603 46.7106 2.34097 48.0264 2.34097 49.3985C2.34097 50.7706 2.88603 52.0865 3.85623 53.0567C4.82643 54.0269 6.14231 54.5719 7.51439 54.5719H22.2845L24.8712 55.8653H33.4332V54.5719H43.78V57.1586H3.31099L0.905348 54.753L0 55.6584L2.76778 58.3873H45.0734V54.5073H47.6601V55.1539C47.6601 56.0115 48.0008 56.8339 48.6071 57.4403C49.2135 58.0467 50.0359 58.3873 50.8935 58.3873C51.751 58.3873 52.5735 58.0467 53.1798 57.4403C53.7862 56.8339 54.1269 56.0115 54.1269 55.1539V40.2804H69.3238C70.1376 41.1033 70.8457 42.0244 71.4319 43.0223C72.6061 44.9372 73.3231 47.0969 73.5272 49.3339H71.2121C70.454 49.3339 69.727 49.635 69.1909 50.171C68.6549 50.7071 68.3538 51.4341 68.3538 52.1922V53.2139H69.6471V54.5073H68.3538V55.4773C68.3469 55.857 68.4157 56.2342 68.5563 56.587C68.6969 56.9398 68.9063 57.261 69.1724 57.5319C69.4385 57.8029 69.756 58.018 70.1062 58.1649C70.4564 58.3118 70.8323 58.3874 71.2121 58.3873H73.7988C75.4319 58.384 76.9979 57.7373 78.1575 56.5874C79.3171 55.4375 79.9769 53.8769 79.9939 52.2439C80.0008 51.8642 79.932 51.487 79.7914 51.1342C79.6508 50.7814 79.4414 50.4602 79.1753 50.1892C78.9092 49.9183 78.5917 49.7031 78.2415 49.5563C77.8913 49.4094 77.5154 49.3338 77.1356 49.3339ZM25.2204 32.5202L25.2851 32.2874L27.7295 23.1434C27.7643 23.0056 27.8445 22.8835 27.9571 22.7967C28.0697 22.7099 28.2082 22.6635 28.3503 22.6649H28.5185L31.0405 23.3762C31.1241 23.3961 31.2022 23.4343 31.2693 23.4879C31.3364 23.5416 31.3907 23.6095 31.4285 23.6866C31.4635 23.7638 31.4816 23.8476 31.4816 23.9324C31.4816 24.0171 31.4635 24.1009 31.4285 24.1781L31.2086 25.0317C30.6837 25.3766 30.3021 25.9006 30.1351 26.5062C30.019 26.9295 30.019 27.3762 30.1351 27.7995C29.8123 28.1215 29.5803 28.523 29.4626 28.9635C29.359 29.3884 29.359 29.832 29.4626 30.2569C29.1372 30.5717 28.9045 30.9699 28.7901 31.408C28.6291 32.0135 28.6935 32.6569 28.9711 33.2187L28.9065 33.4515C28.8734 33.5927 28.7919 33.7179 28.6761 33.8053C28.5603 33.8927 28.4176 33.9368 28.2727 33.93H28.1175L25.6343 33.3609C25.5429 33.3347 25.4585 33.2886 25.3869 33.226C25.3154 33.1635 25.2585 33.0859 25.2204 32.9988C25.1889 32.9298 25.1727 32.8548 25.1727 32.7789C25.1727 32.7031 25.1889 32.6281 25.2204 32.559V32.5202ZM24.8841 34.3697C25.0236 34.4583 25.1765 34.5238 25.3368 34.5637L27.3544 35.107L27.0182 36.4003H24.4315L24.8841 34.3697ZM37.3133 53.2139H33.4332V49.3339H37.3133V53.2139ZM52.8335 55.1539C52.8335 55.6685 52.6291 56.1619 52.2653 56.5258C51.9015 56.8896 51.408 57.094 50.8935 57.094C50.379 57.094 49.8855 56.8896 49.5217 56.5258C49.1578 56.1619 48.9534 55.6685 48.9534 55.1539V20.2334C48.9534 19.7189 49.1578 19.2254 49.5217 18.8616C49.8855 18.4977 50.379 18.2934 50.8935 18.2934C51.408 18.2934 51.9015 18.4977 52.2653 18.8616C52.6291 19.2254 52.8335 19.7189 52.8335 20.2334V55.1539ZM64.4737 38.987H54.1269V27.3468H64.4737V38.987ZM68.3538 38.987H65.7671V27.3468H67.4355L68.3538 28.3168V38.987ZM68.4702 26.545L70.2162 24.7989C70.2763 24.7383 70.3478 24.6902 70.4266 24.6574C70.5054 24.6245 70.59 24.6076 70.6753 24.6076C70.7607 24.6076 70.8452 24.6245 70.924 24.6574C71.0028 24.6902 71.0744 24.7383 71.1345 24.7989C71.253 24.9198 71.3193 25.0823 71.3193 25.2516C71.3193 25.4209 71.253 25.5834 71.1345 25.7043L70.6818 26.1699L69.3884 27.4632L68.4702 26.545ZM73.7988 57.094H71.2121C70.8438 57.0961 70.4868 56.9671 70.2048 56.7302C69.9229 56.4932 69.7344 56.1638 69.673 55.8006H70.9663V51.9206H69.673C69.7318 51.5703 69.909 51.2508 70.175 51.0154C70.441 50.78 70.7796 50.643 71.1345 50.6272H77.058C77.2636 50.6238 77.4677 50.6609 77.6589 50.7364C77.8501 50.8119 78.0245 50.9243 78.1723 51.0672C78.32 51.2101 78.4381 51.3808 78.5199 51.5693C78.6017 51.7579 78.6455 51.9608 78.6489 52.1663C78.6558 53.4619 78.1495 54.7075 77.2406 55.6309C76.3318 56.5543 75.0943 57.0803 73.7988 57.094Z" fill="#0499C5"/>
<path d="M45.0736 44.8589H43.7803V45.8806H43.9743C44.3575 45.8544 44.7424 45.8938 45.1124 45.997L45.0736 44.8589Z" fill="#0499C5"/>
<path d="M4.97949 49.3339C4.97949 49.8455 5.1312 50.3456 5.41543 50.771C5.69966 51.1964 6.10365 51.5279 6.57631 51.7237C7.04897 51.9195 7.56907 51.9707 8.07084 51.8709C8.57261 51.7711 9.03352 51.5247 9.39528 51.163C9.75704 50.8012 10.0034 50.3403 10.1032 49.8385C10.203 49.3368 10.1518 48.8167 9.95601 48.344C9.76023 47.8714 9.42868 47.4674 9.0033 47.1831C8.57792 46.8989 8.0778 46.7472 7.5662 46.7472C6.88016 46.7472 6.22222 47.0197 5.73712 47.5048C5.25202 47.9899 4.97949 48.6479 4.97949 49.3339ZM8.85955 49.3339C8.85955 49.5897 8.7837 49.8398 8.64158 50.0524C8.49947 50.2651 8.29748 50.4309 8.06115 50.5288C7.82482 50.6267 7.56477 50.6523 7.31388 50.6024C7.06299 50.5525 6.83254 50.4293 6.65166 50.2484C6.47078 50.0676 6.3476 49.8371 6.2977 49.5862C6.24779 49.3353 6.27341 49.0753 6.3713 48.839C6.46919 48.6026 6.63496 48.4006 6.84765 48.2585C7.06034 48.1164 7.3104 48.0405 7.5662 48.0405C7.90922 48.0405 8.23819 48.1768 8.48074 48.4194C8.72329 48.6619 8.85955 48.9909 8.85955 49.3339Z" fill="#0499C5"/>
<path d="M32.1396 37.0987C31.944 37.2555 31.7662 37.4333 31.6094 37.6289C31.3536 37.9553 31.1646 38.3289 31.0532 38.7283V38.987C31.0055 39.1991 30.9838 39.4162 30.9886 39.6336V39.8276L22.0903 42.2203C21.8944 41.9489 21.6374 41.7274 21.3401 41.5737C20.9385 41.3766 20.4794 41.3307 20.0468 41.4443C19.9299 41.4739 19.817 41.5173 19.7105 41.5737C19.4016 41.715 19.1376 41.9388 18.9474 42.2203C18.8261 42.4047 18.7426 42.6113 18.7017 42.8282C18.6112 43.1408 18.6112 43.4727 18.7017 43.7853C18.7313 43.9021 18.7747 44.015 18.831 44.1216C18.949 44.3684 19.1163 44.5885 19.3225 44.7682C19.4394 44.862 19.565 44.9443 19.6976 45.014C20.1199 45.2337 20.6101 45.2846 21.0685 45.1563C21.3396 45.0822 21.5912 44.9498 21.8057 44.7682C22.0159 44.589 22.1874 44.369 22.3102 44.1216C22.4138 43.9068 22.4753 43.6741 22.4912 43.4361L24.7417 42.8282L27.1602 42.1815L29.5659 41.5349L30.1608 41.3797L31.4542 41.0305C31.4664 41.0958 31.4929 41.1576 31.5318 41.2115C31.7574 41.5902 32.0564 41.92 32.4112 42.1815C32.602 42.3383 32.8157 42.4649 33.045 42.5566V42.6213H33.1226L33.4977 42.7506H33.8727C34.0277 42.7636 34.1834 42.7636 34.3383 42.7506C34.9054 42.7532 35.4631 42.6059 35.955 42.3238L36.1232 42.2203L37.0415 43.1386L41.2449 47.342L41.8269 47.924L42.6546 48.7518C42.576 48.8967 42.5235 49.0543 42.4994 49.2174C42.4341 49.5275 42.4485 49.8492 42.5413 50.1522C42.634 50.4553 42.802 50.7299 43.0297 50.9505C43.1958 51.2756 43.4576 51.5419 43.7798 51.7136C43.8656 51.7265 43.9528 51.7265 44.0385 51.7136C44.3096 51.7306 44.5812 51.6898 44.8353 51.5938C45.0894 51.4977 45.3201 51.3488 45.5122 51.1567C45.7043 50.9646 45.8533 50.7339 45.9493 50.4798C46.0453 50.2257 46.0861 49.9541 46.0691 49.683C46.082 49.5973 46.082 49.5101 46.0691 49.4243C46.034 49.1938 45.9502 48.9733 45.8233 48.7776C45.6628 48.5133 45.441 48.2915 45.1767 48.131H45.099C44.7089 47.903 44.2475 47.8292 43.8057 47.924C43.6426 47.9481 43.485 48.0007 43.3401 48.0792L41.9303 46.6695L37.7011 42.4531L36.7698 41.5219C36.9729 41.2415 37.122 40.9257 37.2096 40.5907V40.2803C37.2573 40.0682 37.279 39.851 37.2743 39.6336C37.2872 39.4787 37.2872 39.323 37.2743 39.168C37.2872 39.1084 37.2872 39.0466 37.2743 38.987C37.238 38.7962 37.1816 38.6097 37.1061 38.4308V38.3403H37.0415C37.003 38.2266 36.9508 38.1181 36.8863 38.0169C36.8205 37.9042 36.747 37.7962 36.6664 37.6936C36.5786 37.5757 36.4835 37.4634 36.3818 37.3573C36.266 37.2432 36.1406 37.1393 36.0068 37.0469C35.9595 36.9968 35.9022 36.9571 35.8386 36.9305C35.7412 36.8567 35.6373 36.7918 35.5282 36.7365L35.6188 36.4002L35.8645 35.482L36.731 32.1968L37.3907 29.7136L37.908 27.7736C38.366 27.7453 38.7989 27.5545 39.1287 27.2355C39.4586 26.9165 39.6638 26.4903 39.7075 26.0335C39.7511 25.5767 39.6304 25.1193 39.3669 24.7436C39.1034 24.3679 38.7145 24.0986 38.2701 23.984C38.0195 23.9164 37.7579 23.8997 37.5007 23.935C37.2436 23.9703 36.9961 24.0568 36.773 24.1895C36.5499 24.3222 36.3556 24.4982 36.2018 24.7073C36.048 24.9164 35.9377 25.1543 35.8774 25.4067C35.7731 25.7933 35.7917 26.2028 35.9308 26.5783C36.0699 26.9538 36.3225 27.2766 36.6534 27.502L36.1361 29.4291L34.597 35.1069L34.2607 36.4002H34.0538C33.4894 36.4002 32.9355 36.5521 32.45 36.84L32.1396 37.0987ZM33.1097 38.004C33.3579 37.8585 33.6372 37.7743 33.9245 37.7583H34.1961L34.5841 37.8229L34.8557 37.9264H34.9204L35.1402 38.0687C35.2284 38.1141 35.3073 38.1755 35.373 38.2497L35.4894 38.3661C35.5813 38.4629 35.6596 38.5717 35.7222 38.6895C35.7827 38.7911 35.8304 38.8996 35.8645 39.0128C35.9416 39.2197 35.981 39.4387 35.9809 39.6595C35.9785 39.8295 35.9568 39.9988 35.9162 40.1639C35.9289 40.2105 35.9289 40.2596 35.9162 40.3062C35.904 40.3715 35.8775 40.4333 35.8386 40.4872C35.8005 40.5675 35.7573 40.6453 35.7093 40.7201C35.5721 40.9481 35.3812 41.139 35.1532 41.2762H35.0626L34.9204 41.3409C34.5188 41.5379 34.0597 41.5838 33.627 41.4702C33.1792 41.3594 32.7907 41.0818 32.5406 40.6942C32.5033 40.6565 32.4726 40.6128 32.45 40.5648V40.4743C32.4143 40.399 32.3841 40.3212 32.3595 40.2415C32.2948 40.0714 32.2556 39.8928 32.2431 39.7112V39.4526C32.2302 39.3322 32.2302 39.2108 32.2431 39.0904C32.2639 39.0487 32.2951 39.0131 32.3336 38.987C32.4782 38.5835 32.7508 38.2383 33.1097 38.004Z" fill="#0499C5"/>
<path d="M50.8933 50.679C51.2504 50.679 51.5399 50.3894 51.5399 50.0323C51.5399 49.6751 51.2504 49.3856 50.8933 49.3856C50.5361 49.3856 50.2466 49.6751 50.2466 50.0323C50.2466 50.3894 50.5361 50.679 50.8933 50.679Z" fill="#0499C5"/>
<path d="M50.8933 53.2656C51.2504 53.2656 51.5399 52.9761 51.5399 52.619C51.5399 52.2618 51.2504 51.9723 50.8933 51.9723C50.5361 51.9723 50.2466 52.2618 50.2466 52.619C50.2466 52.9761 50.5361 53.2656 50.8933 53.2656Z" fill="#0499C5"/>
</svg>
