<svg width="80" height="80" viewBox="0 0 80 80" fill="none" xmlns="http://www.w3.org/2000/svg">
<path d="M47.4249 41.925L59.4874 31.075L68.0749 17.1125C71.3 19.2728 73.6452 22.5163 74.6861 26.2558C75.7271 29.9954 75.395 33.9841 73.7499 37.5C73.5499 37.925 73.3124 38.3375 73.0749 38.75V41C74.5001 39.0958 75.5201 36.9198 76.0719 34.6063C76.6238 32.2927 76.6958 29.8906 76.2835 27.5481C75.8712 25.2056 74.9834 22.9725 73.6748 20.9863C72.3662 19.0002 70.6646 17.3032 68.6749 16L69.9999 13.8875L69.4749 13.5625C65.934 11.4028 61.8093 10.3974 57.6717 10.6854C53.5342 10.9734 49.5885 12.5406 46.381 15.1701C43.1735 17.7995 40.8628 21.3611 39.7688 25.3618C38.6748 29.3625 38.8517 33.6043 40.2749 37.5C41.1538 39.8996 42.4816 42.1098 44.1874 44.0125L44.6124 44.4875L46.4999 42.75C48.1303 44.4435 50.0852 45.7911 52.2479 46.7124C54.4105 47.6338 56.7367 48.1099 59.0874 48.1125C59.2634 47.6637 59.5034 47.2427 59.7999 46.8625C57.5059 46.9663 55.216 46.5809 53.0824 45.7317C50.9488 44.8826 49.0203 43.5892 47.4249 41.9375V41.925ZM44.7124 42.675C43.2986 41 42.1939 39.0869 41.4499 37.025C40.1399 33.4206 39.9667 29.5011 40.9537 25.7952C41.9406 22.0893 44.0403 18.7751 46.9694 16.2997C49.8986 13.8242 53.5164 12.3065 57.335 11.9511C61.1536 11.5958 64.9893 12.42 68.3249 14.3125L58.5874 30.2125L44.7124 42.675Z" fill="#0499C5"/>
<path d="M49.3499 36.8125L36.4374 41.5125L33.1499 32.5C33.0235 32.1611 32.9721 31.7987 32.9993 31.438C33.0265 31.0772 33.1317 30.7267 33.3076 30.4106C33.4835 30.0944 33.7259 29.8203 34.0181 29.6069C34.3102 29.3936 34.6452 29.2463 34.9999 29.175L43.8374 27.8625C44.4257 27.7388 45.0389 27.8311 45.5646 28.1227C46.0903 28.4142 46.4934 28.8855 46.6999 29.45L49.3499 36.8125Z" fill="white"/>
<path d="M36.0626 42.3125L32.5626 32.6875C32.4076 32.2675 32.345 31.8189 32.3792 31.3724C32.4134 30.926 32.5435 30.4922 32.7606 30.1006C32.9778 29.709 33.2769 29.3689 33.6374 29.1035C33.998 28.838 34.4116 28.6535 34.8501 28.5625L43.7501 27.25C44.4801 27.1008 45.2395 27.2196 45.8891 27.5846C46.5388 27.9496 47.0352 28.5364 47.2876 29.2375L50.1751 37.1875L36.0626 42.3125ZM44.3251 28.4375C44.1962 28.4252 44.0664 28.4252 43.9376 28.4375L35.0751 29.7625C34.8135 29.8161 34.5665 29.9254 34.3508 30.0828C34.1351 30.2402 33.9558 30.4422 33.8251 30.675C33.6968 30.9102 33.6194 31.1697 33.5979 31.4367C33.5764 31.7038 33.6112 31.9723 33.7001 32.225L36.7876 40.675L48.5251 36.4L46.0251 29.625C45.8899 29.2818 45.6565 28.9861 45.3542 28.7749C45.0518 28.5637 44.6938 28.4463 44.3251 28.4375Z" fill="#0499C5"/>
<path d="M32.4998 36.25L31.2498 32.7375L30.0748 33.1625L31.3248 36.6875L33.7498 43.175L14.9123 50L13.7373 50.425L10.2498 40.8625C9.9115 41.201 9.6326 41.594 9.4248 42.025L13.0373 51.95L15.3373 51.25L35.3373 43.9875L32.4998 36.25Z" fill="#0499C5"/>
<path d="M31.25 32.7625L30.075 33.1875L30 32.8625C29.8673 32.4978 29.626 32.1825 29.3087 31.959C28.9913 31.7355 28.6132 31.6146 28.225 31.6125H27.8625L13.1875 34.2625C12.5731 34.3868 11.9926 34.6421 11.4857 35.0109C10.9788 35.3798 10.5573 35.8536 10.25 36.4C9.95703 36.9485 9.78328 37.5528 9.7402 38.1733C9.69711 38.7937 9.78566 39.4162 10 40L10.3 40.825C9.96174 41.1634 9.68284 41.5564 9.47504 41.9875L8.75004 40.4625C8.47308 39.7023 8.36335 38.8914 8.42833 38.085C8.49332 37.2786 8.73149 36.4957 9.12661 35.7897C9.52172 35.0837 10.0645 34.4713 10.7178 33.9941C11.3712 33.517 12.1198 33.1865 12.9125 33.025L27.55 30.4375C28.2965 30.2875 29.072 30.414 29.732 30.7935C30.3921 31.1729 30.8916 31.7795 31.1375 32.5L31.25 32.7625Z" fill="#0499C5"/>
<path d="M21.3751 40.35L13.1501 43.3375L9.0876 44.825C9.12418 45.0294 9.17855 45.2301 9.2501 45.425L9.4876 46.0875V45.9875L12.9376 44.7375L20.5751 41.9625L24.4751 52.5L16.8376 55.275L13.3126 56.525L13.5251 57.1C13.5998 57.2973 13.6875 57.4893 13.7876 57.675L17.8376 56.25L26.0626 53.25L21.3751 40.35ZM21.3751 40.35L13.1501 43.3375L9.0876 44.825C9.12418 45.0294 9.17855 45.2301 9.2501 45.425L9.4876 46.0875V45.9875L12.9376 44.7375L20.5751 41.9625L24.4751 52.5L16.8376 55.275L13.3126 56.525L13.5251 57.1C13.5998 57.2973 13.6875 57.4893 13.7876 57.675L17.8376 56.25L26.0626 53.25L21.3751 40.35ZM28.8751 53.5375L28.4126 52.2875L23.7501 39.4875L23.3376 38.3625C23.2851 38.197 23.1987 38.0442 23.084 37.9139C22.9692 37.7836 22.8285 37.6787 22.6709 37.6058C22.5133 37.5329 22.3423 37.4936 22.1687 37.4904C21.9951 37.4873 21.8227 37.5204 21.6626 37.5875L9.4251 42.025C9.21211 42.4775 9.08092 42.9642 9.0376 43.4625L22.0751 38.75L22.5001 40L27.2001 52.9125L27.6251 54.1L14.5751 58.75C14.9376 59.1122 15.3607 59.4084 15.8251 59.625L28.0501 55.175C28.2121 55.1233 28.3619 55.0391 28.4903 54.9275C28.6187 54.8158 28.7229 54.6792 28.7966 54.5259C28.8703 54.3726 28.912 54.2059 28.919 54.0359C28.9261 53.866 28.8984 53.6964 28.8376 53.5375H28.8751ZM17.8501 56.25L26.0751 53.25L21.3751 40.35L13.1501 43.3375L9.0876 44.825C9.12418 45.0294 9.17855 45.2301 9.2501 45.425L9.4876 46.0875V45.9875L12.9376 44.7375L20.5751 41.9625L24.4751 52.5L16.8376 55.275L13.3126 56.525L13.5251 57.1C13.5998 57.2973 13.6875 57.4893 13.7876 57.675L17.8376 56.25H17.8501ZM21.3751 40.35L13.1501 43.3375L9.0876 44.825C9.12418 45.0294 9.17855 45.2301 9.2501 45.425L9.4876 46.0875V45.9875L12.9376 44.7375L20.5751 41.9625L24.4751 52.5L16.8376 55.275L13.3126 56.525L13.5251 57.1C13.5998 57.2973 13.6875 57.4893 13.7876 57.675L17.8376 56.25L26.0626 53.25L21.3751 40.35ZM21.3751 40.35L13.1501 43.3375L9.0876 44.825C9.12418 45.0294 9.17855 45.2301 9.2501 45.425L9.4876 46.0875V45.9875L12.9376 44.7375L20.5751 41.9625L24.4751 52.5L16.8376 55.275L13.3126 56.525L13.5251 57.1C13.5998 57.2973 13.6875 57.4893 13.7876 57.675L17.8376 56.25L26.0626 53.25L21.3751 40.35ZM21.3751 40.35L13.1501 43.3375L9.0876 44.825C9.12418 45.0294 9.17855 45.2301 9.2501 45.425L9.4876 46.0875V45.9875L12.9376 44.7375L20.5751 41.9625L24.4751 52.5L16.8376 55.275L13.3126 56.525L13.5251 57.1C13.5998 57.2973 13.6875 57.4893 13.7876 57.675L17.8376 56.25L26.0626 53.25L21.3751 40.35Z" fill="#0499C5"/>
<path d="M13.5251 57.1624L13.3126 56.5875L6.2501 59.15C6.09256 59.2067 5.91902 59.1991 5.76699 59.129C5.61496 59.0588 5.49664 58.9316 5.4376 58.775L4.6126 56.4874L5.7376 54.0749C6.23008 54.2431 6.76744 54.2223 7.2455 54.0168C7.72357 53.8112 8.1083 53.4355 8.3251 52.9624L9.2001 51.1C9.3084 50.845 9.36421 50.5707 9.36421 50.2937C9.36421 50.0167 9.3084 49.7425 9.2001 49.4875C9.04788 49.0352 8.73706 48.6533 8.3251 48.4124L9.4001 46.0874L9.1626 45.425C9.09105 45.2301 9.03668 45.0293 9.0001 44.825L8.6251 45L7.2876 47.8749L6.7501 49L5.1501 52.4249L4.6251 53.5624L3.2876 56.4249L4.2876 59.2C4.45949 59.6682 4.80972 60.0493 5.26177 60.2601C5.71381 60.4709 6.23092 60.4942 6.7001 60.3249L13.7501 57.7374C13.6628 57.5508 13.5876 57.3588 13.5251 57.1624ZM7.8751 49.5625C7.9817 49.6579 8.06324 49.7781 8.1126 49.9125C8.15886 50.0146 8.18279 50.1254 8.18279 50.2374C8.18279 50.3495 8.15886 50.4603 8.1126 50.5625L7.2126 52.5C7.13331 52.668 7.00116 52.8054 6.83636 52.8912C6.67157 52.977 6.48321 53.0064 6.3001 52.975L7.8751 49.5625Z" fill="#0499C5"/>
<path d="M15.8374 59.6625L7.4999 62.675C7.01889 62.8488 6.51134 62.9376 5.9999 62.9375C5.10548 62.9207 4.23772 62.6301 3.51357 62.1048C2.78942 61.5796 2.24368 60.845 1.9499 60L0.587402 56.25L6.8374 42.925L9.4749 41.9625C9.26191 42.4151 9.13072 42.9017 9.0874 43.4L7.8374 43.875L6.1499 47.3375L3.4999 53.025L1.9374 56.375L3.1124 59.625C3.39985 60.4027 3.98233 61.0358 4.73349 61.3868C5.48466 61.7378 6.34393 61.7785 7.1249 61.5L14.6249 58.7875C14.9762 59.1462 15.3863 59.4422 15.8374 59.6625Z" fill="#0499C5"/>
<path d="M62.025 37.5749L27.8375 54.6249L18.5 58.0249C18.1906 58.1383 17.8619 58.1895 17.5327 58.1754C17.2035 58.1613 16.8804 58.0823 16.5818 57.9429C16.2833 57.8035 16.0153 57.6065 15.7931 57.3631C15.571 57.1198 15.3991 56.8349 15.2875 56.5249L11.0125 44.7749C10.7867 44.1533 10.8165 43.4675 11.0953 42.8677C11.3741 42.2679 11.8792 41.8031 12.5 41.5749L56.8 25.4499C57.615 25.1532 58.4805 25.0199 59.347 25.0578C60.2135 25.0957 61.064 25.3041 61.8499 25.6709C62.6359 26.0378 63.3418 26.5559 63.9274 27.1958C64.5129 27.8356 64.9666 28.5846 65.2625 29.3999C65.8187 30.9225 65.7962 32.5964 65.1993 34.1035C64.6025 35.6106 63.4728 36.846 62.025 37.5749Z" fill="white"/>
<path d="M67.0376 28.75C66.2532 26.6518 64.6711 24.9488 62.6364 24.0122C60.6016 23.0756 58.279 22.9813 56.1751 23.75L31.2501 32.7625L30.0751 33.1875L11.8751 39.8125C11.2591 40.0312 10.7026 40.3908 10.2501 40.8624C9.91176 41.2009 9.63287 41.5939 9.42507 42.025C9.21639 42.4651 9.08933 42.9394 9.05007 43.425C9.00713 43.8429 9.03246 44.2651 9.12507 44.675C9.16165 44.8793 9.21602 45.0801 9.28757 45.275L9.52507 45.9375L13.3501 56.4375L13.5626 57.0125C13.6373 57.2097 13.725 57.4018 13.8251 57.5875C14.0298 57.9772 14.2957 58.3317 14.6126 58.6375C14.9751 58.9997 15.3981 59.2958 15.8626 59.5125C16.9043 59.9823 18.0883 60.0271 19.1626 59.6375L28.5126 56.2375L62.8626 39.25C64.728 38.3196 66.1851 36.7343 66.9553 34.7973C67.7255 32.8602 67.7548 30.7072 67.0376 28.75ZM61.2501 35.8875L28.3751 52.2625L27.2001 52.8499H27.1001L17.8501 56.25C17.7768 56.2805 17.6982 56.2963 17.6188 56.2963C17.5394 56.2963 17.4608 56.2805 17.3876 56.25C17.238 56.1798 17.1215 56.0543 17.0626 55.9L16.8501 55.3125L15.3376 51.25L14.9126 50L12.9876 44.7125L12.7751 44.125C12.7139 43.9725 12.7139 43.8024 12.7751 43.6499C12.8048 43.5783 12.849 43.5135 12.9049 43.4597C12.9608 43.4059 13.0273 43.3643 13.1001 43.3374L21.3251 40.3499L22.5001 40L23.7501 39.5499L31.3876 36.775L32.5001 36.25L57.5001 27.2125C58.0216 27.0254 58.571 26.9282 59.1251 26.925C60.0813 26.9348 61.0122 27.2338 61.7953 27.7826C62.5784 28.3315 63.177 29.1045 63.5126 30C63.9268 31.0877 63.925 32.29 63.5075 33.3765C63.09 34.4629 62.2861 35.3571 61.2501 35.8875Z" fill="white"/>
<path d="M17.6377 58.75C17.2043 58.7411 16.7779 58.6388 16.3877 58.45C16.013 58.2794 15.6762 58.0356 15.3972 57.7329C15.1181 57.4302 14.9024 57.0748 14.7627 56.6875L10.4252 45C10.1482 44.216 10.1886 43.3547 10.5377 42.6C10.7108 42.2284 10.9556 41.8946 11.2581 41.6179C11.5606 41.3412 11.9147 41.127 12.3002 40.9875L56.6002 24.8625C58.3404 24.2052 60.267 24.2445 61.979 24.9721C63.691 25.6997 65.0564 27.0596 65.7909 28.7686C66.5254 30.4777 66.5724 32.4041 65.9222 34.147C65.272 35.8898 63.9746 37.3147 62.3002 38.125L28.1252 55.175L18.7502 58.6125C18.3904 58.7237 18.0137 58.7702 17.6377 58.75ZM59.0752 25.625C58.3762 25.6287 57.683 25.7513 57.0252 25.9875L12.7252 42.1625C12.4918 42.2456 12.2776 42.3747 12.095 42.5422C11.9125 42.7097 11.7655 42.9121 11.6627 43.1375C11.4549 43.5857 11.4325 44.0978 11.6002 44.5625L15.8752 56.3125C16.0471 56.7807 16.3973 57.1619 16.8494 57.3727C17.3014 57.5835 17.8185 57.6068 18.2877 57.4375L27.6252 54.0375L61.7377 37.0125C63.0534 36.3577 64.0817 35.241 64.6259 33.8759C65.1701 32.5107 65.1921 30.9929 64.6877 29.6125C64.2694 28.4595 63.5065 27.4631 62.5024 26.7587C61.4983 26.0542 60.3017 25.6759 59.0752 25.675V25.625Z" fill="#0499C5"/>
<path d="M61.5623 30.275C61.2088 29.6727 60.6522 29.2161 59.9925 28.987C59.3328 28.7579 58.613 28.7714 57.9623 29.025L27.8873 40C26.9576 42.0098 26.156 44.0764 25.4873 46.1875L27.1623 50.7875L60.3498 34.2125C60.6941 34.0401 60.9999 33.7997 61.2487 33.5059C61.4975 33.212 61.6842 32.8708 61.7975 32.5028C61.9109 32.1349 61.9484 31.7477 61.908 31.3648C61.8676 30.9819 61.75 30.6112 61.5623 30.275Z" fill="white"/>
<path d="M26.8127 51.6376L24.8252 46.1751L24.9002 45.9626C25.5769 43.8305 26.3868 41.7431 27.3252 39.7126L27.4377 39.4876L27.6752 39.4001L57.7502 28.4376C58.5782 28.1274 59.4932 28.1433 60.31 28.4821C61.1267 28.821 61.7843 29.4574 62.1496 30.2627C62.5149 31.0679 62.5607 31.9819 62.2777 32.8196C61.9947 33.6573 61.404 34.3563 60.6252 34.7751L26.8127 51.6376ZM26.1502 46.1501L27.5127 49.9001L60.0127 33.6501C60.283 33.5169 60.5234 33.3303 60.7194 33.1014C60.9153 32.8726 61.0628 32.6063 61.1528 32.3188C61.2428 32.0313 61.2734 31.7284 61.2429 31.4287C61.2124 31.129 61.1213 30.8385 60.9752 30.5751C60.6894 30.1048 60.2469 29.7505 59.7256 29.5745C59.2043 29.3984 58.6375 29.4119 58.1252 29.6126L28.3502 40.4626C27.5089 42.3148 26.7743 44.2138 26.1502 46.1501Z" fill="#0499C5"/>
<path d="M17.7999 56.7875C17.5007 56.788 17.204 56.7329 16.9249 56.625C16.3057 56.392 15.804 55.9231 15.5299 55.3209C15.2557 54.7187 15.2315 54.0325 15.4624 53.4125L23.2124 32.5L28.9499 25L37.6999 21.825L41.0374 23.375C41.3353 23.5137 41.603 23.7097 41.8252 23.9519C42.0474 24.194 42.2197 24.4776 42.3323 24.7863C42.4449 25.0951 42.4956 25.423 42.4814 25.7513C42.4673 26.0797 42.3886 26.402 42.2499 26.7C42.1112 26.9979 41.9152 27.2656 41.673 27.4878C41.4308 27.7099 41.1473 27.8822 40.8385 27.9948C40.5298 28.1074 40.2019 28.1581 39.8735 28.144C39.5452 28.1298 39.2228 28.0512 38.9249 27.9125L37.4999 27.1875L32.1124 29.1375L27.6374 35L20.1374 55.1749C19.9574 55.6491 19.6373 56.0573 19.2198 56.3453C18.8023 56.6333 18.3071 56.7875 17.7999 56.7875Z" fill="white"/>
<path d="M17.8001 55.5375C17.65 55.5375 17.5013 55.5078 17.3626 55.45C17.0534 55.3347 16.8023 55.1018 16.6641 54.802C16.5259 54.5023 16.5119 54.16 16.6251 53.85L24.4251 33L29.7251 26L37.6126 23.125L40.4752 24.4625C40.7689 24.6072 40.9941 24.8614 41.1024 25.1705C41.2107 25.4795 41.1934 25.8187 41.0542 26.1152C40.915 26.4116 40.665 26.6415 40.358 26.7556C40.0511 26.8696 39.7116 26.8586 39.4126 26.725L37.5001 25.8375L31.2501 28.1L26.5126 34.35L18.9751 54.7125C18.8878 54.9541 18.7281 55.1629 18.5179 55.3105C18.3077 55.4581 18.057 55.5374 17.8001 55.5375Z" fill="#0499C5"/>
<path d="M78.1249 65.8125C78.1249 65.9982 78.0512 66.1762 77.9199 66.3075C77.7886 66.4388 77.6106 66.5125 77.4249 66.5125H60.0749C59.8893 66.5225 59.7073 66.4583 59.569 66.334C59.4307 66.2098 59.3474 66.0357 59.3374 65.85C59.3275 65.6644 59.3917 65.4824 59.5159 65.3441C59.6402 65.2058 59.8143 65.1225 59.9999 65.1125L63.1249 64.65C64.1642 64.4974 65.1143 63.977 65.8024 63.1833C66.4906 62.3897 66.8711 61.3755 66.8749 60.325V56.25C66.8744 55.5565 66.6432 54.8829 66.2178 54.3352C65.7923 53.7876 65.1968 53.397 64.5249 53.225L62.7249 52.775H62.5749C62.483 52.775 62.392 52.7569 62.307 52.7217C62.2221 52.6866 62.145 52.635 62.08 52.57C62.015 52.505 61.9634 52.4278 61.9282 52.3429C61.893 52.258 61.8749 52.1669 61.8749 52.075C61.8749 51.2661 62.1963 50.4903 62.7683 49.9183C63.3402 49.3464 64.116 49.025 64.9249 49.025H72.5749C73.3838 49.025 74.1596 49.3464 74.7316 49.9183C75.3036 50.4903 75.6249 51.2661 75.6249 52.075C75.6249 52.1669 75.6068 52.258 75.5716 52.3429C75.5365 52.4278 75.4849 52.505 75.4199 52.57C75.3549 52.635 75.2777 52.6866 75.1928 52.7217C75.1079 52.7569 75.0169 52.775 74.9249 52.775L72.9749 53.25C72.3072 53.4209 71.7147 53.8078 71.2897 54.3504C70.8647 54.8929 70.631 55.5608 70.6249 56.25V60.3125C70.6287 61.363 71.0093 62.3772 71.6974 63.1708C72.3856 63.9645 73.3356 64.4849 74.3749 64.6375L77.4999 65.1C77.6745 65.1188 77.8356 65.2024 77.9514 65.3344C78.0671 65.4664 78.1291 65.637 78.1249 65.8125Z" fill="white"/>
<path d="M74.9998 57.7625C76.1601 57.7625 77.2729 57.3016 78.0934 56.4811C78.9139 55.6606 79.3748 54.5478 79.3748 53.3875V49.9C79.3824 48.6231 78.9523 47.3821 78.1563 46.3837C77.3603 45.3853 76.2463 44.6896 74.9998 44.4125L72.9748 43.875C72.8752 44.2722 72.715 44.6516 72.4998 45L74.7248 45.5875C75.6981 45.8017 76.5688 46.3427 77.1919 47.1204C77.8151 47.8982 78.1531 48.8659 78.1498 49.8625V53.35C78.1498 54.1788 77.8206 54.9737 77.2345 55.5597C76.6485 56.1458 75.8536 56.475 75.0248 56.475H71.8748V56.25C71.8758 55.834 72.0151 55.4302 72.2709 55.102C72.5266 54.7739 72.8842 54.5401 73.2873 54.4375L74.9998 54.0125C75.5017 53.99 75.9755 53.7746 76.3224 53.4113C76.6694 53.0481 76.8628 52.5649 76.8623 52.0625C76.8623 50.9221 76.4093 49.8284 75.6029 49.022C74.7965 48.2156 73.7027 47.7625 72.5623 47.7625H64.9248C63.7844 47.7625 62.6907 48.2156 61.8842 49.022C61.0778 49.8284 60.6248 50.9221 60.6248 52.0625C60.6244 52.567 60.8196 53.0519 61.1692 53.4155C61.5188 53.7791 61.9957 53.9931 62.4998 54.0125L64.2248 54.45C64.6236 54.5544 64.9768 54.7874 65.2299 55.1127C65.483 55.4381 65.6218 55.8378 65.6248 56.25V56.5H62.4998C61.671 56.5 60.8761 56.1708 60.2901 55.5847C59.704 54.9987 59.3748 54.2038 59.3748 53.375V49.9C59.3727 48.9 59.7143 47.9295 60.3424 47.1513C60.9705 46.373 61.8469 45.8342 62.8248 45.625L64.9998 45C64.7723 44.6416 64.6035 44.2492 64.4998 43.8375L62.4998 44.375C61.2487 44.6471 60.129 45.3407 59.328 46.3396C58.5271 47.3385 58.0935 48.5822 58.0998 49.8625V53.35C58.0998 54.5103 58.5607 55.6231 59.3812 56.4436C60.2017 57.2641 61.3145 57.725 62.4748 57.725H65.5998V60.225C65.596 60.9743 65.3243 61.6975 64.8336 62.2638C64.343 62.8301 63.6659 63.2021 62.9248 63.3125L59.8123 63.775C59.3158 63.8313 58.8599 64.0761 58.5386 64.4587C58.2173 64.8414 58.0552 65.3328 58.0857 65.8315C58.1161 66.3302 58.3369 66.7983 58.7024 67.139C59.0678 67.4797 59.5502 67.6671 60.0498 67.6625H77.4248C77.9257 67.6707 78.4106 67.4858 78.7789 67.1461C79.1471 66.8063 79.3705 66.3379 79.4026 65.8379C79.4348 65.3379 79.2733 64.8448 78.9516 64.4607C78.6299 64.0766 78.1727 63.8311 77.6748 63.775L74.5498 63.3125C73.8087 63.2021 73.1316 62.8301 72.641 62.2638C72.1503 61.6975 71.8786 60.9743 71.8748 60.225V57.725L74.9998 57.7625ZM64.5248 53.2375L62.7248 52.7875H62.5748C62.3892 52.7875 62.2111 52.7138 62.0798 52.5825C61.9486 52.4512 61.8748 52.2732 61.8748 52.0875C61.8748 51.2786 62.1961 50.5028 62.7681 49.9309C63.3401 49.3589 64.1159 49.0375 64.9248 49.0375H72.5748C73.3837 49.0375 74.1595 49.3589 74.7315 49.9309C75.3035 50.5028 75.6248 51.2786 75.6248 52.0875C75.6248 52.2732 75.5511 52.4512 75.4198 52.5825C75.2885 52.7138 75.1105 52.7875 74.9248 52.7875L72.9748 53.2625C72.3091 53.4329 71.7182 53.8179 71.2934 54.3579C70.8686 54.898 70.6336 55.563 70.6248 56.25V60.3125C70.6286 61.363 71.0092 62.3772 71.6973 63.1708C72.3855 63.9645 73.3355 64.4849 74.3748 64.6375L77.4998 65.1C77.5917 65.1058 77.6816 65.1296 77.7644 65.1701C77.8471 65.2105 77.921 65.2669 77.982 65.336C78.0429 65.4051 78.0896 65.4854 78.1195 65.5726C78.1494 65.6597 78.1618 65.7519 78.1561 65.8438C78.1503 65.9357 78.1265 66.0256 78.086 66.1083C78.0455 66.1911 77.9892 66.265 77.9201 66.3259C77.851 66.3869 77.7706 66.4336 77.6835 66.4635C77.5964 66.4934 77.5042 66.5058 77.4123 66.5H60.0748C59.9044 66.4883 59.7441 66.4147 59.6241 66.2931C59.5042 66.1714 59.4329 66.01 59.4237 65.8394C59.4144 65.6688 59.4679 65.5008 59.5741 65.3669C59.6802 65.233 59.8316 65.1425 59.9998 65.1125L63.1248 64.65C64.1641 64.4974 65.1141 63.977 65.8023 63.1833C66.4904 62.3897 66.871 61.3755 66.8748 60.325V56.25C66.8715 55.5587 66.6391 54.8879 66.2138 54.3428C65.7886 53.7977 65.1946 53.409 64.5248 53.2375Z" fill="#0499C5"/>
<path d="M69.3624 42.8999L68.7499 42.7374L68.1374 42.8999L64.5249 43.8749C64.6245 44.2721 64.7847 44.6515 64.9999 44.9999L68.7499 43.9999L72.4999 44.9999C72.7274 44.6415 72.8962 44.2491 72.9999 43.8374L69.3624 42.8999Z" fill="#0499C5"/>
<path d="M71.25 35.8875C71.25 34.5067 70.1307 33.3875 68.75 33.3875C67.3693 33.3875 66.25 34.5067 66.25 35.8875V42.7625C66.25 44.1432 67.3693 45.2625 68.75 45.2625C70.1307 45.2625 71.25 44.1432 71.25 42.7625V35.8875Z" fill="white"/>
<path d="M68.75 45.8875C67.9212 45.8875 67.1263 45.5582 66.5403 44.9722C65.9542 44.3861 65.625 43.5913 65.625 42.7625V35.8875C65.625 35.0586 65.9542 34.2638 66.5403 33.6777C67.1263 33.0917 67.9212 32.7625 68.75 32.7625C69.5788 32.7625 70.3737 33.0917 70.9597 33.6777C71.5458 34.2638 71.875 35.0586 71.875 35.8875V42.7625C71.875 43.5913 71.5458 44.3861 70.9597 44.9722C70.3737 45.5582 69.5788 45.8875 68.75 45.8875ZM68.75 34.0125C68.2527 34.0125 67.7758 34.21 67.4242 34.5616C67.0725 34.9133 66.875 35.3902 66.875 35.8875V42.7625C66.875 43.2597 67.0725 43.7366 67.4242 44.0883C67.7758 44.4399 68.2527 44.6375 68.75 44.6375C69.2473 44.6375 69.7242 44.4399 70.0758 44.0883C70.4275 43.7366 70.625 43.2597 70.625 42.7625V35.8875C70.625 35.3902 70.4275 34.9133 70.0758 34.5616C69.7242 34.21 69.2473 34.0125 68.75 34.0125Z" fill="#0499C5"/>
<path d="M69.0625 35.2625H68.4375V42.1375H69.0625V35.2625Z" fill="#0499C5"/>
<path d="M47.2961 27.7077C45.9599 27.3599 44.5947 28.1612 44.2469 29.4974C43.8991 30.8336 44.7004 32.1987 46.0366 32.5465L68.1255 38.2961C69.4617 38.6439 70.8269 37.8427 71.1747 36.5065C71.5225 35.1703 70.7212 33.8052 69.385 33.4574L47.2961 27.7077Z" fill="white"/>
<path d="M68.7502 40.2625C68.3753 40.2608 68.0018 40.2146 67.6377 40.125L45.5627 34.375C44.4386 34.0798 43.4769 33.3518 42.8877 32.35C42.6078 31.8508 42.4294 31.301 42.3629 30.7325C42.2964 30.164 42.343 29.5879 42.5002 29.0375C42.6385 28.4792 42.8879 27.9545 43.2337 27.4949C43.5796 27.0352 44.0146 26.6501 44.5127 26.3625C45.5125 25.7771 46.7033 25.6108 47.8252 25.9L69.9127 31.65C71.0074 31.9596 71.9366 32.6868 72.5002 33.675C73.0857 34.6748 73.252 35.8656 72.9627 36.9875C72.7201 37.9216 72.1754 38.7492 71.4135 39.3416C70.6516 39.9339 69.7153 40.2577 68.7502 40.2625ZM46.6502 29.5125C46.5402 29.5137 46.4324 29.5439 46.3377 29.6C46.2664 29.6392 46.2041 29.6928 46.1546 29.7574C46.1051 29.8219 46.0696 29.896 46.0502 29.975C46.0278 30.0547 46.0217 30.1381 46.0324 30.2201C46.043 30.3022 46.0702 30.3812 46.1123 30.4525C46.1543 30.5237 46.2104 30.5857 46.2771 30.6347C46.3437 30.6837 46.4197 30.7187 46.5002 30.7375L68.5752 36.4875C68.6939 36.5181 68.819 36.513 68.9348 36.4731C69.0507 36.4331 69.1522 36.3599 69.2268 36.2627C69.3014 36.1654 69.3458 36.0484 69.3544 35.9261C69.363 35.8039 69.3355 35.6818 69.2752 35.575C69.1941 35.43 69.0595 35.3223 68.9002 35.275L46.8252 29.5375C46.7734 29.518 46.718 29.5095 46.6627 29.5125H46.6502Z" fill="white"/>
<path d="M68.7499 39.0125C68.4844 39.01 68.2201 38.9764 67.9624 38.9125L45.8749 33.1625C45.0743 32.9509 44.3898 32.4314 43.9707 31.7172C43.5515 31.003 43.4317 30.1521 43.6374 29.35C43.7403 28.9472 43.9226 28.5691 44.1735 28.2377C44.4244 27.9062 44.7389 27.6282 45.0986 27.4198C45.4583 27.2115 45.8559 27.077 46.2682 27.0242C46.6806 26.9714 47.0993 27.0014 47.4999 27.1125L69.5874 32.8625C70.1834 33.0215 70.7192 33.3527 71.128 33.8147C71.5368 34.2766 71.8004 34.8488 71.8858 35.4597C71.9711 36.0706 71.8745 36.6931 71.608 37.2494C71.3415 37.8058 70.9169 38.2712 70.3874 38.5875C69.8886 38.8712 69.3236 39.0179 68.7499 39.0125ZM46.6624 28.2625C46.328 28.2637 45.9999 28.3543 45.7124 28.525C45.5004 28.648 45.315 28.8119 45.167 29.0072C45.0189 29.2025 44.9111 29.4252 44.8499 29.6625C44.7886 29.9047 44.7764 30.1567 44.8139 30.4038C44.8514 30.6508 44.938 30.8878 45.0684 31.1009C45.1988 31.314 45.3705 31.4989 45.5734 31.6447C45.7763 31.7905 46.0063 31.8943 46.2499 31.95L68.3374 37.7C68.8003 37.8125 69.2888 37.7407 69.6999 37.5C70.1252 37.2483 70.4349 36.8399 70.5624 36.3625C70.6748 35.8996 70.6031 35.4111 70.3624 35C70.2416 34.7862 70.0784 34.5995 69.8828 34.4511C69.6871 34.3028 69.4633 34.1961 69.2249 34.1375L47.1374 28.3875C46.9846 28.327 46.8251 28.2851 46.6624 28.2625Z" fill="#0499C5"/>
<path d="M46.25 33.3875C48.3211 33.3875 50 31.7085 50 29.6375C50 27.5664 48.3211 25.8875 46.25 25.8875C44.1789 25.8875 42.5 27.5664 42.5 29.6375C42.5 31.7085 44.1789 33.3875 46.25 33.3875Z" fill="white"/>
<path d="M46.25 35.2625C45.1375 35.2625 44.0499 34.9326 43.1249 34.3145C42.1999 33.6964 41.4789 32.8179 41.0532 31.79C40.6274 30.7622 40.516 29.6312 40.7331 28.5401C40.9501 27.4489 41.4859 26.4466 42.2725 25.66C43.0592 24.8733 44.0615 24.3376 45.1526 24.1205C46.2438 23.9035 47.3748 24.0149 48.4026 24.4406C49.4304 24.8664 50.3089 25.5873 50.927 26.5124C51.5451 27.4374 51.875 28.5249 51.875 29.6375C51.8717 31.1283 51.278 32.5571 50.2238 33.6113C49.1697 34.6655 47.7408 35.2591 46.25 35.2625ZM46.25 27.7625C45.8792 27.7625 45.5166 27.8724 45.2083 28.0784C44.9 28.2845 44.6596 28.5773 44.5177 28.9199C44.3758 29.2625 44.3387 29.6395 44.411 30.0032C44.4834 30.367 44.662 30.7011 44.9242 30.9633C45.1864 31.2255 45.5205 31.4041 45.8842 31.4764C46.2479 31.5488 46.6249 31.5116 46.9675 31.3697C47.3101 31.2278 47.603 30.9875 47.809 30.6791C48.015 30.3708 48.125 30.0083 48.125 29.6375C48.125 29.1402 47.9275 28.6633 47.5758 28.3116C47.2242 27.96 46.7473 27.7625 46.25 27.7625Z" fill="white"/>
<path d="M46.25 34.0125C45.3847 34.0125 44.5388 33.7559 43.8194 33.2751C43.0999 32.7944 42.5392 32.1111 42.208 31.3117C41.8769 30.5123 41.7903 29.6326 41.9591 28.7839C42.1279 27.9353 42.5446 27.1557 43.1564 26.5439C43.7683 25.932 44.5478 25.5153 45.3965 25.3465C46.2451 25.1777 47.1248 25.2643 47.9242 25.5955C48.7237 25.9266 49.4069 26.4874 49.8877 27.2068C50.3684 27.9263 50.625 28.7722 50.625 29.6375C50.625 30.7978 50.1641 31.9106 49.3436 32.731C48.5231 33.5515 47.4103 34.0125 46.25 34.0125ZM46.25 26.5125C45.6319 26.5125 45.0277 26.6957 44.5138 27.0391C43.9999 27.3825 43.5994 27.8705 43.3629 28.4416C43.1264 29.0126 43.0645 29.6409 43.185 30.2471C43.3056 30.8533 43.6033 31.4101 44.0403 31.8472C44.4773 32.2842 45.0342 32.5818 45.6403 32.7024C46.2465 32.823 46.8749 32.7611 47.4459 32.5246C48.0169 32.2881 48.505 31.8875 48.8483 31.3736C49.1917 30.8597 49.375 30.2555 49.375 29.6375C49.375 28.8087 49.0458 28.0138 48.4597 27.4277C47.8737 26.8417 47.0788 26.5125 46.25 26.5125Z" fill="#0499C5"/>
</svg>
