<svg width="80" height="80" viewBox="0 0 80 80" fill="none" xmlns="http://www.w3.org/2000/svg">
<path fill-rule="evenodd" clip-rule="evenodd" d="M70.4297 55.4679C69.3078 57.6571 68.8928 59.6787 66.6875 58.5688L56.4239 53.3968C55.6714 53.0152 55.0435 52.4298 54.6132 51.7085C54.1829 50.9871 53.9679 50.1595 53.9932 49.3218L40.7481 42.6488C39.6827 43.6605 38.2647 44.2259 36.7895 44.2272C35.9888 44.2257 35.1973 44.0578 34.466 43.7343C33.7347 43.4108 33.08 42.9389 32.544 42.3491L18.1335 47.7206C18.0647 48.5556 17.7585 49.3542 17.2505 50.0238C16.7426 50.6933 16.0536 51.2064 15.2635 51.5034L4.48635 55.5199C2.17212 56.3822 1.98386 54.3263 1.11298 52.0291C0.242108 49.7307 -0.982243 48.0622 1.33198 47.1987L12.1091 43.1822C12.9009 42.8891 13.7604 42.8249 14.5876 42.9968C15.4148 43.1688 16.1759 43.5699 16.7824 44.1536L31.0584 38.833C31.0532 38.725 31.0263 38.6222 31.0263 38.5129C31.0263 36.0279 32.6349 33.9352 34.8684 33.1479V18.386C34.1035 18.0279 33.4568 17.4619 33.0033 16.7539C32.5499 16.0458 32.3085 15.2247 32.307 14.386V2.9574C32.307 0.502793 34.3139 1.05263 36.7895 1.05263C39.2651 1.05263 41.2719 0.502793 41.2719 2.9574V14.386C41.2705 15.2247 41.029 16.0458 40.5756 16.7539C40.1222 17.4619 39.4755 18.0279 38.7105 18.386V33.1479C40.9441 33.9352 42.5527 36.0279 42.5527 38.5129C42.5527 38.7644 42.5104 39.0044 42.4784 39.2469L55.7336 45.9263C56.4013 45.4124 57.2024 45.097 58.0437 45.0167C58.8851 44.9365 59.7321 45.0947 60.4863 45.4729L70.7499 50.6437C72.9539 51.7549 71.5503 53.2799 70.4297 55.4679ZM16.393 45.6558C16.0013 45.0362 15.4056 44.5698 14.7068 44.3356C14.0081 44.1014 13.2492 44.1138 12.5586 44.3707L1.78279 48.3872C0.129406 49.0031 1.68802 49.9415 2.31044 51.5822C2.93286 53.2228 2.38216 54.9472 4.03555 54.3314L14.8126 50.3149C15.5026 50.0569 16.0816 49.5707 16.4517 48.9383C16.8218 48.306 16.9603 47.5663 16.8438 46.8444L32.4697 41.0196L32.0189 39.831L16.393 45.6558ZM36.7895 34.0685H37.4298V17.4958C38.1528 17.3495 38.8026 16.9601 39.2694 16.3934C39.7361 15.8267 39.9911 15.1176 39.9912 14.386V2.9574C39.9912 1.20375 38.5581 2.32248 36.7895 2.32248C35.0208 2.32248 33.5877 1.20375 33.5877 2.9574V14.386C33.5879 15.1176 33.8429 15.8267 34.3096 16.3934C34.7764 16.9601 35.4262 17.3495 36.1491 17.4958V34.0685H36.7895C35.6007 34.0685 34.4605 34.5368 33.6199 35.3703C32.7793 36.2037 32.307 37.3342 32.307 38.5129C32.307 39.6917 32.7793 40.8222 33.6199 41.6556C34.4605 42.4891 35.6007 42.9574 36.7895 42.9574C37.9783 42.9574 39.1184 42.4891 39.9591 41.6556C40.7997 40.8222 41.2719 39.6917 41.2719 38.5129C41.2719 37.3342 40.7997 36.2037 39.9591 35.3703C39.1184 34.5368 37.9783 34.0685 36.7895 34.0685ZM70.1697 51.7764L59.9062 46.6044C59.2485 46.2736 58.4958 46.1782 57.7753 46.3344C57.0549 46.4906 56.411 46.8887 55.9526 47.4615L41.0696 39.9618L40.4894 41.0945L55.3725 48.5929C55.1762 49.2979 55.2315 50.0484 55.529 50.7176C55.8266 51.3868 56.3481 51.9335 57.0054 52.2653L67.2676 57.4361C68.8429 58.2298 68.4881 56.4571 69.2886 54.8939C70.0903 53.3307 71.7437 52.5688 70.1697 51.7764ZM42.9407 31.3612C42.6692 31.2926 42.5014 30.9904 42.5629 30.6882C42.6256 30.3847 42.8959 30.1955 43.1661 30.2666C47.6486 31.4196 51.5918 34.626 53.988 39.0628C54.0462 39.1716 54.0702 39.2951 54.0569 39.4176C54.0437 39.54 53.9938 39.6557 53.9137 39.7498L52.3334 41.5174C52.2894 41.5686 52.2348 41.6098 52.1734 41.6383C52.112 41.6667 52.0451 41.6818 51.9773 41.6825C51.9097 41.6819 51.843 41.6668 51.7818 41.6383C51.7206 41.6099 51.6663 41.5686 51.6226 41.5174C51.5277 41.4066 51.4757 41.2659 51.4757 41.1206C51.4757 40.9752 51.5277 40.8346 51.6226 40.7237L52.9212 39.271C50.648 35.2876 47.0325 32.4152 42.9407 31.3612ZM60.7117 44.198C60.6481 44.207 60.5839 44.2117 60.5196 44.212C59.9049 44.212 59.3657 43.7841 59.2709 43.1872C57.8558 34.3466 50.3713 27.4018 41.0709 26.2971C40.378 26.2158 39.8862 25.6126 39.972 24.951C40.0578 24.2907 40.688 23.8145 41.3834 23.9047C51.8019 25.1403 60.1866 32.9206 61.7709 42.8228C61.8759 43.4818 61.402 44.0964 60.7117 44.198ZM25.924 13.0501V19.5212C25.924 19.8323 25.6295 20.0837 25.267 20.0837C24.9033 20.0837 24.6087 19.8323 24.6087 19.5212V13.0501C24.6087 12.7377 24.9033 12.4876 25.267 12.4876C25.6295 12.4876 25.924 12.7377 25.924 13.0501ZM23.3626 13.0501V19.5212C23.3626 19.8323 23.0681 20.0837 22.7056 20.0837C22.3419 20.0837 22.0473 19.8323 22.0473 19.5212V13.0501C22.0473 12.7377 22.3419 12.4876 22.7056 12.4876C23.0681 12.4876 23.3626 12.7377 23.3626 13.0501ZM20.8012 13.0501V19.5212C20.8012 19.8323 20.5066 20.0837 20.1442 20.0837C19.7805 20.0837 19.4859 19.8323 19.4859 19.5212V13.0501C19.4859 12.7377 19.7805 12.4876 20.1442 12.4876C20.5066 12.4876 20.8012 12.7377 20.8012 13.0501ZM18.2398 13.0501V19.5212C18.2398 19.8323 17.9452 20.0837 17.5828 20.0837C17.2191 20.0837 16.9245 19.8323 16.9245 19.5212V13.0501C16.9245 12.7377 17.2191 12.4876 17.5828 12.4876C17.9452 12.4876 18.2398 12.7377 18.2398 13.0501ZM32.307 26.4495H31.0263C29.7469 26.4495 28.4649 25.1695 28.4649 23.9098V4.86216L15.6579 7.40184L13.0965 22.6399V40.4177C13.0965 41.8653 10.5351 41.9783 10.5351 40.4177V22.6399L13.0965 6.132C13.1759 5.57962 13.8265 4.94978 14.3772 4.86216L29.7456 2.32248C30.6216 2.1866 31.0263 2.94216 31.0263 3.59232V23.9098H32.307C33.4148 23.9098 33.4609 26.4495 32.307 26.4495ZM11.8158 55.6558H13.0965C13.8316 55.6558 13.8688 56.9256 13.0965 56.9256C12.3242 56.9256 11.8158 57.3549 11.8158 58.1955V63.2736C11.8158 63.6647 12.3857 64.5447 13.0965 64.5447C13.8073 64.5447 14.3772 65.1949 14.3772 65.8145V69.6241H16.9386V65.8145C16.9386 65.1949 17.5085 64.5447 18.2193 64.5447C18.9301 64.5447 19.5 63.6647 19.5 63.2736V58.1955C19.5 57.3549 18.966 56.9256 18.2193 56.9256C17.4727 56.9256 16.9386 56.5028 16.9386 55.6558V52.4812C16.9386 51.7574 18.2193 51.7574 18.2193 52.4812V54.386C18.2193 55.012 18.7098 55.6558 19.5 55.6558C20.2902 55.6558 20.7807 56.2361 20.7807 56.9256V64.5447C20.7807 65.1403 20.2992 65.8145 19.5 65.8145C18.7009 65.8145 18.2193 66.3682 18.2193 67.0844V69.6241C18.2193 70.3695 17.5072 70.8939 16.9386 70.8939V70.9015L15.6579 70.8977L14.3772 70.9015V70.8939C13.8086 70.8939 13.0965 70.3695 13.0965 69.6241V67.0844C13.0965 66.3682 12.615 65.8145 11.8158 65.8145C11.0167 65.8145 10.5351 65.1403 10.5351 64.5447V56.9256C10.5351 56.2361 11.2946 55.6558 11.8158 55.6558ZM41.2771 56.2971C41.2764 57.14 40.9385 57.9481 40.3375 58.5443C39.7365 59.1404 38.9216 59.4757 38.0715 59.4768C37.2216 59.4754 36.407 59.1399 35.8063 58.5438C35.2056 57.9477 34.8678 57.1397 34.8672 56.2971C34.8678 55.4543 35.2055 54.6462 35.8062 54.0499C36.4069 53.4536 37.2215 53.1178 38.0715 53.1161C38.9217 53.1175 39.7366 53.4531 40.3376 54.0494C40.9385 54.6458 41.2764 55.4541 41.2771 56.2971ZM36.1491 56.2971C36.1491 57.3485 37.0123 58.2056 38.0715 58.2056C38.5698 58.1876 39.0417 57.9786 39.3879 57.6227C39.734 57.2667 39.9274 56.7915 39.9274 56.2971C39.9274 55.8026 39.734 55.3274 39.3879 54.9715C39.0417 54.6155 38.5698 54.4065 38.0715 54.3885C37.0123 54.3885 36.1491 55.2444 36.1491 56.2971ZM38.1163 49.3003C41.9686 49.3003 45.1038 52.4393 45.1038 56.2971C45.1038 60.1549 41.9686 63.2939 38.1163 63.2939C38.024 63.2936 37.9327 63.2752 37.8476 63.2398C37.7625 63.2045 37.6853 63.1528 37.6203 63.0878C37.5554 63.0229 37.504 62.9458 37.4691 62.8611C37.4342 62.7764 37.4165 62.6857 37.417 62.5942C37.417 62.2082 37.7295 61.8945 38.1163 61.8945C41.1989 61.8945 43.7066 59.3841 43.7066 56.2971C43.7066 53.2114 41.1989 50.7009 38.1163 50.7009C38.024 50.7006 37.9327 50.6822 37.8476 50.6468C37.7625 50.6115 37.6853 50.5598 37.6203 50.4948C37.5554 50.4298 37.504 50.3528 37.4691 50.2681C37.4342 50.1834 37.4165 50.0927 37.417 50.0012C37.417 49.6139 37.7295 49.3003 38.1163 49.3003ZM56.6404 55.6558V62.005C56.6404 62.7314 56.1627 63.2736 55.3597 63.2736H51.5176C50.8977 63.2736 50.2369 62.7504 50.2369 62.005V51.8463C50.2369 50.9561 51.5176 51.0564 51.5176 51.8463V62.005H55.3597V55.6558C55.3597 54.9155 56.6404 54.8571 56.6404 55.6558ZM23.3421 69.6241H28.4649V51.8463L22.8362 51.8336C22.4954 51.8339 22.1685 51.7001 21.9271 51.4615C21.6858 51.2229 21.5498 50.8991 21.5491 50.5612C21.5491 49.859 22.1255 49.2888 22.8362 49.2888L28.4649 49.3066C29.6291 49.3066 31.0263 50.5929 31.0263 51.8463V69.6241C31.0263 70.0774 30.8803 70.5079 30.6472 70.8863H52.1694C52.2565 70.8863 52.3385 70.9066 52.4128 70.9409C52.5408 70.9155 52.6702 70.8939 52.7983 70.8939H59.2018L59.189 59.4285C59.189 58.7263 59.7653 58.1574 60.4748 58.1574C61.1856 58.1574 61.7619 58.7263 61.7619 59.4285L61.7632 70.8939C61.7632 72.146 60.4351 73.4336 59.2018 73.4336H52.7983V77.2431C52.7983 78.5371 51.5867 79.7828 50.2369 79.7828H23.3421C22.1331 79.7828 20.7807 78.4723 20.7807 77.2431V72.1637C20.7807 70.8812 22.0934 69.6241 23.3421 69.6241ZM23.3421 77.2431H50.2369V73.4336C50.2369 72.9955 50.4046 72.5523 50.671 72.1587H29.095C29.0269 72.1565 28.9597 72.1423 28.8965 72.1168C28.7545 72.1458 28.61 72.1615 28.4649 72.1637H23.3421V77.2431Z" fill="#0499C5"/>
</svg>
