<svg width="80" height="80" viewBox="0 0 80 80" fill="none" xmlns="http://www.w3.org/2000/svg">
<path d="M67.1374 18.75L65.7749 15C65.517 14.2706 65.0398 13.6387 64.4088 13.1912C63.7777 12.7436 63.0236 12.5022 62.2499 12.5H48.9999C48.2262 12.5022 47.4722 12.7436 46.8411 13.1912C46.21 13.6387 45.7328 14.2706 45.4749 15L44.1124 18.75C43.9127 19.3148 43.8513 19.9192 43.9331 20.5126C44.015 21.106 44.2379 21.6712 44.583 22.1608C44.9282 22.6504 45.3857 23.0502 45.9171 23.3267C46.4485 23.6032 47.0384 23.7483 47.6374 23.75H63.6124C64.2115 23.7483 64.8014 23.6032 65.3328 23.3267C65.8642 23.0502 66.3216 22.6504 66.6668 22.1608C67.012 21.6712 67.2348 21.106 67.3167 20.5126C67.3986 19.9192 67.3371 19.3148 67.1374 18.75V18.75ZM63.6124 22.5H47.6374C47.2361 22.4998 46.8406 22.403 46.4846 22.2178C46.1285 22.0325 45.8223 21.7643 45.5918 21.4357C45.3614 21.1071 45.2134 20.7279 45.1604 20.33C45.1074 19.9322 45.151 19.5274 45.2874 19.15L46.6499 15.4C46.8246 14.9168 47.1439 14.4992 47.5644 14.204C47.9849 13.9087 48.4861 13.7502 48.9999 13.75H62.2499C62.7637 13.7502 63.2649 13.9087 63.6854 14.204C64.1059 14.4992 64.4252 14.9168 64.5999 15.4L65.9624 19.15C66.0989 19.5274 66.1425 19.9322 66.0895 20.33C66.0365 20.7279 65.8885 21.1071 65.658 21.4357C65.4275 21.7643 65.1213 22.0325 64.7652 22.2178C64.4092 22.403 64.0138 22.4998 63.6124 22.5V22.5Z" fill="#0499C5"/>
<path d="M70.9125 17.5C70.8437 17.4988 70.7769 17.4767 70.721 17.4364C70.6652 17.3962 70.6229 17.3399 70.6 17.275L68.75 12.2625C68.3795 11.2336 67.7004 10.3441 66.8055 9.71544C65.9107 9.0868 64.8436 8.74964 63.75 8.75H47.5C46.4064 8.74964 45.3393 9.0868 44.4445 9.71544C43.5496 10.3441 42.8705 11.2336 42.5 12.2625L40.5625 17.5H39.65C39.4638 17.1766 39.2075 16.899 38.9 16.6875C38.8556 16.6592 38.8187 16.6205 38.7926 16.5748C38.7665 16.529 38.7519 16.4776 38.75 16.425V13.4125C39.1297 13.1933 39.445 12.8781 39.6644 12.4985C39.8838 12.119 39.9996 11.6884 40 11.25V8.75C40 8.08696 39.7366 7.45107 39.2678 6.98223C38.7989 6.51339 38.163 6.25 37.5 6.25H25C24.337 6.25 23.7011 6.51339 23.2322 6.98223C22.7634 7.45107 22.5 8.08696 22.5 8.75V11.25C22.5004 11.6884 22.6162 12.119 22.8356 12.4985C23.055 12.8781 23.3703 13.1933 23.75 13.4125V16.425C23.7471 16.4774 23.7321 16.5284 23.706 16.574C23.68 16.6196 23.6437 16.6584 23.6 16.6875C23.2625 16.9156 22.9858 17.2228 22.7941 17.5823C22.6024 17.9417 22.5014 18.3426 22.5 18.75V25H23.75V18.75C23.7517 18.5474 23.8027 18.3482 23.8985 18.1696C23.9943 17.9911 24.1321 17.8385 24.3 17.725C24.5065 17.5861 24.6774 17.4006 24.799 17.1835C24.9206 16.9663 24.9895 16.7236 25 16.475V13.75H37.5V16.425C37.5105 16.6736 37.5794 16.9163 37.701 17.1335C37.8226 17.3506 37.9935 17.5361 38.2 17.675C38.3531 17.7789 38.4811 17.9156 38.575 18.075L38.9375 18.7H41.4375L41.7375 17.875L43.65 12.6375C43.9459 11.8575 44.4734 11.1868 45.1616 10.7153C45.8498 10.2438 46.6658 9.99423 47.5 10H63.75C64.588 10.0006 65.4056 10.2587 66.092 10.7394C66.7784 11.2201 67.3005 11.9002 67.5875 12.6875L69.4125 17.6875C69.5263 17.9906 69.7295 18.2521 69.9951 18.4374C70.2607 18.6226 70.5762 18.7229 70.9 18.725C70.9895 18.725 71.0754 18.7606 71.1386 18.8239C71.2019 18.8871 71.2375 18.973 71.2375 19.0625V63.4125C71.2342 64.4934 70.8042 65.5293 70.0411 66.2948C69.2779 67.0603 68.2434 67.4934 67.1625 67.5H35V68.75H67.1625C68.5781 68.75 69.9357 68.1877 70.9367 67.1867C71.9377 66.1857 72.5 64.8281 72.5 63.4125V19.0875C72.5 18.6665 72.3327 18.2627 72.035 17.965C71.7373 17.6673 71.3335 17.5 70.9125 17.5V17.5ZM38.125 12.325C37.9357 12.4373 37.7201 12.4977 37.5 12.5H25C24.7799 12.4977 24.5643 12.4373 24.375 12.325C24.1861 12.2159 24.029 12.0593 23.9193 11.8707C23.8097 11.6821 23.7513 11.4681 23.75 11.25V8.75C23.7523 8.52989 23.8127 8.31429 23.925 8.125C24.0341 7.93608 24.1907 7.77899 24.3793 7.66934C24.5679 7.5597 24.7819 7.50132 25 7.5H37.5C37.7181 7.50132 37.9321 7.5597 38.1207 7.66934C38.3093 7.77899 38.4659 7.93608 38.575 8.125C38.6873 8.31429 38.7477 8.52989 38.75 8.75V11.25C38.7487 11.4681 38.6903 11.6821 38.5807 11.8707C38.471 12.0593 38.3139 12.2159 38.125 12.325V12.325Z" fill="#0499C5"/>
<path d="M65 33.75V58.75C65 59.413 64.7366 60.0489 64.2678 60.5178C63.7989 60.9866 63.163 61.25 62.5 61.25H35V60.2C39.2375 58.2375 41.25 55.3125 41.25 52.5V36.25C41.2205 35.3075 41.0043 34.3802 40.6137 33.5219C40.2232 32.6636 39.6662 31.8914 38.975 31.25H62.5C63.163 31.25 63.7989 31.5134 64.2678 31.9822C64.7366 32.4511 65 33.087 65 33.75Z" fill="#0499C5"/>
<path d="M32.7375 31.6875C30.975 30 27.05 28.75 22.5 28.75C17.95 28.75 14.025 30 12.2625 31.6875C9.3375 32.825 7.5 34.45 7.5 36.25V52.5C7.5 54.5875 10 56.45 13.75 57.575V68.75C13.75 71.0125 16.3875 72.925 20 73.5375C20.3 73.5375 20.6 73.6375 20.9125 73.6625H21.525C21.85 73.6625 22.175 73.6625 22.5 73.6625C22.825 73.6625 23.15 73.6625 23.475 73.6625H24.0875C24.4 73.6625 24.7 73.5875 25 73.5375C28.6125 72.925 31.25 71.0375 31.25 68.75V57.575C35 56.45 37.5 54.5875 37.5 52.5V36.25C37.5 34.45 35.6625 32.825 32.7375 31.6875ZM12.975 32.7625C14.075 31.5125 17.0875 30.2625 21.3375 30.025L22.5 30H23.6625C27.9125 30.2 30.925 31.5 32.025 32.7375C32.3069 33.0019 32.4768 33.3642 32.5 33.75C32.5 35.275 28.6 37.5 22.5 37.5C16.4 37.5 12.5 35.275 12.5 33.75C12.5293 33.373 12.6988 33.0207 12.975 32.7625V32.7625ZM30 68.75C30 70.1625 28.0375 71.7125 25 72.2625V67.7875C25.3961 67.4397 25.7127 67.0108 25.9284 66.5298C26.144 66.0488 26.2537 65.5271 26.25 65C26.25 64.0054 25.8549 63.0516 25.1517 62.3484C24.4484 61.6451 23.4946 61.25 22.5 61.25C21.5054 61.25 20.5516 61.6451 19.8483 62.3484C19.1451 63.0516 18.75 64.0054 18.75 65C18.7463 65.5271 18.856 66.0488 19.0716 66.5298C19.2873 67.0108 19.6039 67.4397 20 67.7875V72.2625C16.9625 71.7125 15 70.1625 15 68.75V57.9125C17.4582 58.4864 19.9757 58.7675 22.5 58.75C25.0243 58.7675 27.5418 58.4864 30 57.9125V68.75ZM36.25 52.5C36.25 53.85 34.35 55.275 31.25 56.25C30.85 56.375 30.4375 56.5 30 56.6C27.5473 57.2114 25.0277 57.5138 22.5 57.5C19.9728 57.5178 17.4533 57.2197 15 56.6125C14.5625 56.5125 14.15 56.3875 13.75 56.2625C10.65 55.275 8.75 53.85 8.75 52.5125V38.75C11.0625 40.95 16.35 42.5 22.5 42.5C28.65 42.5 33.9375 40.9625 36.25 38.75V52.5ZM22.5 41.25C14.625 41.25 8.75 38.6125 8.75 36.25C8.75 35.325 9.675 34.35 11.25 33.5125C11.2441 33.5916 11.2441 33.6709 11.25 33.75C11.25 36.5125 16.25 38.75 22.5 38.75C28.75 38.75 33.75 36.5125 33.75 33.75C33.7559 33.6709 33.7559 33.5916 33.75 33.5125C35.3375 34.35 36.25 35.325 36.25 36.25C36.25 38.6125 30.375 41.25 22.5 41.25Z" fill="#0499C5"/>
<path d="M22.5 32.5C25.4375 32.5 27.15 33.3375 27.5 33.75C27.175 34.1625 25.4625 35 22.5 35C19.5375 35 17.85 34.1625 17.5 33.75C17.825 33.3375 19.5375 32.5 22.5 32.5ZM22.5 31.25C19.05 31.25 16.25 32.375 16.25 33.75C16.25 35.125 19.05 36.25 22.5 36.25C25.95 36.25 28.75 35.125 28.75 33.75C28.75 32.375 25.95 31.25 22.5 31.25Z" fill="#0499C5"/>
</svg>
