<svg width="52" height="52" viewBox="0 0 52 52" fill="none" xmlns="http://www.w3.org/2000/svg">
    <path fill-rule="evenodd" clip-rule="evenodd" d="M47.403 25.0271H44.416L44.106 17.5751C44.1046 17.4922 44.0868 17.4105 44.0538 17.3346C44.0207 17.2586 43.973 17.1899 43.9134 17.1324C43.8537 17.0749 43.7834 17.0298 43.7062 16.9995C43.6291 16.9692 43.5468 16.9545 43.464 16.9561H42.753L42.44 15.9951H47.377C47.721 15.9951 48 16.2641 48 16.5951V24.4351C47.9997 24.5132 47.9841 24.5904 47.9539 24.6625C47.9238 24.7345 47.8797 24.7999 47.8243 24.8549C47.7688 24.9098 47.7031 24.9534 47.6308 24.9829C47.5585 25.0125 47.4811 25.0275 47.403 25.0271ZM43 29.0001C44.1 29.0001 45 29.9111 45 31.0001V39.0001H7V31.0001C7 29.9111 7.9 29.0001 9 29.0001V24.0001L10.173 16.9391C10.493 15.8701 11.064 14.9661 12.164 14.9661H39.836C40.936 14.9661 41.507 15.8701 41.827 16.9391L43 24.0001V29.0001ZM18 37.0001H34V29.0001C34 27.9111 33.1 27.0001 32 27.0001H20C18.9 27.0001 18 27.9111 18 29.0001V37.0001ZM8.998 34.4101V35.6121C8.998 35.8331 9.161 36.0131 9.362 36.0131H14.641C14.842 36.0131 15.005 35.8331 15.005 35.6121V34.4101C15.005 34.1881 14.842 34.0091 14.641 34.0091H9.362C9.161 34.0091 8.998 34.1881 8.998 34.4101ZM41 17.0001C41 16.5641 40.44 16.0001 40 16.0001H12C11.56 16.0001 11 16.5641 11 17.0001L10 24.0001C10 24.4361 10.56 25.0001 11 25.0001H41C41.44 25.0001 42 24.4361 42 24.0001L41 17.0001ZM42.638 34.0091H37.359C37.158 34.0091 36.995 34.1881 36.995 34.4101V35.6121C36.995 35.8331 37.158 36.0131 37.359 36.0131H42.638C42.839 36.0131 43.002 35.8331 43.002 35.6121V34.4101C43.002 34.1881 42.839 34.0091 42.638 34.0091ZM19 24.0001L20 17.0001H21L20 24.0001H19ZM14 24.0001L15 17.0001H18L17 24.0001H14ZM8.536 16.9561C8.45318 16.9545 8.37086 16.9692 8.29375 16.9995C8.21664 17.0298 8.14626 17.0749 8.08663 17.1324C8.027 17.1899 7.97929 17.2586 7.94623 17.3346C7.91318 17.4105 7.89543 17.4922 7.894 17.5751L7.584 25.0271H4.597C4.51891 25.0275 4.44151 25.0125 4.36923 24.9829C4.29694 24.9534 4.2312 24.9098 4.17575 24.8549C4.1203 24.7999 4.07623 24.7345 4.04608 24.6625C4.01592 24.5904 4.00026 24.5132 4 24.4351V16.5951C4 16.2641 4.279 15.9951 4.623 15.9951H9.56L9.247 16.9561H8.536ZM28 40.0001H46V44.0001L34 46.0001H18L6 44.0001V40.0001H28ZM8 46.0001L15 47.0001L14.99 49.1921C14.9893 49.2988 14.9677 49.4044 14.9262 49.5028C14.8847 49.6012 14.8243 49.6905 14.7483 49.7655C14.6724 49.8405 14.5824 49.8998 14.4835 49.9401C14.3846 49.9803 14.2788 50.0007 14.172 50.0001H7.825C7.71823 50.0007 7.61239 49.9803 7.5135 49.9401C7.41461 49.8998 7.32461 49.8405 7.24865 49.7655C7.17269 49.6905 7.11226 49.6012 7.0708 49.5028C7.02933 49.4044 7.00765 49.2988 7.007 49.1921L7 47.0001C7 46.4561 7.385 46.0001 8 46.0001ZM45 47.0001L44.994 49.1921C44.9924 49.4078 44.9053 49.614 44.7517 49.7655C44.5981 49.917 44.3907 50.0014 44.175 50.0001H37.829C37.7221 50.0009 37.6162 49.9806 37.5172 49.9404C37.4182 49.9002 37.3281 49.8409 37.252 49.7658C37.1759 49.6908 37.1154 49.6015 37.0739 49.503C37.0324 49.4046 37.0107 49.2989 37.01 49.1921L37 47.0001L44 46.0001C44.615 46.0001 45 46.4561 45 47.0001Z" fill="white" />
    <path fill-rule="evenodd" clip-rule="evenodd" d="M37 9L37.732 7.437C38.004 6.422 36.549 5.778 35.997 6.779L35 9V14H17V9L16.003 6.779C15.451 5.778 13.996 6.422 14.268 7.437L15 9V14H11L9 15V4C9 2.91 9.9 2 11 2H41C42.1 2 43 2.91 43 4V15L41 14H37V9Z" fill="#0499C5" />
</svg>