<svg width="52" height="52" viewBox="0 0 52 52" fill="none" xmlns="http://www.w3.org/2000/svg">
    <path fill-rule="evenodd" clip-rule="evenodd" d="M20.352 12.0932C19.683 11.6724 18.9116 11.444 18.1218 11.4329C16.8214 11.5167 15.6017 12.0942 14.7113 13.0479C13.8208 14.0016 13.3266 15.2597 13.3293 16.5659V21.8102C13.3293 24.4125 15.4786 27.4147 18.1218 27.4147C18.961 27.3515 19.7692 27.0698 20.4665 26.5976C21.1638 26.1253 21.726 25.4787 22.0976 24.7219C22.4527 25.2253 22.8531 25.6951 23.2936 26.1254L21.7711 30.0869L20.9392 29.6596C20.0425 30.0425 19.0774 30.2385 18.1027 30.2356C17.128 30.2327 16.1641 30.0309 15.2697 29.6426L8.37867 33.1778L7.09985 40.432C7.00575 40.8008 6.99901 41.1866 7.08015 41.5584C7.16128 41.9303 7.32806 42.278 7.56715 42.5737C7.80625 42.8695 8.11103 43.105 8.45715 43.2617C8.80327 43.4183 9.18114 43.4916 9.56058 43.4758H26.6812C27.0608 43.4919 27.4389 43.4188 27.7853 43.2623C28.1316 43.1058 28.4367 42.8703 28.676 42.5745C28.9153 42.2787 29.0822 41.9309 29.1635 41.5589C29.2447 41.1869 29.238 40.801 29.1438 40.432L27.8885 33.3127L30.7115 32.1572L32.1447 40.2755C32.2933 41.0142 32.2797 41.7765 32.1048 42.5095C31.93 43.2424 31.5981 43.9285 31.1322 44.5199C30.665 45.092 30.0741 45.5501 29.4042 45.8596C28.7343 46.1691 28.003 46.3219 27.2656 46.3064H8.97904C8.2416 46.3219 7.51029 46.1691 6.84042 45.8596C6.17056 45.5501 5.57967 45.092 5.11245 44.5199C4.64703 43.9282 4.31565 43.2421 4.14129 42.5091C3.96694 41.7762 3.95378 41.014 4.10275 40.2755L5.60083 31.8705C5.73934 31.5755 5.93886 31.3135 6.18613 31.1018L12.8428 27.6807C12.1047 26.9621 11.5219 26.099 11.1306 25.1451C10.7393 24.1912 10.548 23.1668 10.5684 22.1356V16.2405C10.5524 14.9631 10.8592 13.7025 11.4603 12.576C12.0615 11.4496 12.9373 10.494 14.0063 9.79832C15.0752 9.10266 16.3024 8.68957 17.5736 8.59754C18.8448 8.50552 20.1185 8.73755 21.2761 9.27201C20.8762 10.1796 20.5666 11.1246 20.352 12.0932Z" fill="#009BC6" />
    <path fill-rule="evenodd" clip-rule="evenodd" d="M26.5197 31.1133L32.6758 27.9733C34.2077 28.4604 35.8077 28.6976 37.4147 28.676C45.4565 28.676 52.0003 22.8215 52.0003 15.421C52.0003 8.02054 45.4565 2 37.4147 2C29.3729 2 22.8291 8.02148 22.8291 15.4219C22.8351 17.163 23.1968 18.8844 23.8919 20.48C24.587 22.0756 25.6008 23.5116 26.8707 24.6994L24.8363 30.0257C24.5935 30.9586 25.8046 31.4896 26.5197 31.1133ZM33.1802 8.59307C33.7385 8.59307 34.2843 8.75902 34.7485 9.06995C35.2128 9.38087 35.5746 9.8228 35.7883 10.3399C36.0019 10.8569 36.0579 11.4259 35.9489 11.9747C35.84 12.5236 35.5711 13.0278 35.1763 13.4236C34.7815 13.8193 34.2785 14.0888 33.7309 14.198C33.1833 14.3072 32.6157 14.2511 32.0998 14.037C31.584 13.8228 31.1431 13.4601 30.8329 12.9948C30.5227 12.5294 30.3571 11.9824 30.3571 11.4227C30.3571 10.6722 30.6546 9.95251 31.184 9.42185C31.7134 8.89119 32.4314 8.59307 33.1802 8.59307ZM41.6492 17.082C42.2075 17.082 42.7533 17.248 43.2176 17.5589C43.6818 17.8698 44.0437 18.3117 44.2573 18.8288C44.471 19.3458 44.5269 19.9148 44.418 20.4637C44.309 21.0126 44.0402 21.5168 43.6454 21.9125C43.2506 22.3082 42.7476 22.5777 42.1999 22.6869C41.6523 22.7961 41.0847 22.7401 40.5689 22.5259C40.053 22.3117 39.6122 21.949 39.302 21.4837C38.9918 21.0184 38.8262 20.4713 38.8262 19.9116C38.8262 19.1612 39.1236 18.4414 39.653 17.9108C40.1824 17.3801 40.9005 17.082 41.6492 17.082ZM40.2377 10.421C40.4538 10.5461 40.6115 10.7521 40.6761 10.9937C40.7407 11.2354 40.7069 11.4928 40.5821 11.7094L34.9361 21.5113C34.8747 21.6195 34.7927 21.7144 34.6946 21.7906C34.5965 21.8668 34.4844 21.9228 34.3646 21.9554C34.2448 21.988 34.1198 21.9965 33.9968 21.9805C33.8737 21.9645 33.755 21.9242 33.6475 21.862C33.5401 21.7998 33.4459 21.7169 33.3705 21.6181C33.2952 21.5193 33.24 21.4065 33.2083 21.2862C33.1766 21.166 33.1689 21.0406 33.1857 20.9174C33.2025 20.7941 33.2435 20.6754 33.3063 20.5681L38.9523 10.7662C39.0771 10.5496 39.2826 10.3915 39.5237 10.3268C39.7647 10.2621 40.0216 10.2959 40.2377 10.421Z" fill="white" />
</svg>