<svg width="20" height="21" viewBox="0 0 20 21" fill="none" xmlns="http://www.w3.org/2000/svg">
<path d="M1.30435 1.38881C-0.262801 3.01663 0.0579411 4.74581 0.0579411 9.99902C0.0579411 14.3615 -0.703199 18.7347 3.28032 19.7642C4.52424 20.0841 15.5458 20.0841 16.7881 19.7626C18.4466 19.3346 19.7961 17.9893 19.9805 15.6436C20.0063 15.3162 20.0063 4.68765 19.9797 4.35361C19.7836 1.85497 18.2455 0.414952 16.2189 0.123292C15.7544 0.0559858 15.6613 0.0360433 13.2782 0.0318886C4.82504 0.0360433 2.97204 -0.340373 1.30435 1.38881Z" fill="url(#paint0_linear)"/>
<path d="M10.0275 2.64019C7.01039 2.64019 4.14531 2.3718 3.05097 5.18037C2.59894 6.34037 2.66458 7.84686 2.66458 10.004C2.66458 11.8969 2.60392 13.6759 3.05097 14.8267C4.14282 17.637 7.03117 17.3678 10.0259 17.3678C12.915 17.3678 15.894 17.6686 17.0016 14.8267C17.4545 13.6551 17.388 12.1711 17.388 10.004C17.388 7.12726 17.5467 5.27012 16.1516 3.8758C14.739 2.4632 12.8286 2.64019 10.0242 2.64019H10.0275ZM9.36777 3.9672C15.6613 3.95723 16.4623 3.25758 16.0203 12.9771C15.8632 16.4147 13.2458 16.0374 10.0284 16.0374C4.16193 16.0374 3.99325 15.8696 3.99325 10.0007C3.99325 4.06359 4.45858 3.97053 9.36777 3.96554V3.9672ZM13.9579 5.18951C13.4701 5.18951 13.0746 5.58504 13.0746 6.0728C13.0746 6.56056 13.4701 6.95609 13.9579 6.95609C14.4456 6.95609 14.8412 6.56056 14.8412 6.0728C14.8412 5.58504 14.4456 5.18951 13.9579 5.18951ZM10.0275 6.22237C7.93938 6.22237 6.24676 7.91583 6.24676 10.004C6.24676 12.0921 7.93938 13.7847 10.0275 13.7847C12.1157 13.7847 13.8075 12.0921 13.8075 10.004C13.8075 7.91583 12.1157 6.22237 10.0275 6.22237ZM10.0275 7.54938C13.2723 7.54938 13.2765 12.4586 10.0275 12.4586C6.78355 12.4586 6.77856 7.54938 10.0275 7.54938Z" fill="white"/>
<defs>
<linearGradient id="paint0_linear" x1="1.34259" y1="18.7007" x2="19.8771" y2="2.65933" gradientUnits="userSpaceOnUse">
<stop stop-color="#FFDD55"/>
<stop offset="0.5" stop-color="#FF543E"/>
<stop offset="1" stop-color="#C837AB"/>
</linearGradient>
</defs>
</svg>
