<svg width="20" height="20" viewBox="0 0 20 20" fill="none" xmlns="http://www.w3.org/2000/svg">
    <path fill-rule="evenodd" clip-rule="evenodd"
          d="M16.918 0C17.7354 0 18.5193 0.324707 19.0973 0.902689C19.6753 1.48067 20 2.26458 20 3.08197V16.919C19.9997 17.7362 19.6749 18.5199 19.097 19.0977C18.519 19.6754 17.7352 20 16.918 20H3.08197C2.26475 20 1.48099 19.6754 0.903036 19.0977C0.325082 18.5199 0.000259848 17.7362 0 16.919L0 3.08197C0 2.26458 0.324707 1.48067 0.902689 0.902689C1.48067 0.324707 2.26458 0 3.08197 0H16.918Z"
          fill="#4F75A3"/>
    <path fill-rule="evenodd" clip-rule="evenodd"
          d="M14.5309 10.1671C14.5309 10.1671 16.2586 7.72899 16.431 6.93326C16.4879 6.64712 16.3615 6.4864 16.0645 6.4864H14.5652C14.2222 6.4864 14.0958 6.63536 13.9929 6.85291C13.9929 6.85291 13.1825 8.5796 12.1957 9.66833C11.8791 10.0201 11.7184 10.126 11.544 10.126C11.4029 10.126 11.3372 10.0084 11.3372 9.69087V6.90484C11.3372 6.51286 11.2921 6.40115 10.9717 6.40115H8.56784C8.38459 6.40115 8.27385 6.50796 8.27385 6.653C8.27385 7.0195 8.83537 7.1028 8.83537 8.0955V10.1436C8.83537 10.5562 8.81185 10.7159 8.61782 10.7159C8.10236 10.7159 6.87839 8.94218 6.19144 6.92836C6.05425 6.5158 5.90529 6.40115 5.51625 6.40115H4.01789C3.9685 6.39843 3.91908 6.40596 3.87274 6.42326C3.8264 6.44056 3.78414 6.46726 3.74861 6.50168C3.71309 6.5361 3.68507 6.5775 3.66631 6.62327C3.64755 6.66904 3.63847 6.7182 3.63962 6.76765C3.63962 7.16845 4.10903 9.02156 5.95135 11.5058C7.18806 13.1766 8.81283 14.0811 10.2779 14.0811C11.1706 14.0811 11.3882 13.9321 11.3882 13.5549V12.2731C11.3882 11.9526 11.5146 11.8154 11.6969 11.8154C11.9036 11.8154 12.2672 11.8811 13.1168 12.7189C14.1232 13.6803 14.1948 14.0811 14.7416 14.0811H16.4242C16.5957 14.0811 16.7564 14.0007 16.7564 13.7146C16.7564 13.3373 16.2664 12.6621 15.5079 11.8605C15.1992 11.4489 14.6955 11.0021 14.5358 10.7963C14.3065 10.5562 14.3751 10.419 14.5358 10.1671H14.5309Z"
          fill="white"/>
</svg>
