<svg width="20" height="20" viewBox="0 0 20 20" fill="none" xmlns="http://www.w3.org/2000/svg">
<path fill-rule="evenodd" clip-rule="evenodd" d="M16.9178 0C17.7352 0 18.5191 0.324707 19.0971 0.902689C19.675 1.48067 19.9998 2.26458 19.9998 3.08197V16.919C19.9995 17.7362 19.6747 18.5199 19.0967 19.0977C18.5188 19.6754 17.735 20 16.9178 20H3.08173C2.26451 20 1.48075 19.6754 0.902791 19.0977C0.324837 18.5199 1.57069e-05 17.7362 -0.000244141 16.919L-0.000244141 3.08197C-0.000244141 2.26458 0.324463 1.48067 0.902445 0.902689C1.48043 0.324707 2.26434 0 3.08173 0H16.9178Z" fill="#E53935"/>
<path d="M3.31305 13.14C3.59869 14.1244 4.4725 14.3046 4.5308 14.3391C5.96889 14.7197 14.0296 14.7209 15.4893 14.3391C16.489 14.0582 16.6727 13.1967 16.707 13.14C17.0877 11.1723 17.1128 8.60701 16.6896 6.37421L16.707 6.48523C16.4214 5.5008 15.5476 5.32068 15.4893 5.28613C14.0705 4.91174 5.9887 4.89757 4.5308 5.28613C3.53107 5.56764 3.34745 6.42859 3.31305 6.48523C2.90559 8.5532 2.88518 10.9259 3.31305 13.14ZM8.60956 11.8809V7.75003L12.2622 9.81857L8.60956 11.8809Z" fill="white"/>
</svg>
