<svg width="52" height="52" viewBox="0 0 52 52" fill="none" xmlns="http://www.w3.org/2000/svg">
<path fill-rule="evenodd" clip-rule="evenodd" d="M47.403 25.0278H44.416L44.106 17.5758C44.1046 17.493 44.0868 17.4112 44.0538 17.3353C44.0207 17.2593 43.973 17.1906 43.9134 17.1332C43.8537 17.0757 43.7834 17.0305 43.7062 17.0002C43.6291 16.97 43.5468 16.9552 43.464 16.9568H42.753L42.44 15.9958H47.377C47.721 15.9958 48 16.2648 48 16.5958V24.4358C47.9997 24.5139 47.9841 24.5912 47.9539 24.6632C47.9238 24.7352 47.8797 24.8006 47.8243 24.8556C47.7688 24.9106 47.7031 24.9541 47.6308 24.9836C47.5585 25.0132 47.4811 25.0282 47.403 25.0278ZM43 29.0008C44.1 29.0008 45 29.9118 45 31.0008V39.0008H7V31.0008C7 29.9118 7.9 29.0008 9 29.0008V24.0008L10.173 16.9398C10.493 15.8708 11.064 14.9668 12.164 14.9668H39.836C40.936 14.9668 41.507 15.8708 41.827 16.9398L43 24.0008V29.0008ZM18 37.0008H34V29.0008C34 27.9118 33.1 27.0008 32 27.0008H20C18.9 27.0008 18 27.9118 18 29.0008V37.0008ZM8.998 34.4108V35.6128C8.998 35.8338 9.161 36.0138 9.362 36.0138H14.641C14.842 36.0138 15.005 35.8338 15.005 35.6128V34.4108C15.005 34.1888 14.842 34.0098 14.641 34.0098H9.362C9.161 34.0098 8.998 34.1888 8.998 34.4108ZM41 17.0008C41 16.5648 40.44 16.0008 40 16.0008H12C11.56 16.0008 11 16.5648 11 17.0008L10 24.0008C10 24.4368 10.56 25.0008 11 25.0008H41C41.44 25.0008 42 24.4368 42 24.0008L41 17.0008ZM42.638 34.0098H37.359C37.158 34.0098 36.995 34.1888 36.995 34.4108V35.6128C36.995 35.8338 37.158 36.0138 37.359 36.0138H42.638C42.839 36.0138 43.002 35.8338 43.002 35.6128V34.4108C43.002 34.1888 42.839 34.0098 42.638 34.0098ZM19 24.0008L20 17.0008H21L20 24.0008H19ZM14 24.0008L15 17.0008H18L17 24.0008H14ZM8.536 16.9568C8.45318 16.9552 8.37086 16.97 8.29375 17.0002C8.21664 17.0305 8.14626 17.0757 8.08663 17.1332C8.027 17.1906 7.97929 17.2593 7.94623 17.3353C7.91318 17.4112 7.89543 17.493 7.894 17.5758L7.584 25.0278H4.597C4.51891 25.0282 4.44151 25.0132 4.36923 24.9836C4.29694 24.9541 4.2312 24.9106 4.17575 24.8556C4.1203 24.8006 4.07623 24.7352 4.04608 24.6632C4.01592 24.5912 4.00026 24.5139 4 24.4358V16.5958C4 16.2648 4.279 15.9958 4.623 15.9958H9.56L9.247 16.9568H8.536ZM28 40.0008H46V44.0008L34 46.0008H18L6 44.0008V40.0008H28ZM8 46.0008L15 47.0008L14.99 49.1928C14.9893 49.2996 14.9677 49.4052 14.9262 49.5035C14.8847 49.6019 14.8243 49.6912 14.7483 49.7662C14.6724 49.8412 14.5824 49.9006 14.4835 49.9408C14.3846 49.9811 14.2788 50.0015 14.172 50.0008H7.825C7.71823 50.0015 7.61239 49.9811 7.5135 49.9408C7.41461 49.9006 7.32461 49.8412 7.24865 49.7662C7.17269 49.6912 7.11226 49.6019 7.0708 49.5035C7.02933 49.4052 7.00765 49.2996 7.007 49.1928L7 47.0008C7 46.4568 7.385 46.0008 8 46.0008ZM45 47.0008L44.994 49.1928C44.9924 49.4085 44.9053 49.6148 44.7517 49.7663C44.5981 49.9178 44.3907 50.0021 44.175 50.0008H37.829C37.7221 50.0016 37.6162 49.9813 37.5172 49.9411C37.4182 49.9009 37.3281 49.8416 37.252 49.7666C37.1759 49.6915 37.1154 49.6022 37.0739 49.5038C37.0324 49.4053 37.0107 49.2996 37.01 49.1928L37 47.0008L44 46.0008C44.615 46.0008 45 46.4568 45 47.0008Z" fill="#979EA0"/>
<path fill-rule="evenodd" clip-rule="evenodd" d="M37 9L37.732 7.437C38.004 6.422 36.549 5.778 35.997 6.779L35 9V14H17V9L16.003 6.779C15.451 5.778 13.996 6.422 14.268 7.437L15 9V14H11L9 15V4C9 2.91 9.9 2 11 2H41C42.1 2 43 2.91 43 4V15L41 14H37V9Z" fill="#0499C5"/>
</svg>
