<svg width="52" height="52" viewBox="0 0 52 52" fill="none" xmlns="http://www.w3.org/2000/svg">
<path fill-rule="evenodd" clip-rule="evenodd" d="M0 41.9989V23.8626H2.88889V39.1353H40.4444V23.8626H43.3333V41.9989H0ZM11.0741 31.5123C11.2963 31.2129 11.5864 30.9693 11.9208 30.8012C12.2553 30.6331 12.625 30.5451 13 30.5444C13.6385 30.5444 14.2508 30.7958 14.7023 31.2433C15.1538 31.6909 15.4074 32.2979 15.4074 32.9308C15.4074 33.5637 15.1538 34.1706 14.7023 34.6182C14.2508 35.0657 13.6385 35.3171 13 35.3171C12.625 35.3164 12.2553 35.2284 11.9208 35.0603C11.5864 34.8922 11.2963 34.6487 11.0741 34.3492C10.8518 34.6487 10.5618 34.8922 10.2273 35.0603C9.8928 35.2284 9.52318 35.3164 9.14815 35.3171C8.50966 35.3171 7.89733 35.0657 7.44585 34.6182C6.99438 34.1706 6.74074 33.5637 6.74074 32.9308C6.74074 32.2979 6.99438 31.6909 7.44585 31.2433C7.89733 30.7958 8.50966 30.5444 9.14815 30.5444C9.9397 30.5444 10.635 30.9281 11.0741 31.5123ZM0 17.1808H29.744C30.8927 19.1442 32.5256 20.7865 34.4895 21.9535H0V17.1808ZM27.975 11.4535H2.88889V15.2717H0V8.58984H28.079C27.9821 9.22177 27.9309 9.85976 27.9259 10.4989C27.9259 10.8206 27.9519 11.1366 27.975 11.4535Z" fill="#979EA0"/>
<path fill-rule="evenodd" clip-rule="evenodd" d="M41.407 21C35.557 21 30.8145 16.2989 30.8145 10.5C30.8145 4.70114 35.557 0 41.407 0C47.257 0 51.9996 4.70114 51.9996 10.5C51.9996 16.2989 47.257 21 41.407 21ZM44.9806 12.6802L42.37 10.0924V3.81818C42.37 3.56502 42.2686 3.32223 42.088 3.14322C41.9074 2.9642 41.6624 2.86364 41.407 2.86364C41.1517 2.86364 40.9067 2.9642 40.7261 3.14322C40.5455 3.32223 40.4441 3.56502 40.4441 3.81818V10.4723C40.4385 10.6035 40.4603 10.7344 40.5082 10.8567C40.5561 10.9791 40.629 11.0904 40.7224 11.1835L43.6065 14.0423C43.7912 14.2102 44.0342 14.3008 44.2848 14.2954C44.5353 14.29 44.7741 14.1889 44.9513 14.0133C45.1285 13.8376 45.2305 13.6009 45.2359 13.3526C45.2414 13.1042 45.1499 12.8633 44.9806 12.6802Z" fill="#0499C5"/>
</svg>
