<svg width="73" height="77" viewBox="0 0 73 77" fill="none" xmlns="http://www.w3.org/2000/svg">
<path fill-rule="evenodd" clip-rule="evenodd" d="M71.7485 36.4102C71.7389 36.8716 71.5547 37.3121 71.2333 37.6419C71.0697 37.8098 70.8745 37.9431 70.6589 38.0342C70.4434 38.1252 70.2119 38.1721 69.9781 38.1721C69.7443 38.1721 69.5128 38.1252 69.2972 38.0342C69.0817 37.9431 68.8864 37.8098 68.7229 37.6419C68.5525 37.4673 68.4189 37.2598 68.3303 37.0321C68.2417 36.8044 68.1998 36.561 68.2071 36.3166L68.0403 36.2784C71.0615 27.6598 69.2148 17.6636 62.4473 10.7621C55.6799 3.85998 45.8789 1.97663 37.4278 5.05785L37.3904 4.88726C37.1494 4.89443 36.9095 4.85146 36.6859 4.76105C36.4622 4.67064 36.2596 4.53475 36.0908 4.36192C35.7572 4.02002 35.5703 3.56045 35.5703 3.08182C35.5703 2.60318 35.7572 2.14362 36.0908 1.80172C36.4098 1.47542 36.8431 1.28696 37.2984 1.27638C46.7498 -1.72785 57.472 0.567513 64.9577 8.20189C72.4434 15.8363 74.6943 26.7711 71.7485 36.4102ZM36.7482 13.111C43.2802 11.0669 50.6898 12.6288 55.8632 17.8237C61.0367 23.0186 62.5921 30.459 60.5564 37.0174C60.5495 37.3327 60.4219 37.6331 60.2001 37.8562C59.9701 38.0872 59.6581 38.2169 59.3328 38.2169C59.0076 38.2169 58.6956 38.0872 58.4656 37.8562C58.348 37.7382 58.2558 37.5973 58.1945 37.4421C58.1332 37.287 58.1042 37.1208 58.1093 36.954L57.9939 36.9281C60.0817 31.0638 58.8054 24.2621 54.1287 19.5654C49.4515 14.8693 42.6779 13.5877 36.8378 15.6848L36.812 15.5684C36.6459 15.5732 36.4806 15.5439 36.3261 15.4824C36.1716 15.4209 36.0312 15.3284 35.9135 15.2105C35.6835 14.9796 35.5544 14.6663 35.5544 14.3397C35.5544 14.0131 35.6835 13.6998 35.9135 13.4689C36.1355 13.2462 36.4345 13.118 36.7482 13.111V13.111ZM39.9842 58.9598C40.5527 59.3127 40.9532 59.5473 41.1863 59.6656C41.4212 59.7814 41.764 59.9255 42.2136 60.0918C42.6644 60.2593 43.0404 60.3431 43.3415 60.3431C43.9426 60.3431 44.7117 59.8664 45.6464 58.9093C46.6008 57.9311 47.4879 56.8889 48.3015 55.7899C49.1301 54.6733 50.0518 53.6296 51.0566 52.6699C52.0582 51.714 52.8929 51.2367 53.5608 51.2367C54.0288 51.2367 54.5047 51.3538 54.9886 51.5884C55.4738 51.8237 56.0663 52.184 56.7685 52.6699C57.4696 53.157 57.8872 53.4502 58.0203 53.5512C58.8551 54.0531 59.7487 54.5735 60.7018 55.11C61.6531 55.647 62.7141 56.2339 63.8831 56.872C64.7913 57.363 65.6929 57.8661 66.5879 58.3809C68.9271 59.5541 70.1961 60.4434 70.3961 61.0476C70.4973 61.2841 70.5476 61.6364 70.5463 62.1069C70.5463 63.0129 70.3801 64.1947 70.0452 65.6537C69.7116 67.1134 69.362 68.262 68.9934 69.1002C68.2917 70.7778 66.2536 72.5552 62.8816 74.4343C59.7413 76.1439 56.6342 77 53.562 77C52.6821 77.0006 51.803 76.9419 50.9309 76.8245C50.0796 76.7056 49.1197 76.4962 48.0494 76.1944C46.981 75.892 46.1874 75.6488 45.6703 75.464C45.1521 75.2792 44.2247 74.935 42.8895 74.433C41.5537 73.9286 40.7349 73.6269 40.4343 73.5265C37.161 72.3526 34.2379 70.9601 31.6656 69.3508C27.3895 66.7007 22.9723 63.0855 18.4122 58.5071C13.8527 53.9287 10.253 49.4926 7.61512 45.1993C6.01188 42.6163 4.62576 39.6817 3.45675 36.3942C3.35678 36.0924 3.05564 35.2708 2.55516 33.9282C2.20586 33.0005 1.86361 32.07 1.52845 31.1371C1.34506 30.6173 1.1028 29.8203 0.802265 28.7468C0.50112 27.6734 0.291975 26.7089 0.175443 25.8535C0.0570697 24.978 -0.0015377 24.0955 3.0658e-05 23.212C3.0658e-05 20.1265 0.851331 17.0064 2.55516 13.8538C4.42581 10.4665 6.19649 8.42114 7.86659 7.71658C8.70133 7.34706 9.84518 6.99539 11.2988 6.66036C12.7517 6.32409 13.9293 6.15657 14.8315 6.15657C15.2989 6.15657 15.6497 6.20769 15.8834 6.30808C16.4851 6.50885 17.3701 7.78371 18.5391 10.1314C18.9071 10.7689 19.4076 11.6748 20.0424 12.848C20.6193 13.9173 21.2038 14.9824 21.7959 16.0432C22.3012 16.9475 22.8189 17.8447 23.3488 18.7346C23.4494 18.8695 23.7414 19.2876 24.2259 19.9922C24.711 20.6968 25.0698 21.2917 25.3035 21.7788C25.5372 22.2654 25.6543 22.7433 25.6543 23.2126C25.6543 23.8839 25.1778 24.7215 24.2259 25.7284C23.2707 26.7377 22.2314 27.6632 21.1194 28.495C20.0253 29.3122 18.9877 30.203 18.0135 31.1611C17.0616 32.1003 16.5851 32.872 16.5851 33.4755C16.5851 33.7773 16.6691 34.1548 16.8359 34.6075C17.0021 35.0602 17.1444 35.4038 17.2609 35.6385C17.3781 35.8744 17.6118 36.2759 17.9626 36.8468C18.3134 37.4171 18.506 37.7349 18.5391 37.8027C21.0777 42.3977 23.9843 46.3393 27.257 49.6268C30.5309 52.9131 34.4562 55.8318 39.0323 58.3809C39.0985 58.4148 39.4156 58.6081 39.9842 58.9598V58.9598Z" fill="#31496D"/>
</svg>
