<svg width="121" height="35" viewBox="0 0 121 35" fill="none" xmlns="http://www.w3.org/2000/svg">
<path d="M6.99111 24.4278L0 19.1745V18.6492C0 15.1689 3.56278 13.5929 6.85667 12.0826C9.34389 10.9006 12.2344 9.58724 12.2344 8.07692H14.7889C14.7889 11.1632 11.3606 12.8049 7.99944 14.3152C5.57944 15.4315 3.025 16.6135 2.62167 18.0582L7.12556 21.4728L12.2344 17.9925V14.1182H14.7889V19.3058L6.99111 24.4278ZM2.55444 11.7542H0C0 8.66792 3.42833 7.02627 6.78944 5.51595C8.80611 4.59662 10.9572 3.61163 11.7639 2.49531H2.55444V5.84428H0V0H14.7889V0.590994C14.7889 4.79362 11.2261 6.23827 7.93222 7.74859C5.37778 8.93058 2.55444 10.2439 2.55444 11.7542Z" fill="#009BC8"/>
<path d="M54.7189 15.0375C53.9795 16.3508 52.2317 16.7448 50.9545 16.7448H50.6856C48.9378 16.7448 46.585 16.1538 46.585 13.5929V13.4615H58.9539V11.2289C58.9539 6.82927 56.4667 4.59662 51.6267 4.59662H49.9461C45.1061 4.59662 42.6189 6.82927 42.6189 11.2289V12.8049C42.6189 17.2045 45.1061 19.4371 49.9461 19.4371H51.6267C55.055 19.4371 57.3406 18.2552 58.2817 16.0225L54.7189 15.0375ZM46.585 10.5066C46.585 7.94559 48.9378 7.3546 50.6856 7.3546H50.9545C52.7023 7.3546 55.055 7.94559 55.055 10.5066V11.1632H46.585V10.5066ZM34.3506 9.45591L41.8123 19.1745H37.3756L31.3256 11.1632L27.1578 11.0976V19.1745H23.0573V0H27.1578V7.94559H31.1239L37.1067 0H41.3417L34.3506 9.45591ZM71.2556 7.94559H69.7095C68.2306 7.94559 65.8106 8.07692 65.8106 10.5722V19.1745H61.8445V11.2946C61.8445 8.40525 62.9873 4.92495 68.8356 4.92495H71.2556V7.94559ZM89.8089 19.1745H85.91V10.5722C85.91 8.07692 83.49 7.94559 82.0111 7.94559H78.3811V19.1745H74.4823V5.05629C74.4823 5.05629 79.1206 4.92495 82.885 4.92495C88.8006 4.92495 89.8761 8.40525 89.8761 11.2946L89.8089 19.1745ZM121 7.94559H119.454C118.929 7.90961 118.402 7.97839 117.905 8.14772C117.408 8.31706 116.952 8.58342 116.563 8.93058C116.202 9.3326 115.927 9.80112 115.754 10.3086C115.581 10.816 115.513 11.3522 115.555 11.8856V19.1745H111.589V10.8349C111.547 10.0266 111.687 9.21905 112.001 8.46992C112.315 7.72079 112.794 7.04849 113.404 6.50094C114.614 5.45028 116.362 4.92495 118.58 4.92495H121V7.94559ZM104.598 15.0375C103.858 16.3508 102.111 16.7448 100.833 16.7448H100.564C98.8167 16.7448 96.4639 16.1538 96.4639 13.5929V13.4615H108.833V11.2289C108.833 6.82927 106.346 4.59662 101.506 4.59662H99.825C94.985 4.59662 92.4978 6.82927 92.4978 11.2289V12.8049C92.4978 17.2045 94.985 19.4371 99.825 19.4371H101.506C104.934 19.4371 107.219 18.2552 108.161 16.0225L104.598 15.0375ZM96.4639 10.5066C96.4639 7.94559 98.8167 7.3546 100.564 7.3546H100.833C102.581 7.3546 104.934 7.94559 104.934 10.5066V11.1632H96.4639V10.5066ZM30.25 28.3677V32.5704H29.5106V28.5647C29.5106 27.7767 29.3089 27.4484 28.7711 27.4484C28.2334 27.4484 27.8973 27.7767 27.1578 28.4334V32.636H26.4184V28.6304C26.4184 27.8424 26.1495 27.5141 25.6789 27.5141C25.2084 27.5141 24.805 27.7767 24.1328 28.4991V32.7017H23.3934V27.0544H23.9984L24.0656 27.9737C24.2927 27.6706 24.5848 27.4195 24.9215 27.238C25.2582 27.0565 25.6314 26.949 26.015 26.9231C26.1656 26.9124 26.3167 26.9313 26.4597 26.9787C26.6026 27.026 26.7343 27.1009 26.8471 27.1988C26.9599 27.2968 27.0515 27.4158 27.1164 27.5489C27.1813 27.682 27.2182 27.8265 27.225 27.9737C27.4445 27.6782 27.7259 27.4317 28.0504 27.2506C28.3749 27.0694 28.7352 26.9578 29.1073 26.9231C29.8467 26.7917 30.25 27.3827 30.25 28.3677ZM35.7623 28.5647V32.636H35.1573L35.09 31.7167C34.8666 32.0235 34.5754 32.2773 34.2379 32.4591C33.9005 32.641 33.5254 32.7464 33.1406 32.7674C32.3339 32.7674 31.7961 32.242 31.7961 31.257V30.6004C31.7715 30.4248 31.7865 30.2461 31.84 30.0769C31.8936 29.9076 31.9844 29.7518 32.106 29.6204C32.2277 29.489 32.3774 29.3852 32.5445 29.3163C32.7116 29.2473 32.8921 29.215 33.0734 29.2214H35.09V28.6304C35.09 27.9081 34.8884 27.5141 34.1489 27.5141C33.6111 27.5141 32.8717 27.5797 32.1323 27.6454L32.065 27.1201C32.795 26.968 33.5374 26.8801 34.2834 26.8574C35.2245 26.7917 35.7623 27.2514 35.7623 28.5647ZM34.9556 31.1257V29.6811H33.1406C32.67 29.6811 32.5356 30.0094 32.5356 30.5347V30.9944C32.5356 31.651 32.8045 31.9137 33.275 31.9137C33.6008 31.9343 33.9266 31.8726 34.2209 31.7346C34.5152 31.5966 34.7682 31.3869 34.9556 31.1257ZM40.9384 27.0544L40.8039 27.5797C40.3804 27.5268 39.9535 27.5049 39.5267 27.5141C38.3839 27.5141 37.9806 28.0394 37.9806 29.8124C37.9806 31.5854 38.3839 32.1107 39.5267 32.1107C39.9787 32.1232 40.4306 32.079 40.8711 31.9794L40.9384 32.5047C40.4378 32.6611 39.9175 32.7495 39.3923 32.7674C37.7789 32.7674 37.1739 31.9794 37.1739 29.8124C37.1739 27.6454 37.7789 26.8574 39.3923 26.8574C39.9164 26.7927 40.4488 26.8605 40.9384 27.0544ZM46.4506 28.3677V32.5704H45.7111V28.5647C45.7111 27.7767 45.5095 27.4484 44.9717 27.4484C44.4339 27.4484 43.8961 27.7767 43.1567 28.4334V32.636H42.35V24.4278H43.0895V26.7917C43.1026 27.1651 43.0801 27.5388 43.0223 27.9081C43.5527 27.3091 44.2991 26.9329 45.1061 26.8574C45.98 26.7917 46.4506 27.3827 46.4506 28.3677ZM48.7361 24.6248C48.7722 24.6218 48.8085 24.6265 48.8426 24.6387C48.8766 24.6508 48.9075 24.67 48.9331 24.6951C48.9587 24.7201 48.9784 24.7502 48.9908 24.7835C49.0032 24.8167 49.0081 24.8522 49.005 24.8874V25.5441C49.0081 25.5793 49.0032 25.6148 48.9908 25.648C48.9784 25.6813 48.9587 25.7115 48.9331 25.7365C48.9075 25.7615 48.8766 25.7807 48.8426 25.7929C48.8085 25.805 48.7722 25.8098 48.7361 25.8068H48.4C48.2656 25.8068 48.1984 25.7411 48.1984 25.5441V24.8874C48.1984 24.7561 48.2656 24.6248 48.4 24.6248H48.7361ZM48.1984 32.5704V26.9231H48.9378V32.5704H48.1984ZM54.8534 28.3677V32.5704H54.1139V28.5647C54.1139 27.7767 53.9123 27.4484 53.4417 27.4484C52.9711 27.4484 52.3661 27.7767 51.6267 28.4334V32.636H50.8873V26.9887H51.5595L51.6267 27.9081C52.1663 27.3205 52.9077 26.9466 53.7106 26.8574C54.3828 26.7917 54.8534 27.3827 54.8534 28.3677ZM60.2311 31.9794L60.2984 32.5047C59.7143 32.6977 59.0996 32.7867 58.4834 32.7674C56.87 32.7674 56.265 31.9794 56.265 29.8124C56.265 27.6454 56.87 26.8574 58.4161 26.8574C59.8278 26.8574 60.3656 27.4484 60.3656 28.6304C60.3656 29.6154 60.0295 30.2064 59.29 30.2064H57.1389C57.2061 31.7167 57.6095 32.1764 58.6178 32.1764C59.1556 32.1107 59.8278 32.045 60.2311 31.9794ZM57.1389 29.5497H59.1556C59.5589 29.5497 59.6934 29.1557 59.6934 28.5647C59.6934 27.7767 59.3573 27.4484 58.4834 27.4484C57.475 27.4484 57.1389 27.9737 57.1389 29.5497ZM65.4073 26.9887L65.34 27.5141C64.7591 27.4606 64.1756 27.4387 63.5923 27.4484C62.7184 27.4484 62.4495 27.4484 62.4495 28.3677C62.4495 29.0244 62.6511 29.2214 63.1217 29.2871L64.5334 29.6154C65.2728 29.8124 65.6089 30.2064 65.6089 31.1257C65.6089 32.5047 64.9367 32.7017 63.5923 32.7017C62.9845 32.7083 62.3773 32.6644 61.7773 32.5704L61.8445 32.045C62.3801 32.1025 62.9191 32.1245 63.4578 32.1107C64.5334 32.1107 64.8695 31.9794 64.8695 31.1257C64.8695 30.469 64.6006 30.3377 64.13 30.2064L62.7856 29.878C62.0461 29.6811 61.71 29.2871 61.71 28.3677C61.71 26.9887 62.2478 26.7917 63.525 26.8574C64.1554 26.8357 64.7864 26.8797 65.4073 26.9887ZM82.0111 26.9887L81.9439 27.5141C81.363 27.4606 80.7795 27.4387 80.1961 27.4484C79.3223 27.4484 79.0534 27.4484 79.0534 28.3677C79.0534 29.0244 79.255 29.2214 79.7256 29.2871L81.1372 29.6154C81.8767 29.8124 82.2128 30.2064 82.2128 31.1257C82.2128 32.5047 81.5406 32.7017 80.1961 32.7017C79.5884 32.7083 78.9812 32.6644 78.3811 32.5704L78.4484 32.045C78.984 32.1025 79.523 32.1245 80.0617 32.1107C81.1373 32.1107 81.4734 31.9794 81.4734 31.1257C81.4734 30.469 81.2045 30.3377 80.7339 30.2064L79.3895 29.878C78.65 29.6811 78.3139 29.2871 78.3139 28.3677C78.3139 26.9887 78.8517 26.7917 80.1289 26.8574C80.7593 26.8357 81.3903 26.8797 82.0111 26.9887ZM87.5234 32.5704H86.9184L86.8511 31.7167C86.5992 32.0039 86.291 32.239 85.9447 32.4082C85.5983 32.5773 85.2209 32.6771 84.8345 32.7017C84.0278 32.7017 83.5573 32.1764 83.5573 31.1914V26.9887H84.2967V30.9944C84.2967 31.7824 84.4984 32.1107 85.0361 32.1107C85.5739 32.1107 86.0445 31.7824 86.7167 31.1914V26.9887H87.4561L87.5234 32.5704ZM93.5734 29.8124C93.5734 31.9794 93.0356 32.7674 91.8256 32.7674C91.1926 32.7617 90.5789 32.5542 90.0778 32.1764C90.1337 32.5458 90.1562 32.9194 90.145 33.2927V35H89.4056V26.9887H90.0106L90.0778 27.9081C90.3049 27.6049 90.597 27.3538 90.9337 27.1723C91.2704 26.9909 91.6436 26.8834 92.0272 26.8574C93.1028 26.7917 93.5734 27.7767 93.5734 29.8124ZM92.7667 29.8124C92.7667 28.1051 92.4978 27.5141 91.6911 27.5141C91.1534 27.5141 90.6828 27.8424 90.0778 28.4991V31.7167C90.5556 31.9618 91.0845 32.0966 91.6239 32.1107C92.4306 32.1107 92.7667 31.5854 92.7667 29.8124ZM99.3545 29.8124C99.3545 31.9794 98.8167 32.7674 97.6067 32.7674C96.9737 32.7617 96.36 32.5542 95.8589 32.1764C95.9148 32.5458 95.9373 32.9194 95.9261 33.2927V35H95.1867V26.9887H95.7917L95.8589 27.9081C96.086 27.6049 96.3781 27.3538 96.7148 27.1723C97.0515 26.9909 97.4247 26.8834 97.8084 26.8574C98.8839 26.7917 99.3545 27.7767 99.3545 29.8124ZM98.5478 29.8124C98.5478 28.1051 98.2789 27.5141 97.4723 27.5141C96.9345 27.5141 96.4639 27.8424 95.8589 28.4991V31.7167C96.3367 31.9618 96.8656 32.0966 97.405 32.1107C98.2117 32.1107 98.5478 31.5854 98.5478 29.8124ZM101.64 31.1914C101.64 31.7167 101.842 31.9794 102.312 31.9794H102.783L102.85 32.5047C102.588 32.5804 102.317 32.6245 102.043 32.636C101.371 32.636 100.901 32.1764 100.901 31.257V24.4278H101.64V31.1914ZM104.531 24.6248C104.567 24.6218 104.603 24.6265 104.637 24.6387C104.671 24.6508 104.702 24.67 104.728 24.6951C104.753 24.7201 104.773 24.7502 104.785 24.7835C104.798 24.8167 104.803 24.8522 104.799 24.8874V25.5441C104.803 25.5793 104.798 25.6148 104.785 25.648C104.773 25.6813 104.753 25.7115 104.728 25.7365C104.702 25.7615 104.671 25.7807 104.637 25.7929C104.603 25.805 104.567 25.8098 104.531 25.8068H104.194C104.06 25.8068 103.993 25.7411 103.993 25.5441V24.8874C103.993 24.7561 104.06 24.6248 104.194 24.6248H104.531ZM103.993 32.5704V26.9231H104.732V32.5704H103.993ZM110.244 31.9794L110.312 32.5047C109.728 32.6977 109.113 32.7867 108.497 32.7674C106.883 32.7674 106.278 31.9794 106.278 29.8124C106.278 27.6454 106.883 26.8574 108.429 26.8574C109.841 26.8574 110.379 27.4484 110.379 28.6304C110.379 29.6154 110.043 30.2064 109.303 30.2064H107.085C107.152 31.7167 107.556 32.1764 108.564 32.1764C109.169 32.1107 109.774 32.045 110.244 31.9794ZM107.152 29.5497H109.169C109.572 29.5497 109.707 29.1557 109.707 28.5647C109.707 27.7767 109.371 27.4484 108.497 27.4484C107.488 27.4484 107.152 27.9737 107.152 29.5497ZM115.421 26.9887L115.353 27.5141C114.772 27.4606 114.189 27.4387 113.606 27.4484C112.732 27.4484 112.463 27.4484 112.463 28.3677C112.463 29.0244 112.664 29.2214 113.135 29.2871L114.547 29.6154C115.286 29.8124 115.622 30.2064 115.622 31.1257C115.622 32.5047 114.95 32.7017 113.606 32.7017C112.998 32.7083 112.391 32.6644 111.791 32.5704L111.858 32.045C112.393 32.1025 112.932 32.1245 113.471 32.1107C114.547 32.1107 114.883 31.9794 114.883 31.1257C114.883 30.469 114.614 30.3377 114.143 30.2064L112.799 29.878C112.059 29.6811 111.723 29.2871 111.723 28.3677C111.723 26.9887 112.261 26.7917 113.538 26.8574C114.169 26.838 114.799 26.882 115.421 26.9887ZM73.9445 31.5197C74.0189 30.929 73.9962 30.3304 73.8773 29.7467H73.205C73.293 30.1127 73.3381 30.4872 73.3395 30.863L71.0539 28.3021C70.8522 28.1051 70.785 27.9081 70.785 27.3171C70.785 26.0694 71.2556 26.0038 71.7934 26.0038C72.3311 26.0038 72.5328 26.1351 72.6673 26.3978C72.7742 26.6 72.8207 26.8275 72.8017 27.0544H73.4067C73.4487 26.684 73.3533 26.3112 73.1378 26.0038C72.8689 25.6098 72.5328 25.4784 71.6589 25.4784C70.3817 25.4784 69.9784 25.9381 69.9784 27.3171C69.937 27.9112 70.1294 28.4984 70.5161 28.9587H70.3817C69.575 29.0244 69.3734 29.8124 69.3734 30.9287C69.3734 32.3077 69.9111 32.8987 71.5245 32.8987C72.6 32.8987 73.1378 32.7017 73.4067 32.242C73.5324 32.4084 73.6447 32.5841 73.7428 32.7674H74.4823C74.6167 32.3077 73.9445 31.5197 73.9445 31.5197ZM71.7934 32.1764C70.7178 32.1764 70.2473 31.7824 70.2473 30.7317C70.2473 29.878 70.3817 29.4841 70.7178 29.2871C70.785 29.2871 70.8523 29.2214 70.9195 29.2214L73.0706 31.5854C73.0034 31.9794 72.5328 32.1764 71.7934 32.1764Z" fill="#0F385A"/>
</svg>
