<svg width="180" height="53" viewBox="0 0 180 53" fill="none" xmlns="http://www.w3.org/2000/svg">
<path d="M10.4 36.9906L0 29.0356V28.2401C0 22.97 5.3 20.5835 10.2 18.2964C13.9 16.5066 18.2 14.5178 18.2 12.2308H22C22 16.9043 16.9 19.3902 11.9 21.6773C8.3 23.3677 4.5 25.1576 3.9 27.3452L10.6 32.5159L18.2 27.2458V21.379H22V29.2345L10.4 36.9906ZM3.8 17.7992H0C0 13.1257 5.1 10.6398 10.1 8.35272C13.1 6.9606 16.3 5.46904 17.5 3.77861H3.8V8.84991H0V0H22V0.894934C22 7.25891 16.7 9.44653 11.8 11.7336C8 13.5235 3.8 15.5122 3.8 17.7992ZM81.4 22.7711C80.3 24.7598 77.7 25.3565 75.8 25.3565H75.4C72.8 25.3565 69.3 24.4615 69.3 20.5835V20.3846H87.7V17.0038C87.7 10.3415 84 6.9606 76.8 6.9606H74.3C67.1 6.9606 63.4 10.3415 63.4 17.0038V19.3902C63.4 26.0525 67.1 29.4334 74.3 29.4334H76.8C81.9 29.4334 85.3 27.6435 86.7 24.2627L81.4 22.7711ZM69.3 15.9099C69.3 12.0319 72.8 11.137 75.4 11.137H75.8C78.4 11.137 81.9 12.0319 81.9 15.9099V16.9043H69.3V15.9099ZM51.1 14.3189L62.2 29.0356H55.6L46.6 16.9043L40.4 16.8049V29.0356H34.3V0H40.4V12.0319H46.3L55.2 0H61.5L51.1 14.3189ZM106 12.0319H103.7C101.5 12.0319 97.9 12.2308 97.9 16.0094V29.0356H92V17.1032C92 12.728 93.7 7.45779 102.4 7.45779H106V12.0319ZM133.6 29.0356H127.8V16.0094C127.8 12.2308 124.2 12.0319 122 12.0319H116.6V29.0356H110.8V7.65666C110.8 7.65666 117.7 7.45779 123.3 7.45779C132.1 7.45779 133.7 12.728 133.7 17.1032V29.0356H133.6ZM180 12.0319H177.7C175.8 12.0319 174.4 12.5291 173.4 13.5235C172.4 14.5178 171.9 16.0094 171.9 17.9981V29.0356H166V16.4071C166 13.6229 166.9 11.4353 168.7 9.84428C170.5 8.25328 173.1 7.45779 176.4 7.45779H180V12.0319ZM155.6 22.7711C154.5 24.7598 151.9 25.3565 150 25.3565H149.6C147 25.3565 143.5 24.4615 143.5 20.5835V20.3846H161.9V17.0038C161.9 10.3415 158.2 6.9606 151 6.9606H148.5C141.3 6.9606 137.6 10.3415 137.6 17.0038V19.3902C137.6 26.0525 141.3 29.4334 148.5 29.4334H151C156.1 29.4334 159.5 27.6435 160.9 24.2627L155.6 22.7711ZM143.5 15.9099C143.5 12.0319 147 11.137 149.6 11.137H150C152.6 11.137 156.1 12.0319 156.1 15.9099V16.9043H143.5V15.9099ZM45 42.9568V49.3208H43.9V43.2552C43.9 42.0619 43.6 41.5647 42.8 41.5647C42.1 41.5647 41.5 42.0619 40.4 43.0563V49.4203H39.3V43.3546C39.3 42.1614 38.9 41.6642 38.2 41.6642C37.5 41.6642 36.9 42.0619 35.9 43.1557V49.5197H34.8V40.9681H35.7L35.8 42.3602C36.8 41.2664 37.7 40.7692 38.7 40.7692C39.7 40.7692 40.3 41.2664 40.5 42.3602C41.5 41.2664 42.4 40.7692 43.3 40.7692C44.4 40.5704 45 41.4653 45 42.9568ZM53.2 43.2552V49.4203H52.3L52.2 48.0281C51.7 48.7242 50.6 49.6191 49.3 49.6191C48.1 49.6191 47.3 48.8236 47.3 47.3321V46.3377C47.3 45.045 48 44.2495 49.2 44.2495H52.2V43.3546C52.2 42.2608 51.9 41.6642 50.8 41.6642C50 41.6642 48.9 41.7636 47.8 41.863L47.7 41.0675C48.7 40.8687 50 40.6698 51 40.6698C52.4 40.5704 53.2 41.2664 53.2 43.2552ZM52 47.1332V44.9456H49.3C48.6 44.9456 48.4 45.4428 48.4 46.2383V46.9343C48.4 47.9287 48.8 48.3265 49.5 48.3265C50.2 48.5253 51.2 48.0281 52 47.1332ZM60.9 40.9681L60.7 41.7636C60.1 41.6642 59.3 41.6642 58.8 41.6642C57.1 41.6642 56.5 42.4597 56.5 45.1445C56.5 47.8293 57.1 48.6248 58.8 48.6248C59.2 48.6248 60.1 48.6248 60.8 48.4259L60.9 49.2214C60.2 49.4203 59.4 49.6191 58.6 49.6191C56.2 49.6191 55.3 48.4259 55.3 45.1445C55.3 41.863 56.2 40.6698 58.6 40.6698C59.3 40.5704 60.2 40.6698 60.9 40.9681ZM69.1 42.9568V49.3208H68V43.2552C68 42.0619 67.7 41.5647 66.9 41.5647C66.1 41.5647 65.3 42.0619 64.2 43.0563V49.4203H63V36.9906H64.1V40.5704C64.1 41.167 64.1 41.7636 64 42.2608C65 41.2664 66.1 40.6698 67.1 40.6698C68.4 40.5704 69.1 41.4653 69.1 42.9568ZM72.5 37.2889C72.7 37.2889 72.9 37.3884 72.9 37.6867V38.6811C72.9 38.8799 72.8 39.0788 72.5 39.0788H72C71.8 39.0788 71.7 38.9794 71.7 38.6811V37.6867C71.7 37.4878 71.8 37.2889 72 37.2889H72.5ZM71.7 49.3208V40.7692H72.8V49.3208H71.7ZM81.6 42.9568V49.3208H80.5V43.2552C80.5 42.0619 80.2 41.5647 79.5 41.5647C78.7 41.5647 77.9 42.0619 76.8 43.0563V49.4203H75.7V40.8687H76.7L76.8 42.2608C77.9 41.2664 78.9 40.6698 79.9 40.6698C80.9 40.5704 81.6 41.4653 81.6 42.9568ZM89.6 48.4259L89.7 49.2214C89.1 49.5197 87.8 49.6191 87 49.6191C84.6 49.6191 83.7 48.4259 83.7 45.1445C83.7 41.863 84.6 40.6698 86.9 40.6698C89 40.6698 89.8 41.5647 89.8 43.3546C89.8 44.8462 89.3 45.7411 88.2 45.7411H85C85.1 48.0281 85.7 48.7242 87.2 48.7242C88 48.6248 89 48.5253 89.6 48.4259ZM85 44.7467H88C88.6 44.7467 88.8 44.1501 88.8 43.2552C88.8 42.0619 88.3 41.5647 87 41.5647C85.5 41.5647 85 42.3602 85 44.7467ZM97.3 40.8687L97.2 41.6642C96.3 41.5647 95.4 41.5647 94.6 41.5647C93.3 41.5647 92.9 41.5647 92.9 42.9568C92.9 43.9512 93.2 44.2495 93.9 44.349L96 44.8462C97.1 45.1445 97.6 45.7411 97.6 47.1332C97.6 49.2214 96.6 49.5197 94.6 49.5197C94.1 49.5197 93.1 49.5197 91.9 49.3208L92 48.5253C92.7 48.6248 93.5 48.6248 94.4 48.6248C96 48.6248 96.5 48.4259 96.5 47.1332C96.5 46.1388 96.1 45.94 95.4 45.7411L93.4 45.2439C92.3 44.9456 91.8 44.349 91.8 42.9568C91.8 40.8687 92.6 40.5704 94.5 40.6698C95.3 40.6698 96.5 40.6698 97.3 40.8687ZM122 40.8687L121.9 41.6642C121 41.5647 120.1 41.5647 119.3 41.5647C118 41.5647 117.6 41.5647 117.6 42.9568C117.6 43.9512 117.9 44.2495 118.6 44.349L120.7 44.8462C121.8 45.1445 122.3 45.7411 122.3 47.1332C122.3 49.2214 121.3 49.5197 119.3 49.5197C118.8 49.5197 117.8 49.5197 116.6 49.3208L116.7 48.5253C117.4 48.6248 118.2 48.6248 119.1 48.6248C120.7 48.6248 121.2 48.4259 121.2 47.1332C121.2 46.1388 120.8 45.94 120.1 45.7411L118.1 45.2439C117 44.9456 116.5 44.349 116.5 42.9568C116.5 40.8687 117.3 40.5704 119.2 40.6698C120 40.6698 121.2 40.6698 122 40.8687ZM130.2 49.3208H129.3L129.2 48.0281C128.2 49.0225 127.2 49.5197 126.2 49.5197C125 49.5197 124.3 48.7242 124.3 47.2326V40.8687H125.4V46.9343C125.4 48.1276 125.7 48.6248 126.5 48.6248C127.3 48.6248 128 48.1276 129 47.2326V40.8687H130.1V49.3208H130.2ZM139.2 45.1445C139.2 48.4259 138.4 49.6191 136.6 49.6191C135.7 49.6191 134.8 49.3208 134 48.7242C134.1 49.3208 134.1 49.818 134.1 50.4146V53H133V40.8687H133.9L134 42.2608C134.8 41.2664 135.9 40.6698 136.9 40.6698C138.5 40.5704 139.2 42.0619 139.2 45.1445ZM138 45.1445C138 42.5591 137.6 41.6642 136.4 41.6642C135.6 41.6642 134.9 42.1614 134 43.1557V48.0281C134.9 48.4259 135.5 48.6248 136.3 48.6248C137.5 48.6248 138 47.8293 138 45.1445ZM147.8 45.1445C147.8 48.4259 147 49.6191 145.2 49.6191C144.3 49.6191 143.4 49.3208 142.6 48.7242C142.7 49.3208 142.7 49.818 142.7 50.4146V53H141.6V40.8687H142.5L142.6 42.2608C143.4 41.2664 144.5 40.6698 145.5 40.6698C147.1 40.5704 147.8 42.0619 147.8 45.1445ZM146.6 45.1445C146.6 42.5591 146.2 41.6642 145 41.6642C144.2 41.6642 143.5 42.1614 142.6 43.1557V48.0281C143.5 48.4259 144.1 48.6248 144.9 48.6248C146.1 48.6248 146.6 47.8293 146.6 45.1445ZM151.2 47.2326C151.2 48.0281 151.5 48.4259 152.2 48.4259H152.9L153 49.2214C152.7 49.3208 152.1 49.4203 151.8 49.4203C150.8 49.4203 150.1 48.7242 150.1 47.3321V36.9906H151.2V47.2326ZM155.5 37.2889C155.7 37.2889 155.9 37.3884 155.9 37.6867V38.6811C155.9 38.8799 155.8 39.0788 155.5 39.0788H155C154.8 39.0788 154.7 38.9794 154.7 38.6811V37.6867C154.7 37.4878 154.8 37.2889 155 37.2889H155.5ZM154.7 49.3208V40.7692H155.8V49.3208H154.7ZM164 48.4259L164.1 49.2214C163.5 49.5197 162.2 49.6191 161.4 49.6191C159 49.6191 158.1 48.4259 158.1 45.1445C158.1 41.863 159 40.6698 161.3 40.6698C163.4 40.6698 164.2 41.5647 164.2 43.3546C164.2 44.8462 163.7 45.7411 162.6 45.7411H159.3C159.4 48.0281 160 48.7242 161.5 48.7242C162.4 48.6248 163.3 48.5253 164 48.4259ZM159.4 44.7467H162.4C163 44.7467 163.2 44.1501 163.2 43.2552C163.2 42.0619 162.7 41.5647 161.4 41.5647C159.9 41.5647 159.4 42.3602 159.4 44.7467ZM171.7 40.8687L171.6 41.6642C170.7 41.5647 169.8 41.5647 169 41.5647C167.7 41.5647 167.3 41.5647 167.3 42.9568C167.3 43.9512 167.6 44.2495 168.3 44.349L170.4 44.8462C171.5 45.1445 172 45.7411 172 47.1332C172 49.2214 171 49.5197 169 49.5197C168.5 49.5197 167.5 49.5197 166.3 49.3208L166.4 48.5253C167.1 48.6248 167.9 48.6248 168.8 48.6248C170.4 48.6248 170.9 48.4259 170.9 47.1332C170.9 46.1388 170.5 45.94 169.8 45.7411L167.8 45.2439C166.7 44.9456 166.2 44.349 166.2 42.9568C166.2 40.8687 167 40.5704 168.9 40.6698C169.7 40.6698 170.8 40.6698 171.7 40.8687ZM110 47.7298C110 47.7298 110.2 46.2383 109.9 45.045H108.9C109.1 45.7411 109.1 46.7355 109.1 46.7355L105.7 42.8574C105.4 42.5591 105.3 42.2608 105.3 41.3659C105.3 39.4765 106 39.3771 106.8 39.3771C107.6 39.3771 107.9 39.576 108.1 39.9737C108.2 40.0732 108.3 40.4709 108.3 40.9681H109.2C109.2 40.0732 109 39.576 108.8 39.3771C108.4 38.7805 107.9 38.5816 106.6 38.5816C104.7 38.5816 104.1 39.2777 104.1 41.3659C104.1 42.3602 104.2 42.8574 104.9 43.8518H104.7C103.5 43.9512 103.2 45.1445 103.2 46.8349C103.2 48.9231 104 49.818 106.4 49.818C108 49.818 108.8 49.5197 109.2 48.8236C109.2 48.8236 109.5 49.2214 109.7 49.6191H110.8C111 48.9231 110 47.7298 110 47.7298ZM106.8 48.7242C105.2 48.7242 104.5 48.1276 104.5 46.5366C104.5 45.2439 104.7 44.6473 105.2 44.349C105.3 44.349 105.4 44.2495 105.5 44.2495L108.7 47.8293C108.6 48.4259 107.9 48.7242 106.8 48.7242Z" fill="white"/>
</svg>
