<svg width="180" height="54" viewBox="0 0 180 54" fill="none" xmlns="http://www.w3.org/2000/svg">
<path d="M10.4 37.2L0 29.2V28.4C0 23.1 5.3 20.7 10.2 18.4C13.9 16.6 18.2 14.6 18.2 12.3H22C22 17 16.9 19.5 11.9 21.8C8.3 23.5 4.5 25.3 3.9 27.5L10.6 32.7L18.2 27.4V21.5H22V29.4L10.4 37.2ZM3.8 17.9H0C0 13.2 5.1 10.7 10.1 8.4C13.1 7 16.3 5.5 17.5 3.8H3.8V8.9H0V0H22V0.9C22 7.3 16.7 9.5 11.8 11.8C8 13.6 3.8 15.6 3.8 17.9Z" fill="#009BC8"/>
<path d="M81.4 22.9C80.3 24.9 77.7 25.5 75.8 25.5H75.4C72.8 25.5 69.3 24.6 69.3 20.7V20.5H87.7V17.1C87.7 10.4 84 7 76.8 7H74.3C67.1 7 63.4 10.4 63.4 17.1V19.5C63.4 26.2 67.1 29.6 74.3 29.6H76.8C81.9 29.6 85.3 27.8 86.7 24.4L81.4 22.9ZM69.3 16C69.3 12.1 72.8 11.2 75.4 11.2H75.8C78.4 11.2 81.9 12.1 81.9 16V17H69.3V16ZM51.1 14.4L62.2 29.2H55.6L46.6 17L40.4 16.9V29.2H34.3V0H40.4V12.1H46.3L55.2 0H61.5L51.1 14.4ZM106 12.1H103.7C101.5 12.1 97.9 12.3 97.9 16.1V29.2H92V17.2C92 12.8 93.7 7.5 102.4 7.5H106V12.1ZM133.6 29.2H127.8V16.1C127.8 12.3 124.2 12.1 122 12.1H116.6V29.2H110.8V7.7C110.8 7.7 117.7 7.5 123.3 7.5C132.1 7.5 133.7 12.8 133.7 17.2L133.6 29.2ZM180 12.1H177.7C176.919 12.0452 176.135 12.1499 175.396 12.4078C174.656 12.6657 173.977 13.0713 173.4 13.6C172.863 14.2122 172.453 14.9257 172.195 15.6985C171.938 16.4713 171.837 17.2878 171.9 18.1V29.2H166V16.5C165.937 15.269 166.146 14.0393 166.613 12.8985C167.08 11.7577 167.792 10.7338 168.7 9.9C170.5 8.3 173.1 7.5 176.4 7.5H180V12.1ZM155.6 22.9C154.5 24.9 151.9 25.5 150 25.5H149.6C147 25.5 143.5 24.6 143.5 20.7V20.5H161.9V17.1C161.9 10.4 158.2 7 151 7H148.5C141.3 7 137.6 10.4 137.6 17.1V19.5C137.6 26.2 141.3 29.6 148.5 29.6H151C156.1 29.6 159.5 27.8 160.9 24.4L155.6 22.9ZM143.5 16C143.5 12.1 147 11.2 149.6 11.2H150C152.6 11.2 156.1 12.1 156.1 16V17H143.5V16ZM45 43.2V49.6H43.9V43.5C43.9 42.3 43.6 41.8 42.8 41.8C42 41.8 41.5 42.3 40.4 43.3V49.7H39.3V43.6C39.3 42.4 38.9 41.9 38.2 41.9C37.5 41.9 36.9 42.3 35.9 43.4V49.8H34.8V41.2H35.7L35.8 42.6C36.1378 42.1383 36.5723 41.7559 37.0732 41.4796C37.5741 41.2032 38.1293 41.0396 38.7 41C38.9239 40.9837 39.1488 41.0125 39.3614 41.0846C39.574 41.1568 39.77 41.2708 39.9378 41.4199C40.1056 41.5691 40.2418 41.7504 40.3384 41.9531C40.4349 42.1557 40.4899 42.3757 40.5 42.6C40.8265 42.15 41.2451 41.7746 41.7278 41.4987C42.2106 41.2229 42.7465 41.0529 43.3 41C44.4 40.8 45 41.7 45 43.2ZM53.2 43.5V49.7H52.3L52.2 48.3C51.8677 48.7672 51.4344 49.1537 50.9324 49.4306C50.4304 49.7076 49.8725 49.868 49.3 49.9C48.1 49.9 47.3 49.1 47.3 47.6V46.6C47.2633 46.3327 47.2856 46.0606 47.3653 45.8028C47.4449 45.5449 47.58 45.3077 47.761 45.1076C47.942 44.9075 48.1647 44.7494 48.4132 44.6445C48.6618 44.5395 48.9303 44.4902 49.2 44.5H52.2V43.6C52.2 42.5 51.9 41.9 50.8 41.9C50 41.9 48.9 42 47.8 42.1L47.7 41.3C48.7858 41.0684 49.8903 40.9345 51 40.9C52.4 40.8 53.2 41.5 53.2 43.5ZM52 47.4V45.2H49.3C48.6 45.2 48.4 45.7 48.4 46.5V47.2C48.4 48.2 48.8 48.6 49.5 48.6C49.9846 48.6313 50.4692 48.5374 50.907 48.3272C51.3449 48.117 51.7213 47.7977 52 47.4ZM60.9 41.2L60.7 42C60.07 41.9194 59.4349 41.886 58.8 41.9C57.1 41.9 56.5 42.7 56.5 45.4C56.5 48.1 57.1 48.9 58.8 48.9C59.4725 48.919 60.1446 48.8518 60.8 48.7L60.9 49.5C60.1553 49.7382 59.3814 49.8728 58.6 49.9C56.2 49.9 55.3 48.7 55.3 45.4C55.3 42.1 56.2 40.9 58.6 40.9C59.3797 40.8014 60.1716 40.9047 60.9 41.2ZM69.1 43.2V49.6H68V43.5C68 42.3 67.7 41.8 66.9 41.8C66.1 41.8 65.3 42.3 64.2 43.3V49.7H63V37.2H64.1V40.8C64.1196 41.3685 64.0861 41.9377 64 42.5C64.7891 41.5879 65.8994 41.0149 67.1 40.9C68.4 40.8 69.1 41.7 69.1 43.2ZM72.5 37.5C72.5537 37.4954 72.6077 37.5027 72.6583 37.5211C72.7089 37.5396 72.7549 37.5689 72.7929 37.607C72.831 37.6451 72.8604 37.6911 72.8788 37.7417C72.8973 37.7923 72.9046 37.8463 72.9 37.9V38.9C72.9046 38.9537 72.8973 39.0077 72.8788 39.0583C72.8604 39.1089 72.831 39.1549 72.7929 39.193C72.7549 39.2311 72.7089 39.2604 72.6583 39.2789C72.6077 39.2973 72.5537 39.3046 72.5 39.3H72C71.8 39.3 71.7 39.2 71.7 38.9V37.9C71.7 37.7 71.8 37.5 72 37.5H72.5ZM71.7 49.6V41H72.8V49.6H71.7ZM81.6 43.2V49.6H80.5V43.5C80.5 42.3 80.2 41.8 79.5 41.8C78.8 41.8 77.9 42.3 76.8 43.3V49.7H75.7V41.1H76.7L76.8 42.5C77.6026 41.6052 78.7056 41.0359 79.9 40.9C80.9 40.8 81.6 41.7 81.6 43.2ZM89.6 48.7L89.7 49.5C88.8312 49.7939 87.9167 49.9294 87 49.9C84.6 49.9 83.7 48.7 83.7 45.4C83.7 42.1 84.6 40.9 86.9 40.9C89 40.9 89.8 41.8 89.8 43.6C89.8 45.1 89.3 46 88.2 46H85C85.1 48.3 85.7 49 87.2 49C88 48.9 89 48.8 89.6 48.7ZM85 45H88C88.6 45 88.8 44.4 88.8 43.5C88.8 42.3 88.3 41.8 87 41.8C85.5 41.8 85 42.6 85 45ZM97.3 41.1L97.2 41.9C96.3358 41.8186 95.4678 41.7853 94.6 41.8C93.3 41.8 92.9 41.8 92.9 43.2C92.9 44.2 93.2 44.5 93.9 44.6L96 45.1C97.1 45.4 97.6 46 97.6 47.4C97.6 49.5 96.6 49.8 94.6 49.8C93.6959 49.8101 92.7927 49.7432 91.9 49.6L92 48.8C92.7968 48.8876 93.5986 48.921 94.4 48.9C96 48.9 96.5 48.7 96.5 47.4C96.5 46.4 96.1 46.2 95.4 46L93.4 45.5C92.3 45.2 91.8 44.6 91.8 43.2C91.8 41.1 92.6 40.8 94.5 40.9C95.4378 40.867 96.3764 40.934 97.3 41.1ZM122 41.1L121.9 41.9C121.036 41.8186 120.168 41.7853 119.3 41.8C118 41.8 117.6 41.8 117.6 43.2C117.6 44.2 117.9 44.5 118.6 44.6L120.7 45.1C121.8 45.4 122.3 46 122.3 47.4C122.3 49.5 121.3 49.8 119.3 49.8C118.396 49.8101 117.493 49.7432 116.6 49.6L116.7 48.8C117.497 48.8876 118.299 48.921 119.1 48.9C120.7 48.9 121.2 48.7 121.2 47.4C121.2 46.4 120.8 46.2 120.1 46L118.1 45.5C117 45.2 116.5 44.6 116.5 43.2C116.5 41.1 117.3 40.8 119.2 40.9C120.138 40.867 121.076 40.934 122 41.1ZM130.2 49.6H129.3L129.2 48.3C128.825 48.7374 128.367 49.0954 127.852 49.353C127.336 49.6106 126.775 49.7626 126.2 49.8C125 49.8 124.3 49 124.3 47.5V41.1H125.4V47.2C125.4 48.4 125.7 48.9 126.5 48.9C127.3 48.9 128 48.4 129 47.5V41.1H130.1L130.2 49.6ZM139.2 45.4C139.2 48.7 138.4 49.9 136.6 49.9C135.658 49.8914 134.745 49.5753 134 49C134.083 49.5626 134.117 50.1315 134.1 50.7V53.3H133V41.1H133.9L134 42.5C134.338 42.0383 134.772 41.6559 135.273 41.3796C135.774 41.1032 136.329 40.9396 136.9 40.9C138.5 40.8 139.2 42.3 139.2 45.4ZM138 45.4C138 42.8 137.6 41.9 136.4 41.9C135.6 41.9 134.9 42.4 134 43.4V48.3C134.711 48.6732 135.498 48.8785 136.3 48.9C137.5 48.9 138 48.1 138 45.4ZM147.8 45.4C147.8 48.7 147 49.9 145.2 49.9C144.258 49.8914 143.345 49.5753 142.6 49C142.683 49.5626 142.717 50.1315 142.7 50.7V53.3H141.6V41.1H142.5L142.6 42.5C142.938 42.0383 143.372 41.6559 143.873 41.3796C144.374 41.1032 144.929 40.9396 145.5 40.9C147.1 40.8 147.8 42.3 147.8 45.4ZM146.6 45.4C146.6 42.8 146.2 41.9 145 41.9C144.2 41.9 143.5 42.4 142.6 43.4V48.3C143.311 48.6732 144.098 48.8785 144.9 48.9C146.1 48.9 146.6 48.1 146.6 45.4ZM151.2 47.5C151.2 48.3 151.5 48.7 152.2 48.7H152.9L153 49.5C152.61 49.6153 152.207 49.6824 151.8 49.7C150.8 49.7 150.1 49 150.1 47.6V37.2H151.2V47.5ZM155.5 37.5C155.554 37.4954 155.608 37.5027 155.658 37.5211C155.709 37.5396 155.755 37.5689 155.793 37.607C155.831 37.6451 155.86 37.6911 155.879 37.7417C155.897 37.7923 155.905 37.8463 155.9 37.9V38.9C155.905 38.9537 155.897 39.0077 155.879 39.0583C155.86 39.1089 155.831 39.1549 155.793 39.193C155.755 39.2311 155.709 39.2604 155.658 39.2789C155.608 39.2973 155.554 39.3046 155.5 39.3H155C154.8 39.3 154.7 39.2 154.7 38.9V37.9C154.7 37.7 154.8 37.5 155 37.5H155.5ZM154.7 49.6V41H155.8V49.6H154.7ZM164 48.7L164.1 49.5C163.231 49.7939 162.317 49.9294 161.4 49.9C159 49.9 158.1 48.7 158.1 45.4C158.1 42.1 159 40.9 161.3 40.9C163.4 40.9 164.2 41.8 164.2 43.6C164.2 45.1 163.7 46 162.6 46H159.3C159.4 48.3 160 49 161.5 49C162.4 48.9 163.3 48.8 164 48.7ZM159.4 45H162.4C163 45 163.2 44.4 163.2 43.5C163.2 42.3 162.7 41.8 161.4 41.8C159.9 41.8 159.4 42.6 159.4 45ZM171.7 41.1L171.6 41.9C170.736 41.8186 169.868 41.7853 169 41.8C167.7 41.8 167.3 41.8 167.3 43.2C167.3 44.2 167.6 44.5 168.3 44.6L170.4 45.1C171.5 45.4 172 46 172 47.4C172 49.5 171 49.8 169 49.8C168.096 49.8101 167.193 49.7432 166.3 49.6L166.4 48.8C167.197 48.8876 167.999 48.921 168.8 48.9C170.4 48.9 170.9 48.7 170.9 47.4C170.9 46.4 170.5 46.2 169.8 46L167.8 45.5C166.7 45.2 166.2 44.6 166.2 43.2C166.2 41.1 167 40.8 168.9 40.9C169.838 40.8705 170.776 40.9375 171.7 41.1ZM110 48C110.111 47.1004 110.077 46.1889 109.9 45.3H108.9C109.031 45.8573 109.098 46.4276 109.1 47L105.7 43.1C105.4 42.8 105.3 42.5 105.3 41.6C105.3 39.7 106 39.6 106.8 39.6C107.6 39.6 107.9 39.8 108.1 40.2C108.259 40.508 108.328 40.8545 108.3 41.2H109.2C109.263 40.636 109.121 40.0682 108.8 39.6C108.4 39 107.9 38.8 106.6 38.8C104.7 38.8 104.1 39.5 104.1 41.6C104.038 42.5048 104.325 43.399 104.9 44.1H104.7C103.5 44.2 103.2 45.4 103.2 47.1C103.2 49.2 104 50.1 106.4 50.1C108 50.1 108.8 49.8 109.2 49.1C109.387 49.3534 109.554 49.6209 109.7 49.9H110.8C111 49.2 110 48 110 48ZM106.8 49C105.2 49 104.5 48.4 104.5 46.8C104.5 45.5 104.7 44.9 105.2 44.6C105.3 44.6 105.4 44.5 105.5 44.5L108.7 48.1C108.6 48.7 107.9 49 106.8 49Z" fill="#0F385A"/>
</svg>
