<svg width="48" height="48" viewBox="0 0 48 48" fill="none" xmlns="http://www.w3.org/2000/svg">
<g clip-path="url(#clip0)">
<path d="M33.8513 10.3798C34.1397 9.92962 34.0082 9.33075 33.558 9.04256C30.7062 7.21687 27.4012 6.25171 24.0002 6.25171C14.2138 6.25171 6.25171 14.2136 6.25171 24.0002C6.25171 33.7868 14.2137 41.7487 24.0002 41.7487C33.7867 41.7487 41.7487 33.7868 41.7485 24.0003C41.7485 19.9993 40.4491 16.2223 37.9904 13.0776C37.6613 12.6565 37.0529 12.582 36.6316 12.9112C36.2102 13.2404 36.1358 13.8488 36.4651 14.2701C38.655 17.0709 39.8124 20.4355 39.8124 24.0001C39.8124 32.7191 32.7191 39.8124 24.0001 39.8124C15.2812 39.8124 8.18793 32.719 8.18793 24C8.18793 15.2811 15.2813 8.18784 24.0002 8.18784C27.0305 8.18784 29.9744 9.04725 32.514 10.6732C32.9639 10.9613 33.5629 10.8301 33.8513 10.3798Z" fill="white"/>
<path d="M46.9117 23.999C46.9117 22.886 47.1809 21.6533 47.4413 20.4613C47.8986 18.3671 48.3715 16.2016 47.5581 14.2401C46.7101 12.1952 44.8059 10.9876 42.9641 9.81971C41.9219 9.15868 40.9375 8.53449 40.2009 7.79789C39.4645 7.06139 38.8402 6.07701 38.1793 5.0347C37.0114 3.19317 35.8037 1.28882 33.759 0.440848C31.7974 -0.372341 29.632 0.100441 27.5377 0.557754C26.3457 0.818098 25.1131 1.08726 24.0002 1.08726C22.8873 1.08726 21.6546 0.818098 20.4626 0.557754C18.3685 0.100441 16.2029 -0.372435 14.2413 0.440848C12.1964 1.28872 10.9889 3.19307 9.821 5.0347C9.16016 6.07692 8.53578 7.06139 7.79938 7.79789C7.06287 8.5343 6.07831 9.15868 5.03618 9.81952C3.19446 10.9875 1.29011 12.1952 0.442142 14.2401C-0.371141 16.2015 0.101641 18.3669 0.558954 20.4611C0.819299 21.6531 1.08855 22.8859 1.08855 23.9988C1.08855 25.1117 0.819299 26.3444 0.558954 27.5364C0.101641 29.6306 -0.371235 31.7962 0.442142 33.7576C1.29021 35.8026 3.19455 37.0103 5.03618 38.1782L5.40846 38.4148C5.85922 38.7023 6.45772 38.5701 6.74525 38.1193C7.03297 37.6686 6.90069 37.0701 6.44994 36.7824L6.07315 36.543C4.41256 35.49 2.84412 34.4953 2.23061 33.016C1.65011 31.6158 2.03908 29.835 2.45074 27.9497C2.73293 26.6572 3.02477 25.3207 3.02477 23.9988C3.02477 22.6769 2.73302 21.3404 2.45074 20.0479C2.03908 18.1625 1.65021 16.3818 2.23061 14.9816C2.84412 13.5022 4.41256 12.5075 6.07306 11.4545C7.15841 10.7664 8.28041 10.0546 9.16841 9.16683C10.0562 8.27902 10.768 7.15683 11.4562 6.07148C12.5091 4.41098 13.5038 2.84273 14.9831 2.22932C16.3832 1.64863 18.1641 2.03751 20.0496 2.44926C21.342 2.73145 22.6785 3.02329 24.0003 3.02329C25.322 3.02329 26.6584 2.73154 27.9509 2.44926C29.8364 2.03751 31.6174 1.64854 33.0174 2.22932C34.4967 2.84273 35.4912 4.41098 36.5443 6.07148C37.2325 7.15683 37.9443 8.27902 38.8321 9.16683C39.7199 10.0546 40.8423 10.7664 41.9275 11.4546C43.588 12.5076 45.1564 13.5023 45.7699 14.9816C46.3504 16.3818 45.9614 18.1626 45.5499 20.0479C45.2677 21.3404 44.9758 22.6769 44.9758 23.9989C44.9758 25.3208 45.2676 26.6572 45.5499 27.9498C45.9615 29.8351 46.3504 31.6159 45.7699 33.016C45.1564 34.4954 43.588 35.4901 41.9275 36.5431C40.8421 37.2312 39.7201 37.943 38.8321 38.8308C37.9443 39.7186 37.2325 40.8408 36.5443 41.9261C35.4914 43.5866 34.4967 45.1549 33.0174 45.7683C31.6173 46.3489 29.8364 45.9601 27.9509 45.5484C26.6585 45.2662 25.322 44.9743 24.0003 44.9743C22.6785 44.9743 21.3422 45.2661 20.0496 45.5484C18.1641 45.9601 16.3835 46.3491 14.9831 45.7685C13.5038 45.1551 12.5093 43.5866 11.4562 41.9263C11.1804 41.4914 10.8952 41.0419 10.6008 40.6109C10.299 40.1695 9.6965 40.0563 9.25532 40.3579C8.81385 40.6596 8.7005 41.2619 9.00219 41.7034C9.278 42.1069 9.54191 42.5228 9.8211 42.9632C10.989 44.8047 12.1966 46.7091 14.2414 47.5571C15.0168 47.8784 15.8236 47.999 16.6456 47.999C17.9034 47.999 19.1962 47.7167 20.4627 47.44C21.6547 47.1796 22.8873 46.9105 24.0003 46.9105C25.1132 46.9105 26.3458 47.1796 27.5378 47.44C29.632 47.8973 31.7975 48.3702 33.7591 47.5569C35.804 46.7089 37.0115 44.8046 38.1794 42.963C38.8403 41.9208 39.4646 40.9363 40.201 40.1998C40.9375 39.4634 41.922 38.839 42.9642 38.1782C44.806 37.0103 46.7102 35.8025 47.5582 33.7576C48.3715 31.7963 47.8987 29.6308 47.4414 27.5366C47.1809 26.3446 46.9117 25.1119 46.9117 23.999Z" fill="#009BC9"/>
<path d="M15.5707 32.4294C15.7598 32.6185 16.0077 32.713 16.2554 32.713C16.5031 32.713 16.751 32.6184 16.9399 32.4294L32.4294 16.9398C32.8075 16.5619 32.8075 15.9489 32.4294 15.5708C32.0513 15.1927 31.4385 15.1927 31.0603 15.5708L15.5707 31.0604C15.1927 31.4383 15.1927 32.0513 15.5707 32.4294Z" fill="white"/>
<path d="M18.8369 22.3866C20.7941 22.3866 22.3866 20.7942 22.3866 18.8369C22.3866 16.8796 20.7941 15.2872 18.8369 15.2872C16.8797 15.2872 15.2872 16.8796 15.2872 18.8369C15.2872 20.7942 16.8797 22.3866 18.8369 22.3866ZM18.8369 17.2234C19.7265 17.2234 20.4504 17.9471 20.4504 18.8369C20.4504 19.7267 19.7267 20.4504 18.8369 20.4504C17.9471 20.4504 17.2234 19.7267 17.2234 18.8369C17.2235 17.9471 17.9472 17.2234 18.8369 17.2234Z" fill="white"/>
<path d="M29.1633 32.713C31.1205 32.713 32.713 31.1206 32.713 29.1633C32.713 27.2059 31.1205 25.6136 29.1633 25.6136C27.2061 25.6136 25.6136 27.206 25.6136 29.1633C25.6136 31.1206 27.2061 32.713 29.1633 32.713ZM29.1633 27.5498C30.0529 27.5498 30.7768 28.2735 30.7768 29.1633C30.7768 30.0531 30.0531 30.7768 29.1633 30.7768C28.2735 30.7768 27.5498 30.0531 27.5498 29.1633C27.5498 28.2735 28.2735 27.5498 29.1633 27.5498Z" fill="white"/>
</g>
<defs>
<clipPath id="clip0">
<rect width="48" height="48" fill="white"/>
</clipPath>
</defs>
</svg>
