<svg width="18" height="18" viewBox="0 0 18 18" fill="none" xmlns="http://www.w3.org/2000/svg">
<path d="M16.8907 0H10.7014C10.0896 0 9.59194 0.497739 9.59194 1.10947C9.59194 1.7212 10.0896 2.21894 10.7014 2.21894H14.2122L8.3558 8.07528C8.14615 8.28481 8.03076 8.56338 8.03076 8.85983C8.03076 9.15628 8.14608 9.43479 8.35568 9.64413C8.56527 9.85392 8.84378 9.96937 9.14023 9.96937C9.43655 9.96937 9.71519 9.85398 9.92485 9.64432L15.7812 3.78792V7.29872C15.7812 7.91045 16.2789 8.40819 16.8907 8.40819C17.5024 8.40819 18.0001 7.91045 18.0001 7.29872V1.10947C18.0001 0.497739 17.5024 0 16.8907 0Z" fill="#009BC9"/>
<path d="M12.7517 16.0974H1.90195V5.24765H10.062L11.9639 3.3457H0.950973C0.425782 3.3457 0 3.77148 0 4.29667V17.0484C0 17.5736 0.425782 17.9993 0.950973 17.9993H13.7027C14.2279 17.9993 14.6537 17.5736 14.6537 17.0484V6.03543L12.7517 7.93737V16.0974Z" fill="#009BC9"/>
</svg>
